<?xml version="1.0" encoding="UTF-8" standalone="no"?>
<!DOCTYPE svg PUBLIC "-//W3C//DTD SVG 1.1//EN"
 "http://www.w3.org/Graphics/SVG/1.1/DTD/svg11.dtd">
<!-- Generated by graphviz version 10.0.1 (20240210.2158)
 -->
<!-- Title: SNMP::VarBindList Pages: 1 -->
<svg width="204pt" height="347pt"
 viewBox="0.00 0.00 203.50 347.00" xmlns="http://www.w3.org/2000/svg" xmlns:xlink="http://www.w3.org/1999/xlink">

<svg id="main" version="1.1" xmlns="http://www.w3.org/2000/svg" xmlns:xlink="http://www.w3.org/1999/xlink" xml:space="preserve" onload="init(evt)">
<style type="text/css"><![CDATA[
.node, .edge {opacity: 0.7;}
.node.selected, .edge.selected {opacity: 1;}
.edge:hover path { stroke: red; }
.edge:hover polygon { stroke: red; fill: red; }
]]></style>
<script type="application/ecmascript" xlink:href="svg.min.js"/>
<svg id="graph" class="graph">
<g id="graph0" class="graph" transform="scale(1 1) rotate(0) translate(4 343)">
<title>SNMP::VarBindList</title>
<!-- Node1 -->
<g id="Node000001" class="node">
<title>Node1</title>
<g id="a_Node000001"><a xlink:title="BER object to handle a list of variable bindings.">
<polygon fill="#999999" stroke="#666666" points="116.12,-20 15.38,-20 15.38,0 116.12,0 116.12,-20"/>
<text text-anchor="middle" x="65.75" y="-6.5" font-family="Helvetica,sans-Serif" font-size="10.00">SNMP::VarBindList</text>
</a>
</g>
</g>
<!-- Node2 -->
<g id="Node000002" class="node">
<title>Node2</title>
<g id="a_Node000002"><a xlink:href="class_s_n_m_p_1_1_sequence_b_e_r.html" target="_top" xlink:title="BER object to handle sequence of BER objects.">
<polygon fill="white" stroke="#666666" points="122.88,-77 8.62,-77 8.62,-57 122.88,-57 122.88,-77"/>
<text text-anchor="middle" x="65.75" y="-63.5" font-family="Helvetica,sans-Serif" font-size="10.00">SNMP::SequenceBER</text>
</a>
</g>
</g>
<!-- Node2&#45;&gt;Node1 -->
<g id="edge1_Node000001_Node000002" class="edge">
<title>Node2&#45;&gt;Node1</title>
<g id="a_edge1_Node000001_Node000002"><a xlink:title=" ">
<path fill="none" stroke="#63b8ff" d="M65.75,-45.69C65.75,-36.97 65.75,-27.22 65.75,-20.28"/>
<polygon fill="#63b8ff" stroke="#63b8ff" points="62.25,-45.4 65.75,-55.4 69.25,-45.4 62.25,-45.4"/>
</a>
</g>
</g>
<!-- Node3 -->
<g id="Node000003" class="node">
<title>Node3</title>
<g id="a_Node000003"><a xlink:href="class_s_n_m_p_1_1_array_b_e_r.html" target="_top" xlink:title=" ">
<polygon fill="white" stroke="#666666" points="131.5,-146 0,-146 0,-114 131.5,-114 131.5,-146"/>
<text text-anchor="start" x="8" y="-132.5" font-family="Helvetica,sans-Serif" font-size="10.00">SNMP::ArrayBER&lt; SNMP</text>
<text text-anchor="middle" x="65.75" y="-120.5" font-family="Helvetica,sans-Serif" font-size="10.00">_CAPACITY &gt;</text>
</a>
</g>
</g>
<!-- Node3&#45;&gt;Node2 -->
<g id="edge2_Node000002_Node000003" class="edge">
<title>Node3&#45;&gt;Node2</title>
<g id="a_edge2_Node000002_Node000003"><a xlink:title=" ">
<path fill="none" stroke="#63b8ff" d="M65.75,-102.36C65.75,-93.41 65.75,-84.01 65.75,-77.31"/>
<polygon fill="#63b8ff" stroke="#63b8ff" points="62.25,-102.09 65.75,-112.09 69.25,-102.09 62.25,-102.09"/>
</a>
</g>
</g>
<!-- Node4 -->
<g id="Node000004" class="node">
<title>Node4</title>
<g id="a_Node000004"><a xlink:href="class_s_n_m_p_1_1_b_e_r.html" target="_top" xlink:title="BER object.">
<polygon fill="white" stroke="#666666" points="101.12,-214 30.38,-214 30.38,-194 101.12,-194 101.12,-214"/>
<text text-anchor="middle" x="65.75" y="-200.5" font-family="Helvetica,sans-Serif" font-size="10.00">SNMP::BER</text>
</a>
</g>
</g>
<!-- Node4&#45;&gt;Node3 -->
<g id="edge3_Node000003_Node000004" class="edge">
<title>Node4&#45;&gt;Node3</title>
<g id="a_edge3_Node000003_Node000004"><a xlink:title=" ">
<path fill="none" stroke="#63b8ff" d="M64.05,-182.17C63.93,-180.09 63.82,-178 63.75,-176 63.39,-166.15 63.86,-155.1 64.44,-146.41"/>
<polygon fill="#63b8ff" stroke="#63b8ff" points="60.55,-182.28 64.77,-192 67.53,-181.78 60.55,-182.28"/>
</a>
</g>
</g>
<!-- Node4&#45;&gt;Node3 -->
<g id="edge9_Node000003_Node000004" class="edge">
<title>Node4&#45;&gt;Node3</title>
<g id="a_edge9_Node000003_Node000004"><a xlink:title=" ">
<path fill="none" stroke="#9a32cd" stroke-dasharray="5,2" d="M65.75,-182.1C65.75,-170.71 65.75,-156.87 65.75,-146.47"/>
<polygon fill="#9a32cd" stroke="#9a32cd" points="62.25,-182.07 65.75,-192.07 69.25,-182.07 62.25,-182.07"/>
</a>
</g>
<text text-anchor="middle" x="79.25" y="-166.5" font-family="Helvetica,sans-Serif" font-size="10.00" fill="grey"> _bers</text>
</g>
<!-- Node5 -->
<g id="Node000005" class="node">
<title>Node5</title>
<g id="a_Node000005"><a xlink:href="class_s_n_m_p_1_1_base.html" target="_top" xlink:title="Base class for BER, Length and Type.">
<polygon fill="white" stroke="#666666" points="102.25,-339 29.25,-339 29.25,-319 102.25,-319 102.25,-339"/>
<text text-anchor="middle" x="65.75" y="-325.5" font-family="Helvetica,sans-Serif" font-size="10.00">SNMP::Base</text>
</a>
</g>
</g>
<!-- Node5&#45;&gt;Node4 -->
<g id="edge4_Node000004_Node000005" class="edge">
<title>Node5&#45;&gt;Node4</title>
<g id="a_edge4_Node000004_Node000005"><a xlink:title=" ">
<path fill="none" stroke="#63b8ff" d="M41.65,-312.13C32,-304.33 21.95,-294.01 16.75,-282 13.22,-273.84 13.66,-270.33 16.75,-262 24.1,-242.18 41.77,-224.62 53.75,-214.39"/>
<polygon fill="#63b8ff" stroke="#63b8ff" points="39.29,-314.73 49.39,-317.9 43.47,-309.12 39.29,-314.73"/>
</a>
</g>
</g>
<!-- Node6 -->
<g id="Node000006" class="node">
<title>Node6</title>
<g id="a_Node000006"><a xlink:href="class_s_n_m_p_1_1_length.html" target="_top" xlink:title="Length of a BER object.">
<polygon fill="white" stroke="#666666" points="105.62,-282 25.88,-282 25.88,-262 105.62,-262 105.62,-282"/>
<text text-anchor="middle" x="65.75" y="-268.5" font-family="Helvetica,sans-Serif" font-size="10.00">SNMP::Length</text>
</a>
</g>
</g>
<!-- Node5&#45;&gt;Node6 -->
<g id="edge6_Node000006_Node000005" class="edge">
<title>Node5&#45;&gt;Node6</title>
<g id="a_edge6_Node000006_Node000005"><a xlink:title=" ">
<path fill="none" stroke="#63b8ff" d="M65.75,-307.69C65.75,-298.97 65.75,-289.22 65.75,-282.28"/>
<polygon fill="#63b8ff" stroke="#63b8ff" points="62.25,-307.4 65.75,-317.4 69.25,-307.4 62.25,-307.4"/>
</a>
</g>
</g>
<!-- Node7 -->
<g id="Node000007" class="node">
<title>Node7</title>
<g id="a_Node000007"><a xlink:href="class_s_n_m_p_1_1_type.html" target="_top" xlink:title="Type of a BER object.">
<polygon fill="white" stroke="#666666" points="195.5,-282 124,-282 124,-262 195.5,-262 195.5,-282"/>
<text text-anchor="middle" x="159.75" y="-268.5" font-family="Helvetica,sans-Serif" font-size="10.00">SNMP::Type</text>
</a>
</g>
</g>
<!-- Node5&#45;&gt;Node7 -->
<g id="edge8_Node000007_Node000005" class="edge">
<title>Node5&#45;&gt;Node7</title>
<g id="a_edge8_Node000007_Node000005"><a xlink:title=" ">
<path fill="none" stroke="#63b8ff" d="M91.4,-312.99C108.11,-303.21 129.39,-290.77 143.73,-282.38"/>
<polygon fill="#63b8ff" stroke="#63b8ff" points="89.87,-309.83 83,-317.91 93.4,-315.88 89.87,-309.83"/>
</a>
</g>
</g>
<!-- Node6&#45;&gt;Node4 -->
<g id="edge5_Node000004_Node000006" class="edge">
<title>Node6&#45;&gt;Node4</title>
<g id="a_edge5_Node000004_Node000006"><a xlink:title=" ">
<path fill="none" stroke="#9a32cd" stroke-dasharray="5,2" d="M65.75,-250.28C65.75,-238.27 65.75,-223.74 65.75,-214.44"/>
<polygon fill="#9a32cd" stroke="#9a32cd" points="62.25,-250.03 65.75,-260.03 69.25,-250.03 62.25,-250.03"/>
</a>
</g>
<text text-anchor="middle" x="83" y="-234.5" font-family="Helvetica,sans-Serif" font-size="10.00" fill="grey"> _length</text>
</g>
<!-- Node7&#45;&gt;Node4 -->
<g id="edge7_Node000004_Node000007" class="edge">
<title>Node7&#45;&gt;Node4</title>
<g id="a_edge7_Node000004_Node000007"><a xlink:title=" ">
<path fill="none" stroke="#9a32cd" stroke-dasharray="5,2" d="M137.02,-255.04C118.94,-242.35 94.26,-225.02 79.19,-214.44"/>
<polygon fill="#9a32cd" stroke="#9a32cd" points="134.85,-257.79 145.04,-260.67 138.87,-252.06 134.85,-257.79"/>
</a>
</g>
<text text-anchor="middle" x="135.25" y="-234.5" font-family="Helvetica,sans-Serif" font-size="10.00" fill="grey"> _type</text>
</g>
</g>
</svg>
</svg>

<style type='text/css'>
<![CDATA[
[data-mouse-over-selected='false'] { opacity: 0.7; }
[data-mouse-over-selected='true']  { opacity: 1.0; }
]]>
</style>
<script type="application/ecmascript"><![CDATA[
document.addEventListener('DOMContentLoaded', (event) => {
  highlightEdges();
  highlightAdjacentNodes();
});
]]></script>
</svg>
