<?xml version="1.0" encoding="UTF-8" standalone="no"?>
<!DOCTYPE svg PUBLIC "-//W3C//DTD SVG 1.1//EN"
 "http://www.w3.org/Graphics/SVG/1.1/DTD/svg11.dtd">
<!-- Generated by graphviz version 10.0.1 (20240210.2158)
 -->
<!-- Title: SNMP::NoSuchObjectBER Pages: 1 -->
<svg width="142pt" height="196pt"
 viewBox="0.00 0.00 141.75 196.00" xmlns="http://www.w3.org/2000/svg" xmlns:xlink="http://www.w3.org/1999/xlink">
<g id="graph0" class="graph" transform="scale(1 1) rotate(0) translate(4 192)">
<title>SNMP::NoSuchObjectBER</title>
<!-- Node1 -->
<g id="Node000001" class="node">
<title>Node1</title>
<g id="a_Node000001"><a xlink:title="BER object to handle noSuchObject exception.">
<polygon fill="#999999" stroke="#666666" points="133.75,-20 0,-20 0,0 133.75,0 133.75,-20"/>
<text text-anchor="middle" x="66.88" y="-6.5" font-family="Helvetica,sans-Serif" font-size="10.00">SNMP::NoSuchObjectBER</text>
</a>
</g>
</g>
<!-- Node2 -->
<g id="Node000002" class="node">
<title>Node2</title>
<g id="a_Node000002"><a xlink:href="class_s_n_m_p_1_1_null_b_e_r.html" target="_top" xlink:title="BER object to handle null.">
<polygon fill="white" stroke="#666666" points="110.5,-76 23.25,-76 23.25,-56 110.5,-56 110.5,-76"/>
<text text-anchor="middle" x="66.88" y="-62.5" font-family="Helvetica,sans-Serif" font-size="10.00">SNMP::NullBER</text>
</a>
</g>
</g>
<!-- Node2&#45;&gt;Node1 -->
<g id="edge1_Node000001_Node000002" class="edge">
<title>Node2&#45;&gt;Node1</title>
<g id="a_edge1_Node000001_Node000002"><a xlink:title=" ">
<path fill="none" stroke="#63b8ff" d="M66.88,-44.13C66.88,-35.9 66.88,-26.85 66.88,-20.3"/>
<polygon fill="#63b8ff" stroke="#63b8ff" points="63.38,-44.08 66.88,-54.08 70.38,-44.08 63.38,-44.08"/>
</a>
</g>
</g>
<!-- Node3 -->
<g id="Node000003" class="node">
<title>Node3</title>
<g id="a_Node000003"><a xlink:href="class_s_n_m_p_1_1_b_e_r.html" target="_top" xlink:title="BER object.">
<polygon fill="white" stroke="#666666" points="102.25,-132 31.5,-132 31.5,-112 102.25,-112 102.25,-132"/>
<text text-anchor="middle" x="66.88" y="-118.5" font-family="Helvetica,sans-Serif" font-size="10.00">SNMP::BER</text>
</a>
</g>
</g>
<!-- Node3&#45;&gt;Node2 -->
<g id="edge2_Node000002_Node000003" class="edge">
<title>Node3&#45;&gt;Node2</title>
<g id="a_edge2_Node000002_Node000003"><a xlink:title=" ">
<path fill="none" stroke="#63b8ff" d="M66.88,-100.13C66.88,-91.9 66.88,-82.85 66.88,-76.3"/>
<polygon fill="#63b8ff" stroke="#63b8ff" points="63.38,-100.08 66.88,-110.08 70.38,-100.08 63.38,-100.08"/>
</a>
</g>
</g>
<!-- Node4 -->
<g id="Node000004" class="node">
<title>Node4</title>
<g id="a_Node000004"><a xlink:href="class_s_n_m_p_1_1_base.html" target="_top" xlink:title="Base class for BER, Length and Type.">
<polygon fill="white" stroke="#666666" points="103.38,-188 30.38,-188 30.38,-168 103.38,-168 103.38,-188"/>
<text text-anchor="middle" x="66.88" y="-174.5" font-family="Helvetica,sans-Serif" font-size="10.00">SNMP::Base</text>
</a>
</g>
</g>
<!-- Node4&#45;&gt;Node3 -->
<g id="edge3_Node000003_Node000004" class="edge">
<title>Node4&#45;&gt;Node3</title>
<g id="a_edge3_Node000003_Node000004"><a xlink:title=" ">
<path fill="none" stroke="#63b8ff" d="M66.88,-156.13C66.88,-147.9 66.88,-138.85 66.88,-132.3"/>
<polygon fill="#63b8ff" stroke="#63b8ff" points="63.38,-156.08 66.88,-166.08 70.38,-156.08 63.38,-156.08"/>
</a>
</g>
</g>
</g>
</svg>
