<?xml version="1.0" encoding="UTF-8" standalone="no"?>
<!DOCTYPE svg PUBLIC "-//W3C//DTD SVG 1.1//EN"
 "http://www.w3.org/Graphics/SVG/1.1/DTD/svg11.dtd">
<!-- Generated by graphviz version 10.0.1 (20240210.2158)
 -->
<!-- Title: SNMP::OctetStringBER Pages: 1 -->
<svg width="198pt" height="210pt"
 viewBox="0.00 0.00 197.88 210.00" xmlns="http://www.w3.org/2000/svg" xmlns:xlink="http://www.w3.org/1999/xlink">
<g id="graph0" class="graph" transform="scale(1 1) rotate(0) translate(4 206)">
<title>SNMP::OctetStringBER</title>
<!-- Node1 -->
<g id="Node000001" class="node">
<title>Node1</title>
<g id="a_Node000001"><a xlink:title="BER object to handle octet string.">
<polygon fill="#999999" stroke="#666666" points="120.25,-20 0,-20 0,0 120.25,0 120.25,-20"/>
<text text-anchor="middle" x="60.12" y="-6.5" font-family="Helvetica,sans-Serif" font-size="10.00">SNMP::OctetStringBER</text>
</a>
</g>
</g>
<!-- Node2 -->
<g id="Node000002" class="node">
<title>Node2</title>
<g id="a_Node000002"><a xlink:href="class_s_n_m_p_1_1_b_e_r.html" target="_top" xlink:title="BER object.">
<polygon fill="white" stroke="#666666" points="95.5,-77 24.75,-77 24.75,-57 95.5,-57 95.5,-77"/>
<text text-anchor="middle" x="60.12" y="-63.5" font-family="Helvetica,sans-Serif" font-size="10.00">SNMP::BER</text>
</a>
</g>
</g>
<!-- Node2&#45;&gt;Node1 -->
<g id="edge1_Node000001_Node000002" class="edge">
<title>Node2&#45;&gt;Node1</title>
<g id="a_edge1_Node000001_Node000002"><a xlink:title=" ">
<path fill="none" stroke="#63b8ff" d="M60.12,-45.69C60.12,-36.97 60.12,-27.22 60.12,-20.28"/>
<polygon fill="#63b8ff" stroke="#63b8ff" points="56.63,-45.4 60.13,-55.4 63.63,-45.4 56.63,-45.4"/>
</a>
</g>
</g>
<!-- Node3 -->
<g id="Node000003" class="node">
<title>Node3</title>
<g id="a_Node000003"><a xlink:href="class_s_n_m_p_1_1_base.html" target="_top" xlink:title="Base class for BER, Length and Type.">
<polygon fill="white" stroke="#666666" points="96.62,-202 23.62,-202 23.62,-182 96.62,-182 96.62,-202"/>
<text text-anchor="middle" x="60.12" y="-188.5" font-family="Helvetica,sans-Serif" font-size="10.00">SNMP::Base</text>
</a>
</g>
</g>
<!-- Node3&#45;&gt;Node2 -->
<g id="edge2_Node000002_Node000003" class="edge">
<title>Node3&#45;&gt;Node2</title>
<g id="a_edge2_Node000002_Node000003"><a xlink:title=" ">
<path fill="none" stroke="#63b8ff" d="M36.02,-175.13C26.37,-167.33 16.32,-157.01 11.12,-145 7.59,-136.84 8.04,-133.33 11.12,-125 18.47,-105.18 36.14,-87.62 48.13,-77.39"/>
<polygon fill="#63b8ff" stroke="#63b8ff" points="33.66,-177.73 43.77,-180.9 37.85,-172.12 33.66,-177.73"/>
</a>
</g>
</g>
<!-- Node4 -->
<g id="Node000004" class="node">
<title>Node4</title>
<g id="a_Node000004"><a xlink:href="class_s_n_m_p_1_1_length.html" target="_top" xlink:title="Length of a BER object.">
<polygon fill="white" stroke="#666666" points="100,-145 20.25,-145 20.25,-125 100,-125 100,-145"/>
<text text-anchor="middle" x="60.12" y="-131.5" font-family="Helvetica,sans-Serif" font-size="10.00">SNMP::Length</text>
</a>
</g>
</g>
<!-- Node3&#45;&gt;Node4 -->
<g id="edge4_Node000004_Node000003" class="edge">
<title>Node3&#45;&gt;Node4</title>
<g id="a_edge4_Node000004_Node000003"><a xlink:title=" ">
<path fill="none" stroke="#63b8ff" d="M60.12,-170.69C60.12,-161.97 60.12,-152.22 60.12,-145.28"/>
<polygon fill="#63b8ff" stroke="#63b8ff" points="56.63,-170.4 60.13,-180.4 63.63,-170.4 56.63,-170.4"/>
</a>
</g>
</g>
<!-- Node5 -->
<g id="Node000005" class="node">
<title>Node5</title>
<g id="a_Node000005"><a xlink:href="class_s_n_m_p_1_1_type.html" target="_top" xlink:title="Type of a BER object.">
<polygon fill="white" stroke="#666666" points="189.88,-145 118.38,-145 118.38,-125 189.88,-125 189.88,-145"/>
<text text-anchor="middle" x="154.12" y="-131.5" font-family="Helvetica,sans-Serif" font-size="10.00">SNMP::Type</text>
</a>
</g>
</g>
<!-- Node3&#45;&gt;Node5 -->
<g id="edge6_Node000005_Node000003" class="edge">
<title>Node3&#45;&gt;Node5</title>
<g id="a_edge6_Node000005_Node000003"><a xlink:title=" ">
<path fill="none" stroke="#63b8ff" d="M85.78,-175.99C102.49,-166.21 123.76,-153.77 138.1,-145.38"/>
<polygon fill="#63b8ff" stroke="#63b8ff" points="84.24,-172.83 77.38,-180.91 87.78,-178.88 84.24,-172.83"/>
</a>
</g>
</g>
<!-- Node4&#45;&gt;Node2 -->
<g id="edge3_Node000002_Node000004" class="edge">
<title>Node4&#45;&gt;Node2</title>
<g id="a_edge3_Node000002_Node000004"><a xlink:title=" ">
<path fill="none" stroke="#9a32cd" stroke-dasharray="5,2" d="M60.12,-113.28C60.12,-101.27 60.12,-86.74 60.12,-77.44"/>
<polygon fill="#9a32cd" stroke="#9a32cd" points="56.63,-113.03 60.13,-123.03 63.63,-113.03 56.63,-113.03"/>
</a>
</g>
<text text-anchor="middle" x="77.38" y="-97.5" font-family="Helvetica,sans-Serif" font-size="10.00" fill="grey"> _length</text>
</g>
<!-- Node5&#45;&gt;Node2 -->
<g id="edge5_Node000002_Node000005" class="edge">
<title>Node5&#45;&gt;Node2</title>
<g id="a_edge5_Node000002_Node000005"><a xlink:title=" ">
<path fill="none" stroke="#9a32cd" stroke-dasharray="5,2" d="M131.4,-118.04C113.32,-105.35 88.63,-88.02 73.57,-77.44"/>
<polygon fill="#9a32cd" stroke="#9a32cd" points="129.22,-120.79 139.42,-123.67 133.25,-115.06 129.22,-120.79"/>
</a>
</g>
<text text-anchor="middle" x="129.62" y="-97.5" font-family="Helvetica,sans-Serif" font-size="10.00" fill="grey"> _type</text>
</g>
</g>
</svg>
