<?xml version="1.0" encoding="UTF-8" standalone="no"?>
<!DOCTYPE svg PUBLIC "-//W3C//DTD SVG 1.1//EN"
 "http://www.w3.org/Graphics/SVG/1.1/DTD/svg11.dtd">
<!-- Generated by graphviz version 10.0.1 (20240210.2158)
 -->
<!-- Title: SNMP::BER Pages: 1 -->
<svg width="189pt" height="153pt"
 viewBox="0.00 0.00 189.29 153.00" xmlns="http://www.w3.org/2000/svg" xmlns:xlink="http://www.w3.org/1999/xlink">

<svg id="main" version="1.1" xmlns="http://www.w3.org/2000/svg" xmlns:xlink="http://www.w3.org/1999/xlink" xml:space="preserve">

<style type="text/css"><![CDATA[
.node, .edge {opacity: 0.7;}
.node.selected, .edge.selected {opacity: 1;}
.edge:hover path { stroke: red; }
.edge:hover polygon { stroke: red; fill: red; }
]]></style>
<script type="application/ecmascript" xlink:href="svg.min.js"/>
<svg id="graph" class="graph">
<g id="graph0" class="graph" transform="scale(1 1) rotate(0) translate(4 149)">
<title>SNMP::BER</title>
<!-- Node1 -->
<g id="Node000001" class="node">
<title>Node1</title>
<g id="a_Node000001"><a xlink:title="BER object.">
<polygon fill="#999999" stroke="#666666" points="86.91,-20 16.16,-20 16.16,0 86.91,0 86.91,-20"/>
<text text-anchor="middle" x="51.54" y="-6.5" font-family="Helvetica,sans-Serif" font-size="10.00">SNMP::BER</text>
</a>
</g>
</g>
<!-- Node2 -->
<g id="Node000002" class="node">
<title>Node2</title>
<g id="a_Node000002"><a xlink:href="class_s_n_m_p_1_1_base.html" target="_top" xlink:title="Base class for BER, Length and Type.">
<polygon fill="white" stroke="#666666" points="88.04,-145 15.04,-145 15.04,-125 88.04,-125 88.04,-145"/>
<text text-anchor="middle" x="51.54" y="-131.5" font-family="Helvetica,sans-Serif" font-size="10.00">SNMP::Base</text>
</a>
</g>
</g>
<!-- Node2&#45;&gt;Node1 -->
<g id="edge1_Node000001_Node000002" class="edge">
<title>Node2&#45;&gt;Node1</title>
<g id="a_edge1_Node000001_Node000002"><a xlink:title=" ">
<path fill="none" stroke="#63b8ff" d="M27.44,-118.13C17.78,-110.33 7.74,-100.01 2.54,-88 -0.99,-79.84 -0.55,-76.33 2.54,-68 9.89,-48.18 27.56,-30.62 39.54,-20.39"/>
<polygon fill="#63b8ff" stroke="#63b8ff" points="25.07,-120.73 35.18,-123.9 29.26,-115.12 25.07,-120.73"/>
</a>
</g>
</g>
<!-- Node3 -->
<g id="Node000003" class="node">
<title>Node3</title>
<g id="a_Node000003"><a xlink:href="class_s_n_m_p_1_1_length.html" target="_top" xlink:title="Length of a BER object.">
<polygon fill="white" stroke="#666666" points="91.41,-88 11.66,-88 11.66,-68 91.41,-68 91.41,-88"/>
<text text-anchor="middle" x="51.54" y="-74.5" font-family="Helvetica,sans-Serif" font-size="10.00">SNMP::Length</text>
</a>
</g>
</g>
<!-- Node2&#45;&gt;Node3 -->
<g id="edge3_Node000003_Node000002" class="edge">
<title>Node2&#45;&gt;Node3</title>
<g id="a_edge3_Node000003_Node000002"><a xlink:title=" ">
<path fill="none" stroke="#63b8ff" d="M51.54,-113.69C51.54,-104.97 51.54,-95.22 51.54,-88.28"/>
<polygon fill="#63b8ff" stroke="#63b8ff" points="48.04,-113.4 51.54,-123.4 55.04,-113.4 48.04,-113.4"/>
</a>
</g>
</g>
<!-- Node4 -->
<g id="Node000004" class="node">
<title>Node4</title>
<g id="a_Node000004"><a xlink:href="class_s_n_m_p_1_1_type.html" target="_top" xlink:title="Type of a BER object.">
<polygon fill="white" stroke="#666666" points="181.29,-88 109.79,-88 109.79,-68 181.29,-68 181.29,-88"/>
<text text-anchor="middle" x="145.54" y="-74.5" font-family="Helvetica,sans-Serif" font-size="10.00">SNMP::Type</text>
</a>
</g>
</g>
<!-- Node2&#45;&gt;Node4 -->
<g id="edge5_Node000004_Node000002" class="edge">
<title>Node2&#45;&gt;Node4</title>
<g id="a_edge5_Node000004_Node000002"><a xlink:title=" ">
<path fill="none" stroke="#63b8ff" d="M77.19,-118.99C93.9,-109.21 115.17,-96.77 129.51,-88.38"/>
<polygon fill="#63b8ff" stroke="#63b8ff" points="75.65,-115.83 68.79,-123.91 79.19,-121.88 75.65,-115.83"/>
</a>
</g>
</g>
<!-- Node3&#45;&gt;Node1 -->
<g id="edge2_Node000001_Node000003" class="edge">
<title>Node3&#45;&gt;Node1</title>
<g id="a_edge2_Node000001_Node000003"><a xlink:title=" ">
<path fill="none" stroke="#9a32cd" stroke-dasharray="5,2" d="M51.54,-56.28C51.54,-44.27 51.54,-29.74 51.54,-20.44"/>
<polygon fill="#9a32cd" stroke="#9a32cd" points="48.04,-56.03 51.54,-66.03 55.04,-56.03 48.04,-56.03"/>
</a>
</g>
<text text-anchor="middle" x="68.79" y="-40.5" font-family="Helvetica,sans-Serif" font-size="10.00" fill="grey"> _length</text>
</g>
<!-- Node4&#45;&gt;Node1 -->
<g id="edge4_Node000001_Node000004" class="edge">
<title>Node4&#45;&gt;Node1</title>
<g id="a_edge4_Node000001_Node000004"><a xlink:title=" ">
<path fill="none" stroke="#9a32cd" stroke-dasharray="5,2" d="M122.81,-61.04C104.73,-48.35 80.05,-31.02 64.98,-20.44"/>
<polygon fill="#9a32cd" stroke="#9a32cd" points="120.64,-63.79 130.83,-66.67 124.66,-58.06 120.64,-63.79"/>
</a>
</g>
<text text-anchor="middle" x="121.04" y="-40.5" font-family="Helvetica,sans-Serif" font-size="10.00" fill="grey"> _type</text>
</g>
</g>
</svg>
</svg>

<style type='text/css'>
<![CDATA[
[data-mouse-over-selected='false'] { opacity: 0.7; }
[data-mouse-over-selected='true']  { opacity: 1.0; }
]]>
</style>
<script type="application/ecmascript"><![CDATA[
document.addEventListener('DOMContentLoaded', (event) => {
  highlightEdges();
  highlightAdjacentNodes();
});
]]></script>
</svg>
