<?xml version="1.0" encoding="UTF-8" standalone="no"?>
<!DOCTYPE svg PUBLIC "-//W3C//DTD SVG 1.1//EN"
 "http://www.w3.org/Graphics/SVG/1.1/DTD/svg11.dtd">
<!-- Generated by graphviz version 10.0.1 (20240210.2158)
 -->
<!-- Title: SNMP::VarBind Pages: 1 -->
<svg width="125pt" height="196pt"
 viewBox="0.00 0.00 125.25 196.00" xmlns="http://www.w3.org/2000/svg" xmlns:xlink="http://www.w3.org/1999/xlink">
<g id="graph0" class="graph" transform="scale(1 1) rotate(0) translate(4 192)">
<title>SNMP::VarBind</title>
<!-- Node1 -->
<g id="Node000001" class="node">
<title>Node1</title>
<g id="a_Node000001"><a xlink:title="BER object to handle variable binding.">
<polygon fill="#999999" stroke="#666666" points="101.12,-20 16.12,-20 16.12,0 101.12,0 101.12,-20"/>
<text text-anchor="middle" x="58.62" y="-6.5" font-family="Helvetica,sans-Serif" font-size="10.00">SNMP::VarBind</text>
</a>
</g>
</g>
<!-- Node2 -->
<g id="Node000002" class="node">
<title>Node2</title>
<g id="a_Node000002"><a xlink:href="class_s_n_m_p_1_1_array_b_e_r.html" target="_top" xlink:title=" ">
<polygon fill="white" stroke="#666666" points="117.25,-76 0,-76 0,-56 117.25,-56 117.25,-76"/>
<text text-anchor="middle" x="58.62" y="-62.5" font-family="Helvetica,sans-Serif" font-size="10.00">SNMP::ArrayBER&lt; 2 &gt;</text>
</a>
</g>
</g>
<!-- Node2&#45;&gt;Node1 -->
<g id="edge1_Node000001_Node000002" class="edge">
<title>Node2&#45;&gt;Node1</title>
<g id="a_edge1_Node000001_Node000002"><a xlink:title=" ">
<path fill="none" stroke="#63b8ff" d="M58.62,-44.13C58.62,-35.9 58.62,-26.85 58.62,-20.3"/>
<polygon fill="#63b8ff" stroke="#63b8ff" points="55.13,-44.08 58.63,-54.08 62.13,-44.08 55.13,-44.08"/>
</a>
</g>
</g>
<!-- Node3 -->
<g id="Node000003" class="node">
<title>Node3</title>
<g id="a_Node000003"><a xlink:href="class_s_n_m_p_1_1_b_e_r.html" target="_top" xlink:title="BER object.">
<polygon fill="white" stroke="#666666" points="94,-132 23.25,-132 23.25,-112 94,-112 94,-132"/>
<text text-anchor="middle" x="58.62" y="-118.5" font-family="Helvetica,sans-Serif" font-size="10.00">SNMP::BER</text>
</a>
</g>
</g>
<!-- Node3&#45;&gt;Node2 -->
<g id="edge2_Node000002_Node000003" class="edge">
<title>Node3&#45;&gt;Node2</title>
<g id="a_edge2_Node000002_Node000003"><a xlink:title=" ">
<path fill="none" stroke="#63b8ff" d="M58.62,-100.13C58.62,-91.9 58.62,-82.85 58.62,-76.3"/>
<polygon fill="#63b8ff" stroke="#63b8ff" points="55.13,-100.08 58.63,-110.08 62.13,-100.08 55.13,-100.08"/>
</a>
</g>
</g>
<!-- Node4 -->
<g id="Node000004" class="node">
<title>Node4</title>
<g id="a_Node000004"><a xlink:href="class_s_n_m_p_1_1_base.html" target="_top" xlink:title="Base class for BER, Length and Type.">
<polygon fill="white" stroke="#666666" points="95.12,-188 22.12,-188 22.12,-168 95.12,-168 95.12,-188"/>
<text text-anchor="middle" x="58.62" y="-174.5" font-family="Helvetica,sans-Serif" font-size="10.00">SNMP::Base</text>
</a>
</g>
</g>
<!-- Node4&#45;&gt;Node3 -->
<g id="edge3_Node000003_Node000004" class="edge">
<title>Node4&#45;&gt;Node3</title>
<g id="a_edge3_Node000003_Node000004"><a xlink:title=" ">
<path fill="none" stroke="#63b8ff" d="M58.62,-156.13C58.62,-147.9 58.62,-138.85 58.62,-132.3"/>
<polygon fill="#63b8ff" stroke="#63b8ff" points="55.13,-156.08 58.63,-166.08 62.13,-156.08 55.13,-156.08"/>
</a>
</g>
</g>
</g>
</svg>
