<?xml version="1.0" encoding="UTF-8" standalone="no"?>
<!DOCTYPE svg PUBLIC "-//W3C//DTD SVG 1.1//EN"
 "http://www.w3.org/Graphics/SVG/1.1/DTD/svg11.dtd">
<!-- Generated by graphviz version 10.0.1 (20240210.2158)
 -->
<!-- Title: SNMP::PDU Pages: 1 -->
<svg width="240pt" height="176pt"
 viewBox="0.00 0.00 240.38 176.00" xmlns="http://www.w3.org/2000/svg" xmlns:xlink="http://www.w3.org/1999/xlink">
<g id="graph0" class="graph" transform="scale(1 1) rotate(0) translate(4 172)">
<title>SNMP::PDU</title>
<!-- Node1 -->
<g id="Node000001" class="node">
<title>Node1</title>
<g id="a_Node000001"><a xlink:title="Helper class to handle PDU.">
<polygon fill="#999999" stroke="#666666" points="179.12,-20 108.38,-20 108.38,0 179.12,0 179.12,-20"/>
<text text-anchor="middle" x="143.75" y="-6.5" font-family="Helvetica,sans-Serif" font-size="10.00">SNMP::PDU</text>
</a>
</g>
</g>
<!-- Node2 -->
<g id="Node000002" class="node">
<title>Node2</title>
<g id="a_Node000002"><a xlink:href="struct_s_n_m_p_1_1_p_d_u_1_1_generic.html" target="_top" xlink:title="Helper struct to handle generic PDU.">
<polygon fill="white" stroke="#666666" points="145,-88 34.5,-88 34.5,-68 145,-68 145,-88"/>
<text text-anchor="middle" x="89.75" y="-74.5" font-family="Helvetica,sans-Serif" font-size="10.00">SNMP::PDU::Generic</text>
</a>
</g>
</g>
<!-- Node2&#45;&gt;Node1 -->
<g id="edge1_Node000001_Node000002" class="edge">
<title>Node2&#45;&gt;Node1</title>
<g id="a_edge1_Node000001_Node000002"><a xlink:title=" ">
<path fill="none" stroke="#9a32cd" stroke-dasharray="5,2" d="M104.57,-58.88C114.75,-46.44 127.85,-30.43 136.03,-20.44"/>
<polygon fill="#9a32cd" stroke="#9a32cd" points="102.07,-56.42 98.45,-66.37 107.49,-60.85 102.07,-56.42"/>
</a>
</g>
<text text-anchor="middle" x="141.62" y="-40.5" font-family="Helvetica,sans-Serif" font-size="10.00" fill="grey"> _generic</text>
</g>
<!-- Node3 -->
<g id="Node000003" class="node">
<title>Node3</title>
<g id="a_Node000003"><a xlink:href="struct_s_n_m_p_1_1_error.html" target="_top" xlink:title="Helper struct to handle SNMP error.">
<polygon fill="white" stroke="#666666" points="71.5,-162 0,-162 0,-142 71.5,-142 71.5,-162"/>
<text text-anchor="middle" x="35.75" y="-148.5" font-family="Helvetica,sans-Serif" font-size="10.00">SNMP::Error</text>
</a>
</g>
</g>
<!-- Node3&#45;&gt;Node2 -->
<g id="edge2_Node000002_Node000003" class="edge">
<title>Node3&#45;&gt;Node2</title>
<g id="a_edge2_Node000002_Node000003"><a xlink:title=" ">
<path fill="none" stroke="#9a32cd" stroke-dasharray="5,2" d="M49.49,-132.68C60.15,-118.47 74.48,-99.36 82.86,-88.19"/>
<polygon fill="#9a32cd" stroke="#9a32cd" points="46.92,-130.28 43.72,-140.38 52.52,-134.48 46.92,-130.28"/>
</a>
</g>
<text text-anchor="middle" x="83.62" y="-108.5" font-family="Helvetica,sans-Serif" font-size="10.00" fill="grey"> _error</text>
</g>
<!-- Node4 -->
<g id="Node000004" class="node">
<title>Node4</title>
<g id="a_Node000004"><a xlink:href="struct_s_n_m_p_1_1_p_d_u_1_1_generic_1_1_bulk.html" target="_top" xlink:title="Helper struct to handle GetBulkRequest PDU.">
<polygon fill="white" stroke="#666666" points="200,-168 89.5,-168 89.5,-136 200,-136 200,-168"/>
<text text-anchor="start" x="97.5" y="-154.5" font-family="Helvetica,sans-Serif" font-size="10.00">SNMP::PDU::Generic</text>
<text text-anchor="middle" x="144.75" y="-142.5" font-family="Helvetica,sans-Serif" font-size="10.00">::Bulk</text>
</a>
</g>
</g>
<!-- Node4&#45;&gt;Node2 -->
<g id="edge3_Node000002_Node000004" class="edge">
<title>Node4&#45;&gt;Node2</title>
<g id="a_edge3_Node000002_Node000004"><a xlink:title=" ">
<path fill="none" stroke="#9a32cd" stroke-dasharray="5,2" d="M126.16,-126.67C116.1,-113.49 104.24,-97.97 96.86,-88.31"/>
<polygon fill="#9a32cd" stroke="#9a32cd" points="123.32,-128.71 132.17,-134.53 128.88,-124.46 123.32,-128.71"/>
</a>
</g>
<text text-anchor="middle" x="132.88" y="-108.5" font-family="Helvetica,sans-Serif" font-size="10.00" fill="grey"> _bulk</text>
</g>
<!-- Node5 -->
<g id="Node000005" class="node">
<title>Node5</title>
<g id="a_Node000005"><a xlink:href="struct_s_n_m_p_1_1_trap.html" target="_top" xlink:title="Helper struct to handle trap PDU.">
<polygon fill="white" stroke="#666666" points="232.38,-88 163.12,-88 163.12,-68 232.38,-68 232.38,-88"/>
<text text-anchor="middle" x="197.75" y="-74.5" font-family="Helvetica,sans-Serif" font-size="10.00">SNMP::Trap</text>
</a>
</g>
</g>
<!-- Node5&#45;&gt;Node1 -->
<g id="edge4_Node000001_Node000005" class="edge">
<title>Node5&#45;&gt;Node1</title>
<g id="a_edge4_Node000001_Node000005"><a xlink:title=" ">
<path fill="none" stroke="#9a32cd" stroke-dasharray="5,2" d="M182.93,-58.88C172.75,-46.44 159.65,-30.43 151.47,-20.44"/>
<polygon fill="#9a32cd" stroke="#9a32cd" points="180.01,-60.85 189.05,-66.37 185.43,-56.42 180.01,-60.85"/>
</a>
</g>
<text text-anchor="middle" x="187.12" y="-40.5" font-family="Helvetica,sans-Serif" font-size="10.00" fill="grey"> _trap</text>
</g>
</g>
</svg>
