<?xml version="1.0" encoding="UTF-8" standalone="no"?>
<!DOCTYPE svg PUBLIC "-//W3C//DTD SVG 1.1//EN"
 "http://www.w3.org/Graphics/SVG/1.1/DTD/svg11.dtd">
<!-- Generated by graphviz version 10.0.1 (20240210.2158)
 -->
<!-- Title: SNMP::NullBER Pages: 1 -->
<svg width="456pt" height="196pt"
 viewBox="0.00 0.00 455.88 196.00" xmlns="http://www.w3.org/2000/svg" xmlns:xlink="http://www.w3.org/1999/xlink">
<g id="graph0" class="graph" transform="scale(1 1) rotate(0) translate(4 192)">
<title>SNMP::NullBER</title>
<!-- Node1 -->
<g id="Node000001" class="node">
<title>Node1</title>
<g id="a_Node000001"><a xlink:title="BER object to handle null.">
<polygon fill="#999999" stroke="#666666" points="268.62,-76 181.38,-76 181.38,-56 268.62,-56 268.62,-76"/>
<text text-anchor="middle" x="225" y="-62.5" font-family="Helvetica,sans-Serif" font-size="10.00">SNMP::NullBER</text>
</a>
</g>
</g>
<!-- Node4 -->
<g id="Node000004" class="node">
<title>Node4</title>
<g id="a_Node000004"><a xlink:href="class_s_n_m_p_1_1_end_of_m_i_b_view_b_e_r.html" target="_top" xlink:title="BER object to handle endOfMIBView exception.">
<polygon fill="white" stroke="#666666" points="136,-20 0,-20 0,0 136,0 136,-20"/>
<text text-anchor="middle" x="68" y="-6.5" font-family="Helvetica,sans-Serif" font-size="10.00">SNMP::EndOfMIBViewBER</text>
</a>
</g>
</g>
<!-- Node1&#45;&gt;Node4 -->
<g id="edge3_Node000001_Node000004" class="edge">
<title>Node1&#45;&gt;Node4</title>
<g id="a_edge3_Node000001_Node000004"><a xlink:title=" ">
<path fill="none" stroke="#63b8ff" d="M186.97,-51.92C158.75,-42.21 120.92,-29.2 95.56,-20.48"/>
<polygon fill="#63b8ff" stroke="#63b8ff" points="185.63,-55.16 196.22,-55.1 187.9,-48.54 185.63,-55.16"/>
</a>
</g>
</g>
<!-- Node5 -->
<g id="Node000005" class="node">
<title>Node5</title>
<g id="a_Node000005"><a xlink:href="class_s_n_m_p_1_1_no_such_instance_b_e_r.html" target="_top" xlink:title="BER object to handle noSuchInstance exception.">
<polygon fill="white" stroke="#666666" points="296,-20 154,-20 154,0 296,0 296,-20"/>
<text text-anchor="middle" x="225" y="-6.5" font-family="Helvetica,sans-Serif" font-size="10.00">SNMP::NoSuchInstanceBER</text>
</a>
</g>
</g>
<!-- Node1&#45;&gt;Node5 -->
<g id="edge4_Node000001_Node000005" class="edge">
<title>Node1&#45;&gt;Node5</title>
<g id="a_edge4_Node000001_Node000005"><a xlink:title=" ">
<path fill="none" stroke="#63b8ff" d="M225,-44.13C225,-35.9 225,-26.85 225,-20.3"/>
<polygon fill="#63b8ff" stroke="#63b8ff" points="221.5,-44.08 225,-54.08 228.5,-44.08 221.5,-44.08"/>
</a>
</g>
</g>
<!-- Node6 -->
<g id="Node000006" class="node">
<title>Node6</title>
<g id="a_Node000006"><a xlink:href="class_s_n_m_p_1_1_no_such_object_b_e_r.html" target="_top" xlink:title="BER object to handle noSuchObject exception.">
<polygon fill="white" stroke="#666666" points="447.88,-20 314.12,-20 314.12,0 447.88,0 447.88,-20"/>
<text text-anchor="middle" x="381" y="-6.5" font-family="Helvetica,sans-Serif" font-size="10.00">SNMP::NoSuchObjectBER</text>
</a>
</g>
</g>
<!-- Node1&#45;&gt;Node6 -->
<g id="edge5_Node000001_Node000006" class="edge">
<title>Node1&#45;&gt;Node6</title>
<g id="a_edge5_Node000001_Node000006"><a xlink:title=" ">
<path fill="none" stroke="#63b8ff" d="M262.79,-51.92C290.83,-42.21 328.42,-29.2 353.61,-20.48"/>
<polygon fill="#63b8ff" stroke="#63b8ff" points="261.91,-48.52 253.6,-55.1 264.2,-55.14 261.91,-48.52"/>
</a>
</g>
</g>
<!-- Node2 -->
<g id="Node000002" class="node">
<title>Node2</title>
<g id="a_Node000002"><a xlink:href="class_s_n_m_p_1_1_b_e_r.html" target="_top" xlink:title="BER object.">
<polygon fill="white" stroke="#666666" points="260.38,-132 189.62,-132 189.62,-112 260.38,-112 260.38,-132"/>
<text text-anchor="middle" x="225" y="-118.5" font-family="Helvetica,sans-Serif" font-size="10.00">SNMP::BER</text>
</a>
</g>
</g>
<!-- Node2&#45;&gt;Node1 -->
<g id="edge1_Node000001_Node000002" class="edge">
<title>Node2&#45;&gt;Node1</title>
<g id="a_edge1_Node000001_Node000002"><a xlink:title=" ">
<path fill="none" stroke="#63b8ff" d="M225,-100.13C225,-91.9 225,-82.85 225,-76.3"/>
<polygon fill="#63b8ff" stroke="#63b8ff" points="221.5,-100.08 225,-110.08 228.5,-100.08 221.5,-100.08"/>
</a>
</g>
</g>
<!-- Node3 -->
<g id="Node000003" class="node">
<title>Node3</title>
<g id="a_Node000003"><a xlink:href="class_s_n_m_p_1_1_base.html" target="_top" xlink:title="Base class for BER, Length and Type.">
<polygon fill="white" stroke="#666666" points="261.5,-188 188.5,-188 188.5,-168 261.5,-168 261.5,-188"/>
<text text-anchor="middle" x="225" y="-174.5" font-family="Helvetica,sans-Serif" font-size="10.00">SNMP::Base</text>
</a>
</g>
</g>
<!-- Node3&#45;&gt;Node2 -->
<g id="edge2_Node000002_Node000003" class="edge">
<title>Node3&#45;&gt;Node2</title>
<g id="a_edge2_Node000002_Node000003"><a xlink:title=" ">
<path fill="none" stroke="#63b8ff" d="M225,-156.13C225,-147.9 225,-138.85 225,-132.3"/>
<polygon fill="#63b8ff" stroke="#63b8ff" points="221.5,-156.08 225,-166.08 228.5,-156.08 221.5,-156.08"/>
</a>
</g>
</g>
</g>
</svg>
