<?xml version="1.0" encoding="UTF-8" standalone="no"?>
<!DOCTYPE svg PUBLIC "-//W3C//DTD SVG 1.1//EN"
 "http://www.w3.org/Graphics/SVG/1.1/DTD/svg11.dtd">
<!-- Generated by graphviz version 10.0.1 (20240210.2158)
 -->
<!-- Title: SNMP::VarBind Pages: 1 -->
<svg width="196pt" height="278pt"
 viewBox="0.00 0.00 196.38 278.00" xmlns="http://www.w3.org/2000/svg" xmlns:xlink="http://www.w3.org/1999/xlink">
<g id="graph0" class="graph" transform="scale(1 1) rotate(0) translate(4 274)">
<title>SNMP::VarBind</title>
<!-- Node1 -->
<g id="Node000001" class="node">
<title>Node1</title>
<g id="a_Node000001"><a xlink:title="BER object to handle variable binding.">
<polygon fill="#999999" stroke="#666666" points="101.12,-20 16.12,-20 16.12,0 101.12,0 101.12,-20"/>
<text text-anchor="middle" x="58.62" y="-6.5" font-family="Helvetica,sans-Serif" font-size="10.00">SNMP::VarBind</text>
</a>
</g>
</g>
<!-- Node2 -->
<g id="Node000002" class="node">
<title>Node2</title>
<g id="a_Node000002"><a xlink:href="class_s_n_m_p_1_1_array_b_e_r.html" target="_top" xlink:title=" ">
<polygon fill="white" stroke="#666666" points="117.25,-77 0,-77 0,-57 117.25,-57 117.25,-77"/>
<text text-anchor="middle" x="58.62" y="-63.5" font-family="Helvetica,sans-Serif" font-size="10.00">SNMP::ArrayBER&lt; 2 &gt;</text>
</a>
</g>
</g>
<!-- Node2&#45;&gt;Node1 -->
<g id="edge1_Node000001_Node000002" class="edge">
<title>Node2&#45;&gt;Node1</title>
<g id="a_edge1_Node000001_Node000002"><a xlink:title=" ">
<path fill="none" stroke="#63b8ff" d="M58.62,-45.69C58.62,-36.97 58.62,-27.22 58.62,-20.28"/>
<polygon fill="#63b8ff" stroke="#63b8ff" points="55.13,-45.4 58.63,-55.4 62.13,-45.4 55.13,-45.4"/>
</a>
</g>
</g>
<!-- Node3 -->
<g id="Node000003" class="node">
<title>Node3</title>
<g id="a_Node000003"><a xlink:href="class_s_n_m_p_1_1_b_e_r.html" target="_top" xlink:title="BER object.">
<polygon fill="white" stroke="#666666" points="94,-145 23.25,-145 23.25,-125 94,-125 94,-145"/>
<text text-anchor="middle" x="58.62" y="-131.5" font-family="Helvetica,sans-Serif" font-size="10.00">SNMP::BER</text>
</a>
</g>
</g>
<!-- Node3&#45;&gt;Node2 -->
<g id="edge2_Node000002_Node000003" class="edge">
<title>Node3&#45;&gt;Node2</title>
<g id="a_edge2_Node000002_Node000003"><a xlink:title=" ">
<path fill="none" stroke="#63b8ff" d="M56.93,-113.17C56.8,-111.09 56.7,-109 56.62,-107 56.25,-96.84 57,-85.19 57.69,-77.3"/>
<polygon fill="#63b8ff" stroke="#63b8ff" points="53.43,-113.28 57.64,-123 60.41,-112.78 53.43,-113.28"/>
</a>
</g>
</g>
<!-- Node3&#45;&gt;Node2 -->
<g id="edge8_Node000002_Node000003" class="edge">
<title>Node3&#45;&gt;Node2</title>
<g id="a_edge8_Node000002_Node000003"><a xlink:title=" ">
<path fill="none" stroke="#9a32cd" stroke-dasharray="5,2" d="M58.62,-113.28C58.62,-101.27 58.62,-86.74 58.62,-77.44"/>
<polygon fill="#9a32cd" stroke="#9a32cd" points="55.13,-113.03 58.63,-123.03 62.13,-113.03 55.13,-113.03"/>
</a>
</g>
<text text-anchor="middle" x="72.12" y="-97.5" font-family="Helvetica,sans-Serif" font-size="10.00" fill="grey"> _bers</text>
</g>
<!-- Node4 -->
<g id="Node000004" class="node">
<title>Node4</title>
<g id="a_Node000004"><a xlink:href="class_s_n_m_p_1_1_base.html" target="_top" xlink:title="Base class for BER, Length and Type.">
<polygon fill="white" stroke="#666666" points="95.12,-270 22.12,-270 22.12,-250 95.12,-250 95.12,-270"/>
<text text-anchor="middle" x="58.62" y="-256.5" font-family="Helvetica,sans-Serif" font-size="10.00">SNMP::Base</text>
</a>
</g>
</g>
<!-- Node4&#45;&gt;Node3 -->
<g id="edge3_Node000003_Node000004" class="edge">
<title>Node4&#45;&gt;Node3</title>
<g id="a_edge3_Node000003_Node000004"><a xlink:title=" ">
<path fill="none" stroke="#63b8ff" d="M34.52,-243.13C24.87,-235.33 14.82,-225.01 9.62,-213 6.09,-204.84 6.54,-201.33 9.62,-193 16.97,-173.18 34.64,-155.62 46.63,-145.39"/>
<polygon fill="#63b8ff" stroke="#63b8ff" points="32.16,-245.73 42.27,-248.9 36.35,-240.12 32.16,-245.73"/>
</a>
</g>
</g>
<!-- Node5 -->
<g id="Node000005" class="node">
<title>Node5</title>
<g id="a_Node000005"><a xlink:href="class_s_n_m_p_1_1_length.html" target="_top" xlink:title="Length of a BER object.">
<polygon fill="white" stroke="#666666" points="98.5,-213 18.75,-213 18.75,-193 98.5,-193 98.5,-213"/>
<text text-anchor="middle" x="58.62" y="-199.5" font-family="Helvetica,sans-Serif" font-size="10.00">SNMP::Length</text>
</a>
</g>
</g>
<!-- Node4&#45;&gt;Node5 -->
<g id="edge5_Node000005_Node000004" class="edge">
<title>Node4&#45;&gt;Node5</title>
<g id="a_edge5_Node000005_Node000004"><a xlink:title=" ">
<path fill="none" stroke="#63b8ff" d="M58.62,-238.69C58.62,-229.97 58.62,-220.22 58.62,-213.28"/>
<polygon fill="#63b8ff" stroke="#63b8ff" points="55.13,-238.4 58.63,-248.4 62.13,-238.4 55.13,-238.4"/>
</a>
</g>
</g>
<!-- Node6 -->
<g id="Node000006" class="node">
<title>Node6</title>
<g id="a_Node000006"><a xlink:href="class_s_n_m_p_1_1_type.html" target="_top" xlink:title="Type of a BER object.">
<polygon fill="white" stroke="#666666" points="188.38,-213 116.88,-213 116.88,-193 188.38,-193 188.38,-213"/>
<text text-anchor="middle" x="152.62" y="-199.5" font-family="Helvetica,sans-Serif" font-size="10.00">SNMP::Type</text>
</a>
</g>
</g>
<!-- Node4&#45;&gt;Node6 -->
<g id="edge7_Node000006_Node000004" class="edge">
<title>Node4&#45;&gt;Node6</title>
<g id="a_edge7_Node000006_Node000004"><a xlink:title=" ">
<path fill="none" stroke="#63b8ff" d="M84.28,-243.99C100.99,-234.21 122.26,-221.77 136.6,-213.38"/>
<polygon fill="#63b8ff" stroke="#63b8ff" points="82.74,-240.83 75.88,-248.91 86.28,-246.88 82.74,-240.83"/>
</a>
</g>
</g>
<!-- Node5&#45;&gt;Node3 -->
<g id="edge4_Node000003_Node000005" class="edge">
<title>Node5&#45;&gt;Node3</title>
<g id="a_edge4_Node000003_Node000005"><a xlink:title=" ">
<path fill="none" stroke="#9a32cd" stroke-dasharray="5,2" d="M58.62,-181.28C58.62,-169.27 58.62,-154.74 58.62,-145.44"/>
<polygon fill="#9a32cd" stroke="#9a32cd" points="55.13,-181.03 58.63,-191.03 62.13,-181.03 55.13,-181.03"/>
</a>
</g>
<text text-anchor="middle" x="75.88" y="-165.5" font-family="Helvetica,sans-Serif" font-size="10.00" fill="grey"> _length</text>
</g>
<!-- Node6&#45;&gt;Node3 -->
<g id="edge6_Node000003_Node000006" class="edge">
<title>Node6&#45;&gt;Node3</title>
<g id="a_edge6_Node000003_Node000006"><a xlink:title=" ">
<path fill="none" stroke="#9a32cd" stroke-dasharray="5,2" d="M129.9,-186.04C111.82,-173.35 87.13,-156.02 72.07,-145.44"/>
<polygon fill="#9a32cd" stroke="#9a32cd" points="127.72,-188.79 137.92,-191.67 131.75,-183.06 127.72,-188.79"/>
</a>
</g>
<text text-anchor="middle" x="128.12" y="-165.5" font-family="Helvetica,sans-Serif" font-size="10.00" fill="grey"> _type</text>
</g>
</g>
</svg>
