<?xml version="1.0" encoding="UTF-8" standalone="no"?>
<!DOCTYPE svg PUBLIC "-//W3C//DTD SVG 1.1//EN"
 "http://www.w3.org/Graphics/SVG/1.1/DTD/svg11.dtd">
<!-- Generated by graphviz version 10.0.1 (20240210.2158)
 -->
<!-- Title: SNMP::NoSuchObjectBER Pages: 1 -->
<svg width="205pt" height="267pt"
 viewBox="0.00 0.00 204.62 267.00" xmlns="http://www.w3.org/2000/svg" xmlns:xlink="http://www.w3.org/1999/xlink">
<g id="graph0" class="graph" transform="scale(1 1) rotate(0) translate(4 263)">
<title>SNMP::NoSuchObjectBER</title>
<!-- Node1 -->
<g id="Node000001" class="node">
<title>Node1</title>
<g id="a_Node000001"><a xlink:title="BER object to handle noSuchObject exception.">
<polygon fill="#999999" stroke="#666666" points="133.75,-20 0,-20 0,0 133.75,0 133.75,-20"/>
<text text-anchor="middle" x="66.88" y="-6.5" font-family="Helvetica,sans-Serif" font-size="10.00">SNMP::NoSuchObjectBER</text>
</a>
</g>
</g>
<!-- Node2 -->
<g id="Node000002" class="node">
<title>Node2</title>
<g id="a_Node000002"><a xlink:href="class_s_n_m_p_1_1_null_b_e_r.html" target="_top" xlink:title="BER object to handle null.">
<polygon fill="white" stroke="#666666" points="110.5,-77 23.25,-77 23.25,-57 110.5,-57 110.5,-77"/>
<text text-anchor="middle" x="66.88" y="-63.5" font-family="Helvetica,sans-Serif" font-size="10.00">SNMP::NullBER</text>
</a>
</g>
</g>
<!-- Node2&#45;&gt;Node1 -->
<g id="edge1_Node000001_Node000002" class="edge">
<title>Node2&#45;&gt;Node1</title>
<g id="a_edge1_Node000001_Node000002"><a xlink:title=" ">
<path fill="none" stroke="#63b8ff" d="M66.88,-45.69C66.88,-36.97 66.88,-27.22 66.88,-20.28"/>
<polygon fill="#63b8ff" stroke="#63b8ff" points="63.38,-45.4 66.88,-55.4 70.38,-45.4 63.38,-45.4"/>
</a>
</g>
</g>
<!-- Node3 -->
<g id="Node000003" class="node">
<title>Node3</title>
<g id="a_Node000003"><a xlink:href="class_s_n_m_p_1_1_b_e_r.html" target="_top" xlink:title="BER object.">
<polygon fill="white" stroke="#666666" points="102.25,-134 31.5,-134 31.5,-114 102.25,-114 102.25,-134"/>
<text text-anchor="middle" x="66.88" y="-120.5" font-family="Helvetica,sans-Serif" font-size="10.00">SNMP::BER</text>
</a>
</g>
</g>
<!-- Node3&#45;&gt;Node2 -->
<g id="edge2_Node000002_Node000003" class="edge">
<title>Node3&#45;&gt;Node2</title>
<g id="a_edge2_Node000002_Node000003"><a xlink:title=" ">
<path fill="none" stroke="#63b8ff" d="M66.88,-102.69C66.88,-93.97 66.88,-84.22 66.88,-77.28"/>
<polygon fill="#63b8ff" stroke="#63b8ff" points="63.38,-102.4 66.88,-112.4 70.38,-102.4 63.38,-102.4"/>
</a>
</g>
</g>
<!-- Node4 -->
<g id="Node000004" class="node">
<title>Node4</title>
<g id="a_Node000004"><a xlink:href="class_s_n_m_p_1_1_base.html" target="_top" xlink:title="Base class for BER, Length and Type.">
<polygon fill="white" stroke="#666666" points="103.38,-259 30.38,-259 30.38,-239 103.38,-239 103.38,-259"/>
<text text-anchor="middle" x="66.88" y="-245.5" font-family="Helvetica,sans-Serif" font-size="10.00">SNMP::Base</text>
</a>
</g>
</g>
<!-- Node4&#45;&gt;Node3 -->
<g id="edge3_Node000003_Node000004" class="edge">
<title>Node4&#45;&gt;Node3</title>
<g id="a_edge3_Node000003_Node000004"><a xlink:title=" ">
<path fill="none" stroke="#63b8ff" d="M42.77,-232.13C33.12,-224.33 23.07,-214.01 17.88,-202 14.34,-193.84 14.79,-190.33 17.88,-182 25.22,-162.18 42.89,-144.62 54.88,-134.39"/>
<polygon fill="#63b8ff" stroke="#63b8ff" points="40.41,-234.73 50.52,-237.9 44.6,-229.12 40.41,-234.73"/>
</a>
</g>
</g>
<!-- Node5 -->
<g id="Node000005" class="node">
<title>Node5</title>
<g id="a_Node000005"><a xlink:href="class_s_n_m_p_1_1_length.html" target="_top" xlink:title="Length of a BER object.">
<polygon fill="white" stroke="#666666" points="106.75,-202 27,-202 27,-182 106.75,-182 106.75,-202"/>
<text text-anchor="middle" x="66.88" y="-188.5" font-family="Helvetica,sans-Serif" font-size="10.00">SNMP::Length</text>
</a>
</g>
</g>
<!-- Node4&#45;&gt;Node5 -->
<g id="edge5_Node000005_Node000004" class="edge">
<title>Node4&#45;&gt;Node5</title>
<g id="a_edge5_Node000005_Node000004"><a xlink:title=" ">
<path fill="none" stroke="#63b8ff" d="M66.88,-227.69C66.88,-218.97 66.88,-209.22 66.88,-202.28"/>
<polygon fill="#63b8ff" stroke="#63b8ff" points="63.38,-227.4 66.88,-237.4 70.38,-227.4 63.38,-227.4"/>
</a>
</g>
</g>
<!-- Node6 -->
<g id="Node000006" class="node">
<title>Node6</title>
<g id="a_Node000006"><a xlink:href="class_s_n_m_p_1_1_type.html" target="_top" xlink:title="Type of a BER object.">
<polygon fill="white" stroke="#666666" points="196.62,-202 125.12,-202 125.12,-182 196.62,-182 196.62,-202"/>
<text text-anchor="middle" x="160.88" y="-188.5" font-family="Helvetica,sans-Serif" font-size="10.00">SNMP::Type</text>
</a>
</g>
</g>
<!-- Node4&#45;&gt;Node6 -->
<g id="edge7_Node000006_Node000004" class="edge">
<title>Node4&#45;&gt;Node6</title>
<g id="a_edge7_Node000006_Node000004"><a xlink:title=" ">
<path fill="none" stroke="#63b8ff" d="M92.53,-232.99C109.24,-223.21 130.51,-210.77 144.85,-202.38"/>
<polygon fill="#63b8ff" stroke="#63b8ff" points="90.99,-229.83 84.13,-237.91 94.53,-235.88 90.99,-229.83"/>
</a>
</g>
</g>
<!-- Node5&#45;&gt;Node3 -->
<g id="edge4_Node000003_Node000005" class="edge">
<title>Node5&#45;&gt;Node3</title>
<g id="a_edge4_Node000003_Node000005"><a xlink:title=" ">
<path fill="none" stroke="#9a32cd" stroke-dasharray="5,2" d="M66.88,-170.28C66.88,-158.27 66.88,-143.74 66.88,-134.44"/>
<polygon fill="#9a32cd" stroke="#9a32cd" points="63.38,-170.03 66.88,-180.03 70.38,-170.03 63.38,-170.03"/>
</a>
</g>
<text text-anchor="middle" x="84.12" y="-154.5" font-family="Helvetica,sans-Serif" font-size="10.00" fill="grey"> _length</text>
</g>
<!-- Node6&#45;&gt;Node3 -->
<g id="edge6_Node000003_Node000006" class="edge">
<title>Node6&#45;&gt;Node3</title>
<g id="a_edge6_Node000003_Node000006"><a xlink:title=" ">
<path fill="none" stroke="#9a32cd" stroke-dasharray="5,2" d="M138.15,-175.04C120.07,-162.35 95.38,-145.02 80.32,-134.44"/>
<polygon fill="#9a32cd" stroke="#9a32cd" points="135.97,-177.79 146.17,-180.67 140,-172.06 135.97,-177.79"/>
</a>
</g>
<text text-anchor="middle" x="136.38" y="-154.5" font-family="Helvetica,sans-Serif" font-size="10.00" fill="grey"> _type</text>
</g>
</g>
</svg>
