<?xml version="1.0" encoding="UTF-8" standalone="no"?>
<!DOCTYPE svg PUBLIC "-//W3C//DTD SVG 1.1//EN"
 "http://www.w3.org/Graphics/SVG/1.1/DTD/svg11.dtd">
<!-- Generated by graphviz version 10.0.1 (20240210.2158)
 -->
<!-- Title: SNMP::OpaqueFloatBER Pages: 1 -->
<svg width="201pt" height="267pt"
 viewBox="0.00 0.00 200.88 267.00" xmlns="http://www.w3.org/2000/svg" xmlns:xlink="http://www.w3.org/1999/xlink">

<svg id="main" version="1.1" xmlns="http://www.w3.org/2000/svg" xmlns:xlink="http://www.w3.org/1999/xlink" xml:space="preserve">

<style type="text/css"><![CDATA[
.node, .edge {opacity: 0.7;}
.node.selected, .edge.selected {opacity: 1;}
.edge:hover path { stroke: red; }
.edge:hover polygon { stroke: red; fill: red; }
]]></style>
<script type="application/ecmascript" xlink:href="svg.min.js"/>
<svg id="graph" class="graph">
<g id="graph0" class="graph" transform="scale(1 1) rotate(0) translate(4 263)">
<title>SNMP::OpaqueFloatBER</title>
<!-- Node1 -->
<g id="Node000001" class="node">
<title>Node1</title>
<g id="a_Node000001"><a xlink:title="BER object to handle float.">
<polygon fill="#999999" stroke="#666666" points="126.25,-20 0,-20 0,0 126.25,0 126.25,-20"/>
<text text-anchor="middle" x="63.12" y="-6.5" font-family="Helvetica,sans-Serif" font-size="10.00">SNMP::OpaqueFloatBER</text>
</a>
</g>
</g>
<!-- Node2 -->
<g id="Node000002" class="node">
<title>Node2</title>
<g id="a_Node000002"><a xlink:href="class_s_n_m_p_1_1_float_b_e_r.html" target="_top" xlink:title="BER object to handle float.">
<polygon fill="white" stroke="#666666" points="109.38,-77 16.88,-77 16.88,-57 109.38,-57 109.38,-77"/>
<text text-anchor="middle" x="63.12" y="-63.5" font-family="Helvetica,sans-Serif" font-size="10.00">SNMP::FloatBER</text>
</a>
</g>
</g>
<!-- Node2&#45;&gt;Node1 -->
<g id="edge1_Node000001_Node000002" class="edge">
<title>Node2&#45;&gt;Node1</title>
<g id="a_edge1_Node000001_Node000002"><a xlink:title=" ">
<path fill="none" stroke="#63b8ff" d="M63.12,-45.69C63.12,-36.97 63.12,-27.22 63.12,-20.28"/>
<polygon fill="#63b8ff" stroke="#63b8ff" points="59.63,-45.4 63.13,-55.4 66.63,-45.4 59.63,-45.4"/>
</a>
</g>
</g>
<!-- Node3 -->
<g id="Node000003" class="node">
<title>Node3</title>
<g id="a_Node000003"><a xlink:href="class_s_n_m_p_1_1_b_e_r.html" target="_top" xlink:title="BER object.">
<polygon fill="white" stroke="#666666" points="98.5,-134 27.75,-134 27.75,-114 98.5,-114 98.5,-134"/>
<text text-anchor="middle" x="63.12" y="-120.5" font-family="Helvetica,sans-Serif" font-size="10.00">SNMP::BER</text>
</a>
</g>
</g>
<!-- Node3&#45;&gt;Node2 -->
<g id="edge2_Node000002_Node000003" class="edge">
<title>Node3&#45;&gt;Node2</title>
<g id="a_edge2_Node000002_Node000003"><a xlink:title=" ">
<path fill="none" stroke="#63b8ff" d="M63.12,-102.69C63.12,-93.97 63.12,-84.22 63.12,-77.28"/>
<polygon fill="#63b8ff" stroke="#63b8ff" points="59.63,-102.4 63.13,-112.4 66.63,-102.4 59.63,-102.4"/>
</a>
</g>
</g>
<!-- Node4 -->
<g id="Node000004" class="node">
<title>Node4</title>
<g id="a_Node000004"><a xlink:href="class_s_n_m_p_1_1_base.html" target="_top" xlink:title="Base class for BER, Length and Type.">
<polygon fill="white" stroke="#666666" points="99.62,-259 26.62,-259 26.62,-239 99.62,-239 99.62,-259"/>
<text text-anchor="middle" x="63.12" y="-245.5" font-family="Helvetica,sans-Serif" font-size="10.00">SNMP::Base</text>
</a>
</g>
</g>
<!-- Node4&#45;&gt;Node3 -->
<g id="edge3_Node000003_Node000004" class="edge">
<title>Node4&#45;&gt;Node3</title>
<g id="a_edge3_Node000003_Node000004"><a xlink:title=" ">
<path fill="none" stroke="#63b8ff" d="M39.02,-232.13C29.37,-224.33 19.32,-214.01 14.12,-202 10.59,-193.84 11.04,-190.33 14.12,-182 21.47,-162.18 39.14,-144.62 51.13,-134.39"/>
<polygon fill="#63b8ff" stroke="#63b8ff" points="36.66,-234.73 46.77,-237.9 40.85,-229.12 36.66,-234.73"/>
</a>
</g>
</g>
<!-- Node5 -->
<g id="Node000005" class="node">
<title>Node5</title>
<g id="a_Node000005"><a xlink:href="class_s_n_m_p_1_1_length.html" target="_top" xlink:title="Length of a BER object.">
<polygon fill="white" stroke="#666666" points="103,-202 23.25,-202 23.25,-182 103,-182 103,-202"/>
<text text-anchor="middle" x="63.12" y="-188.5" font-family="Helvetica,sans-Serif" font-size="10.00">SNMP::Length</text>
</a>
</g>
</g>
<!-- Node4&#45;&gt;Node5 -->
<g id="edge5_Node000005_Node000004" class="edge">
<title>Node4&#45;&gt;Node5</title>
<g id="a_edge5_Node000005_Node000004"><a xlink:title=" ">
<path fill="none" stroke="#63b8ff" d="M63.12,-227.69C63.12,-218.97 63.12,-209.22 63.12,-202.28"/>
<polygon fill="#63b8ff" stroke="#63b8ff" points="59.63,-227.4 63.13,-237.4 66.63,-227.4 59.63,-227.4"/>
</a>
</g>
</g>
<!-- Node6 -->
<g id="Node000006" class="node">
<title>Node6</title>
<g id="a_Node000006"><a xlink:href="class_s_n_m_p_1_1_type.html" target="_top" xlink:title="Type of a BER object.">
<polygon fill="white" stroke="#666666" points="192.88,-202 121.38,-202 121.38,-182 192.88,-182 192.88,-202"/>
<text text-anchor="middle" x="157.12" y="-188.5" font-family="Helvetica,sans-Serif" font-size="10.00">SNMP::Type</text>
</a>
</g>
</g>
<!-- Node4&#45;&gt;Node6 -->
<g id="edge7_Node000006_Node000004" class="edge">
<title>Node4&#45;&gt;Node6</title>
<g id="a_edge7_Node000006_Node000004"><a xlink:title=" ">
<path fill="none" stroke="#63b8ff" d="M88.78,-232.99C105.49,-223.21 126.76,-210.77 141.1,-202.38"/>
<polygon fill="#63b8ff" stroke="#63b8ff" points="87.24,-229.83 80.38,-237.91 90.78,-235.88 87.24,-229.83"/>
</a>
</g>
</g>
<!-- Node5&#45;&gt;Node3 -->
<g id="edge4_Node000003_Node000005" class="edge">
<title>Node5&#45;&gt;Node3</title>
<g id="a_edge4_Node000003_Node000005"><a xlink:title=" ">
<path fill="none" stroke="#9a32cd" stroke-dasharray="5,2" d="M63.12,-170.28C63.12,-158.27 63.12,-143.74 63.12,-134.44"/>
<polygon fill="#9a32cd" stroke="#9a32cd" points="59.63,-170.03 63.13,-180.03 66.63,-170.03 59.63,-170.03"/>
</a>
</g>
<text text-anchor="middle" x="80.38" y="-154.5" font-family="Helvetica,sans-Serif" font-size="10.00" fill="grey"> _length</text>
</g>
<!-- Node6&#45;&gt;Node3 -->
<g id="edge6_Node000003_Node000006" class="edge">
<title>Node6&#45;&gt;Node3</title>
<g id="a_edge6_Node000003_Node000006"><a xlink:title=" ">
<path fill="none" stroke="#9a32cd" stroke-dasharray="5,2" d="M134.4,-175.04C116.32,-162.35 91.63,-145.02 76.57,-134.44"/>
<polygon fill="#9a32cd" stroke="#9a32cd" points="132.22,-177.79 142.42,-180.67 136.25,-172.06 132.22,-177.79"/>
</a>
</g>
<text text-anchor="middle" x="132.62" y="-154.5" font-family="Helvetica,sans-Serif" font-size="10.00" fill="grey"> _type</text>
</g>
</g>
</svg>
</svg>

<style type='text/css'>
<![CDATA[
[data-mouse-over-selected='false'] { opacity: 0.7; }
[data-mouse-over-selected='true']  { opacity: 1.0; }
]]>
</style>
<script type="application/ecmascript"><![CDATA[
document.addEventListener('DOMContentLoaded', (event) => {
  highlightEdges();
  highlightAdjacentNodes();
});
]]></script>
</svg>
