<?xml version="1.0" encoding="UTF-8" standalone="no"?>
<!DOCTYPE svg PUBLIC "-//W3C//DTD SVG 1.1//EN"
 "http://www.w3.org/Graphics/SVG/1.1/DTD/svg11.dtd">
<!-- Generated by graphviz version 10.0.1 (20240210.2158)
 -->
<!-- Title: SNMP::NullBER Pages: 1 -->
<svg width="189pt" height="210pt"
 viewBox="0.00 0.00 189.29 210.00" xmlns="http://www.w3.org/2000/svg" xmlns:xlink="http://www.w3.org/1999/xlink">

<svg id="main" version="1.1" xmlns="http://www.w3.org/2000/svg" xmlns:xlink="http://www.w3.org/1999/xlink" xml:space="preserve">

<style type="text/css"><![CDATA[
.node, .edge {opacity: 0.7;}
.node.selected, .edge.selected {opacity: 1;}
.edge:hover path { stroke: red; }
.edge:hover polygon { stroke: red; fill: red; }
]]></style>
<script type="application/ecmascript" xlink:href="svg.min.js"/>
<svg id="graph" class="graph">
<g id="graph0" class="graph" transform="scale(1 1) rotate(0) translate(4 206)">
<title>SNMP::NullBER</title>
<!-- Node1 -->
<g id="Node000001" class="node">
<title>Node1</title>
<g id="a_Node000001"><a xlink:title="BER object to handle null.">
<polygon fill="#999999" stroke="#666666" points="95.16,-20 7.91,-20 7.91,0 95.16,0 95.16,-20"/>
<text text-anchor="middle" x="51.54" y="-6.5" font-family="Helvetica,sans-Serif" font-size="10.00">SNMP::NullBER</text>
</a>
</g>
</g>
<!-- Node2 -->
<g id="Node000002" class="node">
<title>Node2</title>
<g id="a_Node000002"><a xlink:href="class_s_n_m_p_1_1_b_e_r.html" target="_top" xlink:title="BER object.">
<polygon fill="white" stroke="#666666" points="86.91,-77 16.16,-77 16.16,-57 86.91,-57 86.91,-77"/>
<text text-anchor="middle" x="51.54" y="-63.5" font-family="Helvetica,sans-Serif" font-size="10.00">SNMP::BER</text>
</a>
</g>
</g>
<!-- Node2&#45;&gt;Node1 -->
<g id="edge1_Node000001_Node000002" class="edge">
<title>Node2&#45;&gt;Node1</title>
<g id="a_edge1_Node000001_Node000002"><a xlink:title=" ">
<path fill="none" stroke="#63b8ff" d="M51.54,-45.69C51.54,-36.97 51.54,-27.22 51.54,-20.28"/>
<polygon fill="#63b8ff" stroke="#63b8ff" points="48.04,-45.4 51.54,-55.4 55.04,-45.4 48.04,-45.4"/>
</a>
</g>
</g>
<!-- Node3 -->
<g id="Node000003" class="node">
<title>Node3</title>
<g id="a_Node000003"><a xlink:href="class_s_n_m_p_1_1_base.html" target="_top" xlink:title="Base class for BER, Length and Type.">
<polygon fill="white" stroke="#666666" points="88.04,-202 15.04,-202 15.04,-182 88.04,-182 88.04,-202"/>
<text text-anchor="middle" x="51.54" y="-188.5" font-family="Helvetica,sans-Serif" font-size="10.00">SNMP::Base</text>
</a>
</g>
</g>
<!-- Node3&#45;&gt;Node2 -->
<g id="edge2_Node000002_Node000003" class="edge">
<title>Node3&#45;&gt;Node2</title>
<g id="a_edge2_Node000002_Node000003"><a xlink:title=" ">
<path fill="none" stroke="#63b8ff" d="M27.44,-175.13C17.78,-167.33 7.74,-157.01 2.54,-145 -0.99,-136.84 -0.55,-133.33 2.54,-125 9.89,-105.18 27.56,-87.62 39.54,-77.39"/>
<polygon fill="#63b8ff" stroke="#63b8ff" points="25.07,-177.73 35.18,-180.9 29.26,-172.12 25.07,-177.73"/>
</a>
</g>
</g>
<!-- Node4 -->
<g id="Node000004" class="node">
<title>Node4</title>
<g id="a_Node000004"><a xlink:href="class_s_n_m_p_1_1_length.html" target="_top" xlink:title="Length of a BER object.">
<polygon fill="white" stroke="#666666" points="91.41,-145 11.66,-145 11.66,-125 91.41,-125 91.41,-145"/>
<text text-anchor="middle" x="51.54" y="-131.5" font-family="Helvetica,sans-Serif" font-size="10.00">SNMP::Length</text>
</a>
</g>
</g>
<!-- Node3&#45;&gt;Node4 -->
<g id="edge4_Node000004_Node000003" class="edge">
<title>Node3&#45;&gt;Node4</title>
<g id="a_edge4_Node000004_Node000003"><a xlink:title=" ">
<path fill="none" stroke="#63b8ff" d="M51.54,-170.69C51.54,-161.97 51.54,-152.22 51.54,-145.28"/>
<polygon fill="#63b8ff" stroke="#63b8ff" points="48.04,-170.4 51.54,-180.4 55.04,-170.4 48.04,-170.4"/>
</a>
</g>
</g>
<!-- Node5 -->
<g id="Node000005" class="node">
<title>Node5</title>
<g id="a_Node000005"><a xlink:href="class_s_n_m_p_1_1_type.html" target="_top" xlink:title="Type of a BER object.">
<polygon fill="white" stroke="#666666" points="181.29,-145 109.79,-145 109.79,-125 181.29,-125 181.29,-145"/>
<text text-anchor="middle" x="145.54" y="-131.5" font-family="Helvetica,sans-Serif" font-size="10.00">SNMP::Type</text>
</a>
</g>
</g>
<!-- Node3&#45;&gt;Node5 -->
<g id="edge6_Node000005_Node000003" class="edge">
<title>Node3&#45;&gt;Node5</title>
<g id="a_edge6_Node000005_Node000003"><a xlink:title=" ">
<path fill="none" stroke="#63b8ff" d="M77.19,-175.99C93.9,-166.21 115.17,-153.77 129.51,-145.38"/>
<polygon fill="#63b8ff" stroke="#63b8ff" points="75.65,-172.83 68.79,-180.91 79.19,-178.88 75.65,-172.83"/>
</a>
</g>
</g>
<!-- Node4&#45;&gt;Node2 -->
<g id="edge3_Node000002_Node000004" class="edge">
<title>Node4&#45;&gt;Node2</title>
<g id="a_edge3_Node000002_Node000004"><a xlink:title=" ">
<path fill="none" stroke="#9a32cd" stroke-dasharray="5,2" d="M51.54,-113.28C51.54,-101.27 51.54,-86.74 51.54,-77.44"/>
<polygon fill="#9a32cd" stroke="#9a32cd" points="48.04,-113.03 51.54,-123.03 55.04,-113.03 48.04,-113.03"/>
</a>
</g>
<text text-anchor="middle" x="68.79" y="-97.5" font-family="Helvetica,sans-Serif" font-size="10.00" fill="grey"> _length</text>
</g>
<!-- Node5&#45;&gt;Node2 -->
<g id="edge5_Node000002_Node000005" class="edge">
<title>Node5&#45;&gt;Node2</title>
<g id="a_edge5_Node000002_Node000005"><a xlink:title=" ">
<path fill="none" stroke="#9a32cd" stroke-dasharray="5,2" d="M122.81,-118.04C104.73,-105.35 80.05,-88.02 64.98,-77.44"/>
<polygon fill="#9a32cd" stroke="#9a32cd" points="120.64,-120.79 130.83,-123.67 124.66,-115.06 120.64,-120.79"/>
</a>
</g>
<text text-anchor="middle" x="121.04" y="-97.5" font-family="Helvetica,sans-Serif" font-size="10.00" fill="grey"> _type</text>
</g>
</g>
</svg>
</svg>

<style type='text/css'>
<![CDATA[
[data-mouse-over-selected='false'] { opacity: 0.7; }
[data-mouse-over-selected='true']  { opacity: 1.0; }
]]>
</style>
<script type="application/ecmascript"><![CDATA[
document.addEventListener('DOMContentLoaded', (event) => {
  highlightEdges();
  highlightAdjacentNodes();
});
]]></script>
</svg>
