<?xml version="1.0" encoding="UTF-8" standalone="no"?>
<!DOCTYPE svg PUBLIC "-//W3C//DTD SVG 1.1//EN"
 "http://www.w3.org/Graphics/SVG/1.1/DTD/svg11.dtd">
<!-- Generated by graphviz version 10.0.1 (20240210.2158)
 -->
<!-- Title: SNMP::Message Pages: 1 -->
<svg width="220pt" height="264pt"
 viewBox="0.00 0.00 220.12 264.00" xmlns="http://www.w3.org/2000/svg" xmlns:xlink="http://www.w3.org/1999/xlink">
<g id="graph0" class="graph" transform="scale(1 1) rotate(0) translate(4 260)">
<title>SNMP::Message</title>
<!-- Node1 -->
<g id="Node000001" class="node">
<title>Node1</title>
<g id="a_Node000001"><a xlink:title="SNMP message object.">
<polygon fill="#999999" stroke="#666666" points="165.88,-20 75.62,-20 75.62,0 165.88,0 165.88,-20"/>
<text text-anchor="middle" x="120.75" y="-6.5" font-family="Helvetica,sans-Serif" font-size="10.00">SNMP::Message</text>
</a>
</g>
</g>
<!-- Node2 -->
<g id="Node000002" class="node">
<title>Node2</title>
<g id="a_Node000002"><a xlink:href="class_s_n_m_p_1_1_sequence_b_e_r.html" target="_top" xlink:title="BER object to handle sequence of BER objects.">
<polygon fill="white" stroke="#666666" points="122.88,-76 8.62,-76 8.62,-56 122.88,-56 122.88,-76"/>
<text text-anchor="middle" x="65.75" y="-62.5" font-family="Helvetica,sans-Serif" font-size="10.00">SNMP::SequenceBER</text>
</a>
</g>
</g>
<!-- Node2&#45;&gt;Node1 -->
<g id="edge1_Node000001_Node000002" class="edge">
<title>Node2&#45;&gt;Node1</title>
<g id="a_edge1_Node000001_Node000002"><a xlink:title=" ">
<path fill="none" stroke="#63b8ff" d="M83.51,-47.57C92.74,-38.5 103.66,-27.78 111.28,-20.3"/>
<polygon fill="#63b8ff" stroke="#63b8ff" points="81.09,-45.03 76.41,-54.53 86,-50.03 81.09,-45.03"/>
</a>
</g>
</g>
<!-- Node3 -->
<g id="Node000003" class="node">
<title>Node3</title>
<g id="a_Node000003"><a xlink:href="class_s_n_m_p_1_1_array_b_e_r.html" target="_top" xlink:title=" ">
<polygon fill="white" stroke="#666666" points="131.5,-144 0,-144 0,-112 131.5,-112 131.5,-144"/>
<text text-anchor="start" x="8" y="-130.5" font-family="Helvetica,sans-Serif" font-size="10.00">SNMP::ArrayBER&lt; SNMP</text>
<text text-anchor="middle" x="65.75" y="-118.5" font-family="Helvetica,sans-Serif" font-size="10.00">_CAPACITY &gt;</text>
</a>
</g>
</g>
<!-- Node3&#45;&gt;Node2 -->
<g id="edge2_Node000002_Node000003" class="edge">
<title>Node3&#45;&gt;Node2</title>
<g id="a_edge2_Node000002_Node000003"><a xlink:title=" ">
<path fill="none" stroke="#63b8ff" d="M65.75,-100.08C65.75,-91.6 65.75,-82.8 65.75,-76.41"/>
<polygon fill="#63b8ff" stroke="#63b8ff" points="62.25,-100.03 65.75,-110.03 69.25,-100.03 62.25,-100.03"/>
</a>
</g>
</g>
<!-- Node4 -->
<g id="Node000004" class="node">
<title>Node4</title>
<g id="a_Node000004"><a xlink:href="class_s_n_m_p_1_1_b_e_r.html" target="_top" xlink:title="BER object.">
<polygon fill="white" stroke="#666666" points="101.12,-200 30.38,-200 30.38,-180 101.12,-180 101.12,-200"/>
<text text-anchor="middle" x="65.75" y="-186.5" font-family="Helvetica,sans-Serif" font-size="10.00">SNMP::BER</text>
</a>
</g>
</g>
<!-- Node4&#45;&gt;Node3 -->
<g id="edge3_Node000003_Node000004" class="edge">
<title>Node4&#45;&gt;Node3</title>
<g id="a_edge3_Node000003_Node000004"><a xlink:title=" ">
<path fill="none" stroke="#63b8ff" d="M65.75,-168.31C65.75,-160.37 65.75,-151.46 65.75,-144.14"/>
<polygon fill="#63b8ff" stroke="#63b8ff" points="62.25,-168.11 65.75,-178.11 69.25,-168.11 62.25,-168.11"/>
</a>
</g>
</g>
<!-- Node5 -->
<g id="Node000005" class="node">
<title>Node5</title>
<g id="a_Node000005"><a xlink:href="class_s_n_m_p_1_1_base.html" target="_top" xlink:title="Base class for BER, Length and Type.">
<polygon fill="white" stroke="#666666" points="102.25,-256 29.25,-256 29.25,-236 102.25,-236 102.25,-256"/>
<text text-anchor="middle" x="65.75" y="-242.5" font-family="Helvetica,sans-Serif" font-size="10.00">SNMP::Base</text>
</a>
</g>
</g>
<!-- Node5&#45;&gt;Node4 -->
<g id="edge4_Node000004_Node000005" class="edge">
<title>Node5&#45;&gt;Node4</title>
<g id="a_edge4_Node000004_Node000005"><a xlink:title=" ">
<path fill="none" stroke="#63b8ff" d="M65.75,-224.13C65.75,-215.9 65.75,-206.85 65.75,-200.3"/>
<polygon fill="#63b8ff" stroke="#63b8ff" points="62.25,-224.08 65.75,-234.08 69.25,-224.08 62.25,-224.08"/>
</a>
</g>
</g>
<!-- Node6 -->
<g id="Node000006" class="node">
<title>Node6</title>
<g id="a_Node000006"><a xlink:href="class_s_n_m_p_1_1_p_d_u.html" target="_top" xlink:title="Helper class to handle PDU.">
<polygon fill="white" stroke="#666666" points="212.12,-76 141.38,-76 141.38,-56 212.12,-56 212.12,-76"/>
<text text-anchor="middle" x="176.75" y="-62.5" font-family="Helvetica,sans-Serif" font-size="10.00">SNMP::PDU</text>
</a>
</g>
</g>
<!-- Node6&#45;&gt;Node1 -->
<g id="edge5_Node000001_Node000006" class="edge">
<title>Node6&#45;&gt;Node1</title>
<g id="a_edge5_Node000001_Node000006"><a xlink:title=" ">
<path fill="none" stroke="#8b1a1a" d="M158.96,-47.85C149.5,-38.72 138.23,-27.86 130.39,-20.3"/>
<polygon fill="#8b1a1a" stroke="#8b1a1a" points="156.28,-50.12 165.91,-54.54 161.14,-45.08 156.28,-50.12"/>
</a>
</g>
</g>
</g>
</svg>
