<?xml version="1.0" encoding="UTF-8" standalone="no"?>
<!DOCTYPE svg PUBLIC "-//W3C//DTD SVG 1.1//EN"
 "http://www.w3.org/Graphics/SVG/1.1/DTD/svg11.dtd">
<!-- Generated by graphviz version 10.0.1 (20240210.2158)
 -->
<!-- Title: SNMP::Message Pages: 1 -->
<svg width="363pt" height="437pt"
 viewBox="0.00 0.00 363.00 437.00" xmlns="http://www.w3.org/2000/svg" xmlns:xlink="http://www.w3.org/1999/xlink">

<svg id="main" version="1.1" xmlns="http://www.w3.org/2000/svg" xmlns:xlink="http://www.w3.org/1999/xlink" xml:space="preserve">

<style type="text/css"><![CDATA[
.node, .edge {opacity: 0.7;}
.node.selected, .edge.selected {opacity: 1;}
.edge:hover path { stroke: red; }
.edge:hover polygon { stroke: red; fill: red; }
]]></style>
<script type="application/ecmascript" xlink:href="svg.min.js"/>
<svg id="graph" class="graph">
<g id="graph0" class="graph" transform="scale(1 1) rotate(0) translate(4 433)">
<title>SNMP::Message</title>
<!-- Node1 -->
<g id="Node000001" class="node">
<title>Node1</title>
<g id="a_Node000001"><a xlink:title="SNMP message object.">
<polygon fill="#999999" stroke="#666666" points="162.88,-20 72.62,-20 72.62,0 162.88,0 162.88,-20"/>
<text text-anchor="middle" x="117.75" y="-6.5" font-family="Helvetica,sans-Serif" font-size="10.00">SNMP::Message</text>
</a>
</g>
</g>
<!-- Node2 -->
<g id="Node000002" class="node">
<title>Node2</title>
<g id="a_Node000002"><a xlink:href="class_s_n_m_p_1_1_sequence_b_e_r.html" target="_top" xlink:title="BER object to handle sequence of BER objects.">
<polygon fill="white" stroke="#666666" points="122.88,-156 8.62,-156 8.62,-136 122.88,-136 122.88,-156"/>
<text text-anchor="middle" x="65.75" y="-142.5" font-family="Helvetica,sans-Serif" font-size="10.00">SNMP::SequenceBER</text>
</a>
</g>
</g>
<!-- Node2&#45;&gt;Node1 -->
<g id="edge1_Node000001_Node000002" class="edge">
<title>Node2&#45;&gt;Node1</title>
<g id="a_edge1_Node000001_Node000002"><a xlink:title=" ">
<path fill="none" stroke="#63b8ff" d="M58.8,-124.77C54.48,-108.74 51.06,-86.12 58.75,-68 67.6,-47.15 88.21,-30.21 102.57,-20.37"/>
<polygon fill="#63b8ff" stroke="#63b8ff" points="55.38,-125.57 61.67,-134.1 62.08,-123.52 55.38,-125.57"/>
</a>
</g>
</g>
<!-- Node13 -->
<g id="Node000013" class="node">
<title>Node13</title>
<g id="a_Node000013"><a xlink:href="class_s_n_m_p_1_1_var_bind_list.html" target="_top" xlink:title="BER object to handle a list of variable bindings.">
<polygon fill="white" stroke="#666666" points="168.12,-88 67.38,-88 67.38,-68 168.12,-68 168.12,-88"/>
<text text-anchor="middle" x="117.75" y="-74.5" font-family="Helvetica,sans-Serif" font-size="10.00">SNMP::VarBindList</text>
</a>
</g>
</g>
<!-- Node2&#45;&gt;Node13 -->
<g id="edge16_Node000013_Node000002" class="edge">
<title>Node2&#45;&gt;Node13</title>
<g id="a_edge16_Node000013_Node000002"><a xlink:title=" ">
<path fill="none" stroke="#63b8ff" d="M80.31,-126.52C90.07,-114.13 102.52,-98.33 110.31,-88.44"/>
<polygon fill="#63b8ff" stroke="#63b8ff" points="77.58,-124.33 74.14,-134.35 83.08,-128.67 77.58,-124.33"/>
</a>
</g>
</g>
<!-- Node3 -->
<g id="Node000003" class="node">
<title>Node3</title>
<g id="a_Node000003"><a xlink:href="class_s_n_m_p_1_1_array_b_e_r.html" target="_top" xlink:title=" ">
<polygon fill="white" stroke="#666666" points="131.5,-236 0,-236 0,-204 131.5,-204 131.5,-236"/>
<text text-anchor="start" x="8" y="-222.5" font-family="Helvetica,sans-Serif" font-size="10.00">SNMP::ArrayBER&lt; SNMP</text>
<text text-anchor="middle" x="65.75" y="-210.5" font-family="Helvetica,sans-Serif" font-size="10.00">_CAPACITY &gt;</text>
</a>
</g>
</g>
<!-- Node3&#45;&gt;Node2 -->
<g id="edge2_Node000002_Node000003" class="edge">
<title>Node3&#45;&gt;Node2</title>
<g id="a_edge2_Node000002_Node000003"><a xlink:title=" ">
<path fill="none" stroke="#63b8ff" d="M65.75,-192.34C65.75,-179.7 65.75,-165.41 65.75,-156.31"/>
<polygon fill="#63b8ff" stroke="#63b8ff" points="62.25,-192.22 65.75,-202.22 69.25,-192.22 62.25,-192.22"/>
</a>
</g>
</g>
<!-- Node4 -->
<g id="Node000004" class="node">
<title>Node4</title>
<g id="a_Node000004"><a xlink:href="class_s_n_m_p_1_1_b_e_r.html" target="_top" xlink:title="BER object.">
<polygon fill="white" stroke="#666666" points="101.12,-304 30.38,-304 30.38,-284 101.12,-284 101.12,-304"/>
<text text-anchor="middle" x="65.75" y="-290.5" font-family="Helvetica,sans-Serif" font-size="10.00">SNMP::BER</text>
</a>
</g>
</g>
<!-- Node4&#45;&gt;Node3 -->
<g id="edge3_Node000003_Node000004" class="edge">
<title>Node4&#45;&gt;Node3</title>
<g id="a_edge3_Node000003_Node000004"><a xlink:title=" ">
<path fill="none" stroke="#63b8ff" d="M64.05,-272.17C63.93,-270.09 63.82,-268 63.75,-266 63.39,-256.15 63.86,-245.1 64.44,-236.41"/>
<polygon fill="#63b8ff" stroke="#63b8ff" points="60.55,-272.28 64.77,-282 67.53,-271.78 60.55,-272.28"/>
</a>
</g>
</g>
<!-- Node4&#45;&gt;Node3 -->
<g id="edge9_Node000003_Node000004" class="edge">
<title>Node4&#45;&gt;Node3</title>
<g id="a_edge9_Node000003_Node000004"><a xlink:title=" ">
<path fill="none" stroke="#9a32cd" stroke-dasharray="5,2" d="M65.75,-272.1C65.75,-260.71 65.75,-246.87 65.75,-236.47"/>
<polygon fill="#9a32cd" stroke="#9a32cd" points="62.25,-272.07 65.75,-282.07 69.25,-272.07 62.25,-272.07"/>
</a>
</g>
<text text-anchor="middle" x="79.25" y="-256.5" font-family="Helvetica,sans-Serif" font-size="10.00" fill="grey"> _bers</text>
</g>
<!-- Node5 -->
<g id="Node000005" class="node">
<title>Node5</title>
<g id="a_Node000005"><a xlink:href="class_s_n_m_p_1_1_base.html" target="_top" xlink:title="Base class for BER, Length and Type.">
<polygon fill="white" stroke="#666666" points="102.25,-429 29.25,-429 29.25,-409 102.25,-409 102.25,-429"/>
<text text-anchor="middle" x="65.75" y="-415.5" font-family="Helvetica,sans-Serif" font-size="10.00">SNMP::Base</text>
</a>
</g>
</g>
<!-- Node5&#45;&gt;Node4 -->
<g id="edge4_Node000004_Node000005" class="edge">
<title>Node5&#45;&gt;Node4</title>
<g id="a_edge4_Node000004_Node000005"><a xlink:title=" ">
<path fill="none" stroke="#63b8ff" d="M41.65,-402.13C32,-394.33 21.95,-384.01 16.75,-372 13.22,-363.84 13.66,-360.33 16.75,-352 24.1,-332.18 41.77,-314.62 53.75,-304.39"/>
<polygon fill="#63b8ff" stroke="#63b8ff" points="39.29,-404.73 49.39,-407.9 43.47,-399.12 39.29,-404.73"/>
</a>
</g>
</g>
<!-- Node6 -->
<g id="Node000006" class="node">
<title>Node6</title>
<g id="a_Node000006"><a xlink:href="class_s_n_m_p_1_1_length.html" target="_top" xlink:title="Length of a BER object.">
<polygon fill="white" stroke="#666666" points="105.62,-372 25.88,-372 25.88,-352 105.62,-352 105.62,-372"/>
<text text-anchor="middle" x="65.75" y="-358.5" font-family="Helvetica,sans-Serif" font-size="10.00">SNMP::Length</text>
</a>
</g>
</g>
<!-- Node5&#45;&gt;Node6 -->
<g id="edge6_Node000006_Node000005" class="edge">
<title>Node5&#45;&gt;Node6</title>
<g id="a_edge6_Node000006_Node000005"><a xlink:title=" ">
<path fill="none" stroke="#63b8ff" d="M65.75,-397.69C65.75,-388.97 65.75,-379.22 65.75,-372.28"/>
<polygon fill="#63b8ff" stroke="#63b8ff" points="62.25,-397.4 65.75,-407.4 69.25,-397.4 62.25,-397.4"/>
</a>
</g>
</g>
<!-- Node7 -->
<g id="Node000007" class="node">
<title>Node7</title>
<g id="a_Node000007"><a xlink:href="class_s_n_m_p_1_1_type.html" target="_top" xlink:title="Type of a BER object.">
<polygon fill="white" stroke="#666666" points="195.5,-372 124,-372 124,-352 195.5,-352 195.5,-372"/>
<text text-anchor="middle" x="159.75" y="-358.5" font-family="Helvetica,sans-Serif" font-size="10.00">SNMP::Type</text>
</a>
</g>
</g>
<!-- Node5&#45;&gt;Node7 -->
<g id="edge8_Node000007_Node000005" class="edge">
<title>Node5&#45;&gt;Node7</title>
<g id="a_edge8_Node000007_Node000005"><a xlink:title=" ">
<path fill="none" stroke="#63b8ff" d="M91.4,-402.99C108.11,-393.21 129.39,-380.77 143.73,-372.38"/>
<polygon fill="#63b8ff" stroke="#63b8ff" points="89.87,-399.83 83,-407.91 93.4,-405.88 89.87,-399.83"/>
</a>
</g>
</g>
<!-- Node6&#45;&gt;Node4 -->
<g id="edge5_Node000004_Node000006" class="edge">
<title>Node6&#45;&gt;Node4</title>
<g id="a_edge5_Node000004_Node000006"><a xlink:title=" ">
<path fill="none" stroke="#9a32cd" stroke-dasharray="5,2" d="M65.75,-340.28C65.75,-328.27 65.75,-313.74 65.75,-304.44"/>
<polygon fill="#9a32cd" stroke="#9a32cd" points="62.25,-340.03 65.75,-350.03 69.25,-340.03 62.25,-340.03"/>
</a>
</g>
<text text-anchor="middle" x="83" y="-324.5" font-family="Helvetica,sans-Serif" font-size="10.00" fill="grey"> _length</text>
</g>
<!-- Node7&#45;&gt;Node4 -->
<g id="edge7_Node000004_Node000007" class="edge">
<title>Node7&#45;&gt;Node4</title>
<g id="a_edge7_Node000004_Node000007"><a xlink:title=" ">
<path fill="none" stroke="#9a32cd" stroke-dasharray="5,2" d="M137.02,-345.04C118.94,-332.35 94.26,-315.02 79.19,-304.44"/>
<polygon fill="#9a32cd" stroke="#9a32cd" points="134.85,-347.79 145.04,-350.67 138.87,-342.06 134.85,-347.79"/>
</a>
</g>
<text text-anchor="middle" x="135.25" y="-324.5" font-family="Helvetica,sans-Serif" font-size="10.00" fill="grey"> _type</text>
</g>
<!-- Node8 -->
<g id="Node000008" class="node">
<title>Node8</title>
<g id="a_Node000008"><a xlink:href="class_s_n_m_p_1_1_p_d_u.html" target="_top" xlink:title="Helper class to handle PDU.">
<polygon fill="white" stroke="#666666" points="257.12,-88 186.38,-88 186.38,-68 257.12,-68 257.12,-88"/>
<text text-anchor="middle" x="221.75" y="-74.5" font-family="Helvetica,sans-Serif" font-size="10.00">SNMP::PDU</text>
</a>
</g>
</g>
<!-- Node8&#45;&gt;Node1 -->
<g id="edge10_Node000001_Node000008" class="edge">
<title>Node8&#45;&gt;Node1</title>
<g id="a_edge10_Node000001_Node000008"><a xlink:title=" ">
<path fill="none" stroke="#8b1a1a" d="M204.58,-60.07C196.55,-52.71 186.6,-44.34 176.75,-38 166.04,-31.11 153.29,-25.05 142.39,-20.42"/>
<polygon fill="#8b1a1a" stroke="#8b1a1a" points="201.96,-62.41 211.63,-66.75 206.78,-57.33 201.96,-62.41"/>
</a>
</g>
</g>
<!-- Node9 -->
<g id="Node000009" class="node">
<title>Node9</title>
<g id="a_Node000009"><a xlink:href="struct_s_n_m_p_1_1_p_d_u_1_1_generic.html" target="_top" xlink:title="Helper struct to handle generic PDU.">
<polygon fill="white" stroke="#666666" points="264,-156 153.5,-156 153.5,-136 264,-136 264,-156"/>
<text text-anchor="middle" x="208.75" y="-142.5" font-family="Helvetica,sans-Serif" font-size="10.00">SNMP::PDU::Generic</text>
</a>
</g>
</g>
<!-- Node9&#45;&gt;Node8 -->
<g id="edge11_Node000008_Node000009" class="edge">
<title>Node9&#45;&gt;Node8</title>
<g id="a_edge11_Node000008_Node000009"><a xlink:title=" ">
<path fill="none" stroke="#9a32cd" stroke-dasharray="5,2" d="M212.83,-124.28C215.2,-112.27 218.06,-97.74 219.89,-88.44"/>
<polygon fill="#9a32cd" stroke="#9a32cd" points="209.4,-123.57 210.91,-134.06 216.27,-124.92 209.4,-123.57"/>
</a>
</g>
<text text-anchor="middle" x="236.62" y="-108.5" font-family="Helvetica,sans-Serif" font-size="10.00" fill="grey"> _generic</text>
</g>
<!-- Node10 -->
<g id="Node000010" class="node">
<title>Node10</title>
<g id="a_Node000010"><a xlink:href="struct_s_n_m_p_1_1_error.html" target="_top" xlink:title="Helper struct to handle SNMP error.">
<polygon fill="white" stroke="#666666" points="226.5,-230 155,-230 155,-210 226.5,-210 226.5,-230"/>
<text text-anchor="middle" x="190.75" y="-216.5" font-family="Helvetica,sans-Serif" font-size="10.00">SNMP::Error</text>
</a>
</g>
</g>
<!-- Node10&#45;&gt;Node9 -->
<g id="edge12_Node000009_Node000010" class="edge">
<title>Node10&#45;&gt;Node9</title>
<g id="a_edge12_Node000009_Node000010"><a xlink:title=" ">
<path fill="none" stroke="#9a32cd" stroke-dasharray="5,2" d="M195.85,-198.6C199.34,-184.65 203.8,-166.82 206.45,-156.19"/>
<polygon fill="#9a32cd" stroke="#9a32cd" points="192.5,-197.57 193.47,-208.12 199.29,-199.27 192.5,-197.57"/>
</a>
</g>
<text text-anchor="middle" x="216.62" y="-176.5" font-family="Helvetica,sans-Serif" font-size="10.00" fill="grey"> _error</text>
</g>
<!-- Node11 -->
<g id="Node000011" class="node">
<title>Node11</title>
<g id="a_Node000011"><a xlink:href="struct_s_n_m_p_1_1_p_d_u_1_1_generic_1_1_bulk.html" target="_top" xlink:title="Helper struct to handle GetBulkRequest PDU.">
<polygon fill="white" stroke="#666666" points="355,-236 244.5,-236 244.5,-204 355,-204 355,-236"/>
<text text-anchor="start" x="252.5" y="-222.5" font-family="Helvetica,sans-Serif" font-size="10.00">SNMP::PDU::Generic</text>
<text text-anchor="middle" x="299.75" y="-210.5" font-family="Helvetica,sans-Serif" font-size="10.00">::Bulk</text>
</a>
</g>
</g>
<!-- Node11&#45;&gt;Node9 -->
<g id="edge13_Node000009_Node000011" class="edge">
<title>Node11&#45;&gt;Node9</title>
<g id="a_edge13_Node000009_Node000011"><a xlink:title=" ">
<path fill="none" stroke="#9a32cd" stroke-dasharray="5,2" d="M271.87,-196.94C254.65,-183.32 233.44,-166.54 220.52,-156.31"/>
<polygon fill="#9a32cd" stroke="#9a32cd" points="269.25,-199.33 279.26,-202.79 273.59,-193.84 269.25,-199.33"/>
</a>
</g>
<text text-anchor="middle" x="270.88" y="-176.5" font-family="Helvetica,sans-Serif" font-size="10.00" fill="grey"> _bulk</text>
</g>
<!-- Node12 -->
<g id="Node000012" class="node">
<title>Node12</title>
<g id="a_Node000012"><a xlink:href="struct_s_n_m_p_1_1_trap.html" target="_top" xlink:title="Helper struct to handle trap PDU.">
<polygon fill="white" stroke="#666666" points="351.38,-156 282.12,-156 282.12,-136 351.38,-136 351.38,-156"/>
<text text-anchor="middle" x="316.75" y="-142.5" font-family="Helvetica,sans-Serif" font-size="10.00">SNMP::Trap</text>
</a>
</g>
</g>
<!-- Node12&#45;&gt;Node8 -->
<g id="edge14_Node000008_Node000012" class="edge">
<title>Node12&#45;&gt;Node8</title>
<g id="a_edge14_Node000008_Node000012"><a xlink:title=" ">
<path fill="none" stroke="#9a32cd" stroke-dasharray="5,2" d="M294.01,-129.14C283.84,-122.05 271.7,-113.6 260.75,-106 252.36,-100.18 242.95,-93.66 235.47,-88.49"/>
<polygon fill="#9a32cd" stroke="#9a32cd" points="291.96,-131.98 302.16,-134.83 295.96,-126.24 291.96,-131.98"/>
</a>
</g>
<text text-anchor="middle" x="290.12" y="-108.5" font-family="Helvetica,sans-Serif" font-size="10.00" fill="grey"> _trap</text>
</g>
<!-- Node13&#45;&gt;Node1 -->
<g id="edge15_Node000001_Node000013" class="edge">
<title>Node13&#45;&gt;Node1</title>
<g id="a_edge15_Node000001_Node000013"><a xlink:title=" ">
<path fill="none" stroke="#9a32cd" stroke-dasharray="5,2" d="M117.75,-56.28C117.75,-44.27 117.75,-29.74 117.75,-20.44"/>
<polygon fill="#9a32cd" stroke="#9a32cd" points="114.25,-56.03 117.75,-66.03 121.25,-56.03 114.25,-56.03"/>
</a>
</g>
<text text-anchor="middle" x="145.5" y="-40.5" font-family="Helvetica,sans-Serif" font-size="10.00" fill="grey"> _varBindList</text>
</g>
</g>
</svg>
</svg>

<style type='text/css'>
<![CDATA[
[data-mouse-over-selected='false'] { opacity: 0.7; }
[data-mouse-over-selected='true']  { opacity: 1.0; }
]]>
</style>
<script type="application/ecmascript"><![CDATA[
document.addEventListener('DOMContentLoaded', (event) => {
  highlightEdges();
  highlightAdjacentNodes();
});
]]></script>
</svg>
