<?xml version="1.0" encoding="UTF-8" standalone="no"?>
<!DOCTYPE svg PUBLIC "-//W3C//DTD SVG 1.1//EN"
 "http://www.w3.org/Graphics/SVG/1.1/DTD/svg11.dtd">
<!-- Generated by graphviz version 10.0.1 (20240210.2158)
 -->
<!-- Title: SNMP::ArrayBER&lt; U &gt; Pages: 1 -->
<svg width="197pt" height="221pt"
 viewBox="0.00 0.00 197.12 221.00" xmlns="http://www.w3.org/2000/svg" xmlns:xlink="http://www.w3.org/1999/xlink">
<g id="graph0" class="graph" transform="scale(1 1) rotate(0) translate(4 217)">
<title>SNMP::ArrayBER&lt; U &gt;</title>
<!-- Node1 -->
<g id="Node000001" class="node">
<title>Node1</title>
<g id="a_Node000001"><a xlink:title="Base class for BER array of BERs.">
<polygon fill="#999999" stroke="#666666" points="118.75,-20 0,-20 0,0 118.75,0 118.75,-20"/>
<text text-anchor="middle" x="59.38" y="-6.5" font-family="Helvetica,sans-Serif" font-size="10.00">SNMP::ArrayBER&lt; U &gt;</text>
</a>
</g>
</g>
<!-- Node2 -->
<g id="Node000002" class="node">
<title>Node2</title>
<g id="a_Node000002"><a xlink:href="class_s_n_m_p_1_1_b_e_r.html" target="_top" xlink:title="BER object.">
<polygon fill="white" stroke="#666666" points="94.75,-88 24,-88 24,-68 94.75,-68 94.75,-88"/>
<text text-anchor="middle" x="59.38" y="-74.5" font-family="Helvetica,sans-Serif" font-size="10.00">SNMP::BER</text>
</a>
</g>
</g>
<!-- Node2&#45;&gt;Node1 -->
<g id="edge1_Node000001_Node000002" class="edge">
<title>Node2&#45;&gt;Node1</title>
<g id="a_edge1_Node000001_Node000002"><a xlink:title=" ">
<path fill="none" stroke="#63b8ff" d="M57.65,-56.57C57.33,-50.59 57.15,-44.03 57.38,-38 57.59,-32.18 58.07,-25.66 58.5,-20.49"/>
<polygon fill="#63b8ff" stroke="#63b8ff" points="54.13,-56.47 58.33,-66.2 61.11,-55.97 54.13,-56.47"/>
</a>
</g>
</g>
<!-- Node2&#45;&gt;Node1 -->
<g id="edge7_Node000001_Node000002" class="edge">
<title>Node2&#45;&gt;Node1</title>
<g id="a_edge7_Node000001_Node000002"><a xlink:title=" ">
<path fill="none" stroke="#9a32cd" stroke-dasharray="5,2" d="M59.38,-56.28C59.38,-44.27 59.38,-29.74 59.38,-20.44"/>
<polygon fill="#9a32cd" stroke="#9a32cd" points="55.88,-56.03 59.38,-66.03 62.88,-56.03 55.88,-56.03"/>
</a>
</g>
<text text-anchor="middle" x="72.88" y="-40.5" font-family="Helvetica,sans-Serif" font-size="10.00" fill="grey"> _bers</text>
</g>
<!-- Node3 -->
<g id="Node000003" class="node">
<title>Node3</title>
<g id="a_Node000003"><a xlink:href="class_s_n_m_p_1_1_base.html" target="_top" xlink:title="Base class for BER, Length and Type.">
<polygon fill="white" stroke="#666666" points="95.88,-213 22.88,-213 22.88,-193 95.88,-193 95.88,-213"/>
<text text-anchor="middle" x="59.38" y="-199.5" font-family="Helvetica,sans-Serif" font-size="10.00">SNMP::Base</text>
</a>
</g>
</g>
<!-- Node3&#45;&gt;Node2 -->
<g id="edge2_Node000002_Node000003" class="edge">
<title>Node3&#45;&gt;Node2</title>
<g id="a_edge2_Node000002_Node000003"><a xlink:title=" ">
<path fill="none" stroke="#63b8ff" d="M35.27,-186.13C25.62,-178.33 15.57,-168.01 10.38,-156 6.84,-147.84 7.29,-144.33 10.38,-136 17.72,-116.18 35.39,-98.62 47.38,-88.39"/>
<polygon fill="#63b8ff" stroke="#63b8ff" points="32.91,-188.73 43.02,-191.9 37.1,-183.12 32.91,-188.73"/>
</a>
</g>
</g>
<!-- Node4 -->
<g id="Node000004" class="node">
<title>Node4</title>
<g id="a_Node000004"><a xlink:href="class_s_n_m_p_1_1_length.html" target="_top" xlink:title="Length of a BER object.">
<polygon fill="white" stroke="#666666" points="99.25,-156 19.5,-156 19.5,-136 99.25,-136 99.25,-156"/>
<text text-anchor="middle" x="59.38" y="-142.5" font-family="Helvetica,sans-Serif" font-size="10.00">SNMP::Length</text>
</a>
</g>
</g>
<!-- Node3&#45;&gt;Node4 -->
<g id="edge4_Node000004_Node000003" class="edge">
<title>Node3&#45;&gt;Node4</title>
<g id="a_edge4_Node000004_Node000003"><a xlink:title=" ">
<path fill="none" stroke="#63b8ff" d="M59.38,-181.69C59.38,-172.97 59.38,-163.22 59.38,-156.28"/>
<polygon fill="#63b8ff" stroke="#63b8ff" points="55.88,-181.4 59.38,-191.4 62.88,-181.4 55.88,-181.4"/>
</a>
</g>
</g>
<!-- Node5 -->
<g id="Node000005" class="node">
<title>Node5</title>
<g id="a_Node000005"><a xlink:href="class_s_n_m_p_1_1_type.html" target="_top" xlink:title="Type of a BER object.">
<polygon fill="white" stroke="#666666" points="189.12,-156 117.62,-156 117.62,-136 189.12,-136 189.12,-156"/>
<text text-anchor="middle" x="153.38" y="-142.5" font-family="Helvetica,sans-Serif" font-size="10.00">SNMP::Type</text>
</a>
</g>
</g>
<!-- Node3&#45;&gt;Node5 -->
<g id="edge6_Node000005_Node000003" class="edge">
<title>Node3&#45;&gt;Node5</title>
<g id="a_edge6_Node000005_Node000003"><a xlink:title=" ">
<path fill="none" stroke="#63b8ff" d="M85.03,-186.99C101.74,-177.21 123.01,-164.77 137.35,-156.38"/>
<polygon fill="#63b8ff" stroke="#63b8ff" points="83.49,-183.83 76.63,-191.91 87.03,-189.88 83.49,-183.83"/>
</a>
</g>
</g>
<!-- Node4&#45;&gt;Node2 -->
<g id="edge3_Node000002_Node000004" class="edge">
<title>Node4&#45;&gt;Node2</title>
<g id="a_edge3_Node000002_Node000004"><a xlink:title=" ">
<path fill="none" stroke="#9a32cd" stroke-dasharray="5,2" d="M59.38,-124.28C59.38,-112.27 59.38,-97.74 59.38,-88.44"/>
<polygon fill="#9a32cd" stroke="#9a32cd" points="55.88,-124.03 59.38,-134.03 62.88,-124.03 55.88,-124.03"/>
</a>
</g>
<text text-anchor="middle" x="76.62" y="-108.5" font-family="Helvetica,sans-Serif" font-size="10.00" fill="grey"> _length</text>
</g>
<!-- Node5&#45;&gt;Node2 -->
<g id="edge5_Node000002_Node000005" class="edge">
<title>Node5&#45;&gt;Node2</title>
<g id="a_edge5_Node000002_Node000005"><a xlink:title=" ">
<path fill="none" stroke="#9a32cd" stroke-dasharray="5,2" d="M130.65,-129.04C112.57,-116.35 87.88,-99.02 72.82,-88.44"/>
<polygon fill="#9a32cd" stroke="#9a32cd" points="128.47,-131.79 138.67,-134.67 132.5,-126.06 128.47,-131.79"/>
</a>
</g>
<text text-anchor="middle" x="128.88" y="-108.5" font-family="Helvetica,sans-Serif" font-size="10.00" fill="grey"> _type</text>
</g>
</g>
</svg>
