<?xml version="1.0" encoding="UTF-8" standalone="no"?>
<!DOCTYPE svg PUBLIC "-//W3C//DTD SVG 1.1//EN"
 "http://www.w3.org/Graphics/SVG/1.1/DTD/svg11.dtd">
<!-- Generated by graphviz version 10.0.1 (20240210.2158)
 -->
<!-- Title: SNMP::Counter32BER Pages: 1 -->
<svg width="195pt" height="279pt"
 viewBox="0.00 0.00 195.25 279.00" xmlns="http://www.w3.org/2000/svg" xmlns:xlink="http://www.w3.org/1999/xlink">
<g id="graph0" class="graph" transform="scale(1 1) rotate(0) translate(4 275)">
<title>SNMP::Counter32BER</title>
<!-- Node1 -->
<g id="Node000001" class="node">
<title>Node1</title>
<g id="a_Node000001"><a xlink:title="BER object to handle 32&#45;bit counter.">
<polygon fill="#999999" stroke="#666666" points="115,-20 0,-20 0,0 115,0 115,-20"/>
<text text-anchor="middle" x="57.5" y="-6.5" font-family="Helvetica,sans-Serif" font-size="10.00">SNMP::Counter32BER</text>
</a>
</g>
</g>
<!-- Node2 -->
<g id="Node000002" class="node">
<title>Node2</title>
<g id="a_Node000002"><a xlink:href="class_s_n_m_p_1_1_u_integer_b_e_r.html" target="_top" xlink:title=" ">
<polygon fill="white" stroke="#666666" points="113.88,-89 1.12,-89 1.12,-57 113.88,-57 113.88,-89"/>
<text text-anchor="start" x="9.12" y="-75.5" font-family="Helvetica,sans-Serif" font-size="10.00">SNMP::UIntegerBER&lt;</text>
<text text-anchor="middle" x="57.5" y="-63.5" font-family="Helvetica,sans-Serif" font-size="10.00"> uint32_t &gt;</text>
</a>
</g>
</g>
<!-- Node2&#45;&gt;Node1 -->
<g id="edge1_Node000001_Node000002" class="edge">
<title>Node2&#45;&gt;Node1</title>
<g id="a_edge1_Node000001_Node000002"><a xlink:title=" ">
<path fill="none" stroke="#63b8ff" d="M57.5,-45.36C57.5,-36.41 57.5,-27.01 57.5,-20.31"/>
<polygon fill="#63b8ff" stroke="#63b8ff" points="54,-45.09 57.5,-55.09 61,-45.09 54,-45.09"/>
</a>
</g>
</g>
<!-- Node3 -->
<g id="Node000003" class="node">
<title>Node3</title>
<g id="a_Node000003"><a xlink:href="class_s_n_m_p_1_1_b_e_r.html" target="_top" xlink:title="BER object.">
<polygon fill="white" stroke="#666666" points="92.88,-146 22.12,-146 22.12,-126 92.88,-126 92.88,-146"/>
<text text-anchor="middle" x="57.5" y="-132.5" font-family="Helvetica,sans-Serif" font-size="10.00">SNMP::BER</text>
</a>
</g>
</g>
<!-- Node3&#45;&gt;Node2 -->
<g id="edge2_Node000002_Node000003" class="edge">
<title>Node3&#45;&gt;Node2</title>
<g id="a_edge2_Node000002_Node000003"><a xlink:title=" ">
<path fill="none" stroke="#63b8ff" d="M57.5,-114.36C57.5,-106.07 57.5,-96.69 57.5,-89.06"/>
<polygon fill="#63b8ff" stroke="#63b8ff" points="54,-114.22 57.5,-124.22 61,-114.22 54,-114.22"/>
</a>
</g>
</g>
<!-- Node4 -->
<g id="Node000004" class="node">
<title>Node4</title>
<g id="a_Node000004"><a xlink:href="class_s_n_m_p_1_1_base.html" target="_top" xlink:title="Base class for BER, Length and Type.">
<polygon fill="white" stroke="#666666" points="94,-271 21,-271 21,-251 94,-251 94,-271"/>
<text text-anchor="middle" x="57.5" y="-257.5" font-family="Helvetica,sans-Serif" font-size="10.00">SNMP::Base</text>
</a>
</g>
</g>
<!-- Node4&#45;&gt;Node3 -->
<g id="edge3_Node000003_Node000004" class="edge">
<title>Node4&#45;&gt;Node3</title>
<g id="a_edge3_Node000003_Node000004"><a xlink:title=" ">
<path fill="none" stroke="#63b8ff" d="M33.4,-244.13C23.75,-236.33 13.7,-226.01 8.5,-214 4.97,-205.84 5.41,-202.33 8.5,-194 15.85,-174.18 33.52,-156.62 45.5,-146.39"/>
<polygon fill="#63b8ff" stroke="#63b8ff" points="31.04,-246.73 41.14,-249.9 35.22,-241.12 31.04,-246.73"/>
</a>
</g>
</g>
<!-- Node5 -->
<g id="Node000005" class="node">
<title>Node5</title>
<g id="a_Node000005"><a xlink:href="class_s_n_m_p_1_1_length.html" target="_top" xlink:title="Length of a BER object.">
<polygon fill="white" stroke="#666666" points="97.38,-214 17.62,-214 17.62,-194 97.38,-194 97.38,-214"/>
<text text-anchor="middle" x="57.5" y="-200.5" font-family="Helvetica,sans-Serif" font-size="10.00">SNMP::Length</text>
</a>
</g>
</g>
<!-- Node4&#45;&gt;Node5 -->
<g id="edge5_Node000005_Node000004" class="edge">
<title>Node4&#45;&gt;Node5</title>
<g id="a_edge5_Node000005_Node000004"><a xlink:title=" ">
<path fill="none" stroke="#63b8ff" d="M57.5,-239.69C57.5,-230.97 57.5,-221.22 57.5,-214.28"/>
<polygon fill="#63b8ff" stroke="#63b8ff" points="54,-239.4 57.5,-249.4 61,-239.4 54,-239.4"/>
</a>
</g>
</g>
<!-- Node6 -->
<g id="Node000006" class="node">
<title>Node6</title>
<g id="a_Node000006"><a xlink:href="class_s_n_m_p_1_1_type.html" target="_top" xlink:title="Type of a BER object.">
<polygon fill="white" stroke="#666666" points="187.25,-214 115.75,-214 115.75,-194 187.25,-194 187.25,-214"/>
<text text-anchor="middle" x="151.5" y="-200.5" font-family="Helvetica,sans-Serif" font-size="10.00">SNMP::Type</text>
</a>
</g>
</g>
<!-- Node4&#45;&gt;Node6 -->
<g id="edge7_Node000006_Node000004" class="edge">
<title>Node4&#45;&gt;Node6</title>
<g id="a_edge7_Node000006_Node000004"><a xlink:title=" ">
<path fill="none" stroke="#63b8ff" d="M83.15,-244.99C99.86,-235.21 121.14,-222.77 135.48,-214.38"/>
<polygon fill="#63b8ff" stroke="#63b8ff" points="81.62,-241.83 74.75,-249.91 85.15,-247.88 81.62,-241.83"/>
</a>
</g>
</g>
<!-- Node5&#45;&gt;Node3 -->
<g id="edge4_Node000003_Node000005" class="edge">
<title>Node5&#45;&gt;Node3</title>
<g id="a_edge4_Node000003_Node000005"><a xlink:title=" ">
<path fill="none" stroke="#9a32cd" stroke-dasharray="5,2" d="M57.5,-182.28C57.5,-170.27 57.5,-155.74 57.5,-146.44"/>
<polygon fill="#9a32cd" stroke="#9a32cd" points="54,-182.03 57.5,-192.03 61,-182.03 54,-182.03"/>
</a>
</g>
<text text-anchor="middle" x="74.75" y="-166.5" font-family="Helvetica,sans-Serif" font-size="10.00" fill="grey"> _length</text>
</g>
<!-- Node6&#45;&gt;Node3 -->
<g id="edge6_Node000003_Node000006" class="edge">
<title>Node6&#45;&gt;Node3</title>
<g id="a_edge6_Node000003_Node000006"><a xlink:title=" ">
<path fill="none" stroke="#9a32cd" stroke-dasharray="5,2" d="M128.77,-187.04C110.69,-174.35 86.01,-157.02 70.94,-146.44"/>
<polygon fill="#9a32cd" stroke="#9a32cd" points="126.6,-189.79 136.79,-192.67 130.62,-184.06 126.6,-189.79"/>
</a>
</g>
<text text-anchor="middle" x="127" y="-166.5" font-family="Helvetica,sans-Serif" font-size="10.00" fill="grey"> _type</text>
</g>
</g>
</svg>
