<?xml version="1.0" encoding="UTF-8" standalone="no"?>
<!DOCTYPE svg PUBLIC "-//W3C//DTD SVG 1.1//EN"
 "http://www.w3.org/Graphics/SVG/1.1/DTD/svg11.dtd">
<!-- Generated by graphviz version 10.0.1 (20240210.2158)
 -->
<!-- Title: SNMP::OctetStringBER Pages: 1 -->
<svg width="128pt" height="196pt"
 viewBox="0.00 0.00 128.25 196.00" xmlns="http://www.w3.org/2000/svg" xmlns:xlink="http://www.w3.org/1999/xlink">
<g id="graph0" class="graph" transform="scale(1 1) rotate(0) translate(4 192)">
<title>SNMP::OctetStringBER</title>
<!-- Node1 -->
<g id="Node000001" class="node">
<title>Node1</title>
<g id="a_Node000001"><a xlink:title="BER object to handle octet string.">
<polygon fill="#999999" stroke="#666666" points="120.25,-76 0,-76 0,-56 120.25,-56 120.25,-76"/>
<text text-anchor="middle" x="60.12" y="-62.5" font-family="Helvetica,sans-Serif" font-size="10.00">SNMP::OctetStringBER</text>
</a>
</g>
</g>
<!-- Node4 -->
<g id="Node000004" class="node">
<title>Node4</title>
<g id="a_Node000004"><a xlink:href="class_s_n_m_p_1_1_i_p_address_b_e_r.html" target="_top" xlink:title="BER object to handle IP address.">
<polygon fill="white" stroke="#666666" points="118,-20 2.25,-20 2.25,0 118,0 118,-20"/>
<text text-anchor="middle" x="60.12" y="-6.5" font-family="Helvetica,sans-Serif" font-size="10.00">SNMP::IPAddressBER</text>
</a>
</g>
</g>
<!-- Node1&#45;&gt;Node4 -->
<g id="edge3_Node000001_Node000004" class="edge">
<title>Node1&#45;&gt;Node4</title>
<g id="a_edge3_Node000001_Node000004"><a xlink:title=" ">
<path fill="none" stroke="#63b8ff" d="M60.12,-44.13C60.12,-35.9 60.12,-26.85 60.12,-20.3"/>
<polygon fill="#63b8ff" stroke="#63b8ff" points="56.63,-44.08 60.13,-54.08 63.63,-44.08 56.63,-44.08"/>
</a>
</g>
</g>
<!-- Node2 -->
<g id="Node000002" class="node">
<title>Node2</title>
<g id="a_Node000002"><a xlink:href="class_s_n_m_p_1_1_b_e_r.html" target="_top" xlink:title="BER object.">
<polygon fill="white" stroke="#666666" points="95.5,-132 24.75,-132 24.75,-112 95.5,-112 95.5,-132"/>
<text text-anchor="middle" x="60.12" y="-118.5" font-family="Helvetica,sans-Serif" font-size="10.00">SNMP::BER</text>
</a>
</g>
</g>
<!-- Node2&#45;&gt;Node1 -->
<g id="edge1_Node000001_Node000002" class="edge">
<title>Node2&#45;&gt;Node1</title>
<g id="a_edge1_Node000001_Node000002"><a xlink:title=" ">
<path fill="none" stroke="#63b8ff" d="M60.12,-100.13C60.12,-91.9 60.12,-82.85 60.12,-76.3"/>
<polygon fill="#63b8ff" stroke="#63b8ff" points="56.63,-100.08 60.13,-110.08 63.63,-100.08 56.63,-100.08"/>
</a>
</g>
</g>
<!-- Node3 -->
<g id="Node000003" class="node">
<title>Node3</title>
<g id="a_Node000003"><a xlink:href="class_s_n_m_p_1_1_base.html" target="_top" xlink:title="Base class for BER, Length and Type.">
<polygon fill="white" stroke="#666666" points="96.62,-188 23.62,-188 23.62,-168 96.62,-168 96.62,-188"/>
<text text-anchor="middle" x="60.12" y="-174.5" font-family="Helvetica,sans-Serif" font-size="10.00">SNMP::Base</text>
</a>
</g>
</g>
<!-- Node3&#45;&gt;Node2 -->
<g id="edge2_Node000002_Node000003" class="edge">
<title>Node3&#45;&gt;Node2</title>
<g id="a_edge2_Node000002_Node000003"><a xlink:title=" ">
<path fill="none" stroke="#63b8ff" d="M60.12,-156.13C60.12,-147.9 60.12,-138.85 60.12,-132.3"/>
<polygon fill="#63b8ff" stroke="#63b8ff" points="56.63,-156.08 60.13,-166.08 63.63,-156.08 56.63,-156.08"/>
</a>
</g>
</g>
</g>
</svg>
