<?xml version="1.0" encoding="UTF-8" standalone="no"?>
<!DOCTYPE svg PUBLIC "-//W3C//DTD SVG 1.1//EN"
 "http://www.w3.org/Graphics/SVG/1.1/DTD/svg11.dtd">
<!-- Generated by graphviz version 10.0.1 (20240210.2158)
 -->
<!-- Title: SNMP::SequenceBER Pages: 1 -->
<svg width="218pt" height="264pt"
 viewBox="0.00 0.00 217.50 264.00" xmlns="http://www.w3.org/2000/svg" xmlns:xlink="http://www.w3.org/1999/xlink">
<g id="graph0" class="graph" transform="scale(1 1) rotate(0) translate(4 260)">
<title>SNMP::SequenceBER</title>
<!-- Node1 -->
<g id="Node000001" class="node">
<title>Node1</title>
<g id="a_Node000001"><a xlink:title="BER object to handle sequence of BER objects.">
<polygon fill="#999999" stroke="#666666" points="159.25,-76 45,-76 45,-56 159.25,-56 159.25,-76"/>
<text text-anchor="middle" x="102.12" y="-62.5" font-family="Helvetica,sans-Serif" font-size="10.00">SNMP::SequenceBER</text>
</a>
</g>
</g>
<!-- Node5 -->
<g id="Node000005" class="node">
<title>Node5</title>
<g id="a_Node000005"><a xlink:href="class_s_n_m_p_1_1_message.html" target="_top" xlink:title="SNMP message object.">
<polygon fill="white" stroke="#666666" points="90.25,-20 0,-20 0,0 90.25,0 90.25,-20"/>
<text text-anchor="middle" x="45.12" y="-6.5" font-family="Helvetica,sans-Serif" font-size="10.00">SNMP::Message</text>
</a>
</g>
</g>
<!-- Node1&#45;&gt;Node5 -->
<g id="edge4_Node000001_Node000005" class="edge">
<title>Node1&#45;&gt;Node5</title>
<g id="a_edge4_Node000001_Node000005"><a xlink:title=" ">
<path fill="none" stroke="#63b8ff" d="M84.02,-47.85C74.39,-38.72 62.92,-27.86 54.94,-20.3"/>
<polygon fill="#63b8ff" stroke="#63b8ff" points="81.43,-50.22 91.1,-54.55 86.25,-45.13 81.43,-50.22"/>
</a>
</g>
</g>
<!-- Node6 -->
<g id="Node000006" class="node">
<title>Node6</title>
<g id="a_Node000006"><a xlink:href="class_s_n_m_p_1_1_var_bind_list.html" target="_top" xlink:title="BER object to handle a list of variable bindings.">
<polygon fill="white" stroke="#666666" points="209.5,-20 108.75,-20 108.75,0 209.5,0 209.5,-20"/>
<text text-anchor="middle" x="159.12" y="-6.5" font-family="Helvetica,sans-Serif" font-size="10.00">SNMP::VarBindList</text>
</a>
</g>
</g>
<!-- Node1&#45;&gt;Node6 -->
<g id="edge5_Node000001_Node000006" class="edge">
<title>Node1&#45;&gt;Node6</title>
<g id="a_edge5_Node000001_Node000006"><a xlink:title=" ">
<path fill="none" stroke="#63b8ff" d="M120.23,-47.85C129.86,-38.72 141.33,-27.86 149.31,-20.3"/>
<polygon fill="#63b8ff" stroke="#63b8ff" points="118,-45.13 113.15,-54.55 122.82,-50.22 118,-45.13"/>
</a>
</g>
</g>
<!-- Node2 -->
<g id="Node000002" class="node">
<title>Node2</title>
<g id="a_Node000002"><a xlink:href="class_s_n_m_p_1_1_array_b_e_r.html" target="_top" xlink:title=" ">
<polygon fill="white" stroke="#666666" points="167.88,-144 36.38,-144 36.38,-112 167.88,-112 167.88,-144"/>
<text text-anchor="start" x="44.38" y="-130.5" font-family="Helvetica,sans-Serif" font-size="10.00">SNMP::ArrayBER&lt; SNMP</text>
<text text-anchor="middle" x="102.12" y="-118.5" font-family="Helvetica,sans-Serif" font-size="10.00">_CAPACITY &gt;</text>
</a>
</g>
</g>
<!-- Node2&#45;&gt;Node1 -->
<g id="edge1_Node000001_Node000002" class="edge">
<title>Node2&#45;&gt;Node1</title>
<g id="a_edge1_Node000001_Node000002"><a xlink:title=" ">
<path fill="none" stroke="#63b8ff" d="M102.12,-100.08C102.12,-91.6 102.12,-82.8 102.12,-76.41"/>
<polygon fill="#63b8ff" stroke="#63b8ff" points="98.63,-100.03 102.13,-110.03 105.63,-100.03 98.63,-100.03"/>
</a>
</g>
</g>
<!-- Node3 -->
<g id="Node000003" class="node">
<title>Node3</title>
<g id="a_Node000003"><a xlink:href="class_s_n_m_p_1_1_b_e_r.html" target="_top" xlink:title="BER object.">
<polygon fill="white" stroke="#666666" points="137.5,-200 66.75,-200 66.75,-180 137.5,-180 137.5,-200"/>
<text text-anchor="middle" x="102.12" y="-186.5" font-family="Helvetica,sans-Serif" font-size="10.00">SNMP::BER</text>
</a>
</g>
</g>
<!-- Node3&#45;&gt;Node2 -->
<g id="edge2_Node000002_Node000003" class="edge">
<title>Node3&#45;&gt;Node2</title>
<g id="a_edge2_Node000002_Node000003"><a xlink:title=" ">
<path fill="none" stroke="#63b8ff" d="M102.12,-168.31C102.12,-160.37 102.12,-151.46 102.12,-144.14"/>
<polygon fill="#63b8ff" stroke="#63b8ff" points="98.63,-168.11 102.13,-178.11 105.63,-168.11 98.63,-168.11"/>
</a>
</g>
</g>
<!-- Node4 -->
<g id="Node000004" class="node">
<title>Node4</title>
<g id="a_Node000004"><a xlink:href="class_s_n_m_p_1_1_base.html" target="_top" xlink:title="Base class for BER, Length and Type.">
<polygon fill="white" stroke="#666666" points="138.62,-256 65.62,-256 65.62,-236 138.62,-236 138.62,-256"/>
<text text-anchor="middle" x="102.12" y="-242.5" font-family="Helvetica,sans-Serif" font-size="10.00">SNMP::Base</text>
</a>
</g>
</g>
<!-- Node4&#45;&gt;Node3 -->
<g id="edge3_Node000003_Node000004" class="edge">
<title>Node4&#45;&gt;Node3</title>
<g id="a_edge3_Node000003_Node000004"><a xlink:title=" ">
<path fill="none" stroke="#63b8ff" d="M102.12,-224.13C102.12,-215.9 102.12,-206.85 102.12,-200.3"/>
<polygon fill="#63b8ff" stroke="#63b8ff" points="98.63,-224.08 102.13,-234.08 105.63,-224.08 98.63,-224.08"/>
</a>
</g>
</g>
</g>
</svg>
