<?xml version="1.0" encoding="UTF-8" standalone="no"?>
<!DOCTYPE svg PUBLIC "-//W3C//DTD SVG 1.1//EN"
 "http://www.w3.org/Graphics/SVG/1.1/DTD/svg11.dtd">
<!-- Generated by graphviz version 10.0.1 (20240210.2158)
 -->
<!-- Title: SNMP::IPAddressBER Pages: 1 -->
<svg width="198pt" height="267pt"
 viewBox="0.00 0.00 197.88 267.00" xmlns="http://www.w3.org/2000/svg" xmlns:xlink="http://www.w3.org/1999/xlink">
<g id="graph0" class="graph" transform="scale(1 1) rotate(0) translate(4 263)">
<title>SNMP::IPAddressBER</title>
<!-- Node1 -->
<g id="Node000001" class="node">
<title>Node1</title>
<g id="a_Node000001"><a xlink:title="BER object to handle IP address.">
<polygon fill="#999999" stroke="#666666" points="118,-20 2.25,-20 2.25,0 118,0 118,-20"/>
<text text-anchor="middle" x="60.12" y="-6.5" font-family="Helvetica,sans-Serif" font-size="10.00">SNMP::IPAddressBER</text>
</a>
</g>
</g>
<!-- Node2 -->
<g id="Node000002" class="node">
<title>Node2</title>
<g id="a_Node000002"><a xlink:href="class_s_n_m_p_1_1_octet_string_b_e_r.html" target="_top" xlink:title="BER object to handle octet string.">
<polygon fill="white" stroke="#666666" points="120.25,-77 0,-77 0,-57 120.25,-57 120.25,-77"/>
<text text-anchor="middle" x="60.12" y="-63.5" font-family="Helvetica,sans-Serif" font-size="10.00">SNMP::OctetStringBER</text>
</a>
</g>
</g>
<!-- Node2&#45;&gt;Node1 -->
<g id="edge1_Node000001_Node000002" class="edge">
<title>Node2&#45;&gt;Node1</title>
<g id="a_edge1_Node000001_Node000002"><a xlink:title=" ">
<path fill="none" stroke="#63b8ff" d="M60.12,-45.69C60.12,-36.97 60.12,-27.22 60.12,-20.28"/>
<polygon fill="#63b8ff" stroke="#63b8ff" points="56.63,-45.4 60.13,-55.4 63.63,-45.4 56.63,-45.4"/>
</a>
</g>
</g>
<!-- Node3 -->
<g id="Node000003" class="node">
<title>Node3</title>
<g id="a_Node000003"><a xlink:href="class_s_n_m_p_1_1_b_e_r.html" target="_top" xlink:title="BER object.">
<polygon fill="white" stroke="#666666" points="95.5,-134 24.75,-134 24.75,-114 95.5,-114 95.5,-134"/>
<text text-anchor="middle" x="60.12" y="-120.5" font-family="Helvetica,sans-Serif" font-size="10.00">SNMP::BER</text>
</a>
</g>
</g>
<!-- Node3&#45;&gt;Node2 -->
<g id="edge2_Node000002_Node000003" class="edge">
<title>Node3&#45;&gt;Node2</title>
<g id="a_edge2_Node000002_Node000003"><a xlink:title=" ">
<path fill="none" stroke="#63b8ff" d="M60.12,-102.69C60.12,-93.97 60.12,-84.22 60.12,-77.28"/>
<polygon fill="#63b8ff" stroke="#63b8ff" points="56.63,-102.4 60.13,-112.4 63.63,-102.4 56.63,-102.4"/>
</a>
</g>
</g>
<!-- Node4 -->
<g id="Node000004" class="node">
<title>Node4</title>
<g id="a_Node000004"><a xlink:href="class_s_n_m_p_1_1_base.html" target="_top" xlink:title="Base class for BER, Length and Type.">
<polygon fill="white" stroke="#666666" points="96.62,-259 23.62,-259 23.62,-239 96.62,-239 96.62,-259"/>
<text text-anchor="middle" x="60.12" y="-245.5" font-family="Helvetica,sans-Serif" font-size="10.00">SNMP::Base</text>
</a>
</g>
</g>
<!-- Node4&#45;&gt;Node3 -->
<g id="edge3_Node000003_Node000004" class="edge">
<title>Node4&#45;&gt;Node3</title>
<g id="a_edge3_Node000003_Node000004"><a xlink:title=" ">
<path fill="none" stroke="#63b8ff" d="M36.02,-232.13C26.37,-224.33 16.32,-214.01 11.12,-202 7.59,-193.84 8.04,-190.33 11.12,-182 18.47,-162.18 36.14,-144.62 48.13,-134.39"/>
<polygon fill="#63b8ff" stroke="#63b8ff" points="33.66,-234.73 43.77,-237.9 37.85,-229.12 33.66,-234.73"/>
</a>
</g>
</g>
<!-- Node5 -->
<g id="Node000005" class="node">
<title>Node5</title>
<g id="a_Node000005"><a xlink:href="class_s_n_m_p_1_1_length.html" target="_top" xlink:title="Length of a BER object.">
<polygon fill="white" stroke="#666666" points="100,-202 20.25,-202 20.25,-182 100,-182 100,-202"/>
<text text-anchor="middle" x="60.12" y="-188.5" font-family="Helvetica,sans-Serif" font-size="10.00">SNMP::Length</text>
</a>
</g>
</g>
<!-- Node4&#45;&gt;Node5 -->
<g id="edge5_Node000005_Node000004" class="edge">
<title>Node4&#45;&gt;Node5</title>
<g id="a_edge5_Node000005_Node000004"><a xlink:title=" ">
<path fill="none" stroke="#63b8ff" d="M60.12,-227.69C60.12,-218.97 60.12,-209.22 60.12,-202.28"/>
<polygon fill="#63b8ff" stroke="#63b8ff" points="56.63,-227.4 60.13,-237.4 63.63,-227.4 56.63,-227.4"/>
</a>
</g>
</g>
<!-- Node6 -->
<g id="Node000006" class="node">
<title>Node6</title>
<g id="a_Node000006"><a xlink:href="class_s_n_m_p_1_1_type.html" target="_top" xlink:title="Type of a BER object.">
<polygon fill="white" stroke="#666666" points="189.88,-202 118.38,-202 118.38,-182 189.88,-182 189.88,-202"/>
<text text-anchor="middle" x="154.12" y="-188.5" font-family="Helvetica,sans-Serif" font-size="10.00">SNMP::Type</text>
</a>
</g>
</g>
<!-- Node4&#45;&gt;Node6 -->
<g id="edge7_Node000006_Node000004" class="edge">
<title>Node4&#45;&gt;Node6</title>
<g id="a_edge7_Node000006_Node000004"><a xlink:title=" ">
<path fill="none" stroke="#63b8ff" d="M85.78,-232.99C102.49,-223.21 123.76,-210.77 138.1,-202.38"/>
<polygon fill="#63b8ff" stroke="#63b8ff" points="84.24,-229.83 77.38,-237.91 87.78,-235.88 84.24,-229.83"/>
</a>
</g>
</g>
<!-- Node5&#45;&gt;Node3 -->
<g id="edge4_Node000003_Node000005" class="edge">
<title>Node5&#45;&gt;Node3</title>
<g id="a_edge4_Node000003_Node000005"><a xlink:title=" ">
<path fill="none" stroke="#9a32cd" stroke-dasharray="5,2" d="M60.12,-170.28C60.12,-158.27 60.12,-143.74 60.12,-134.44"/>
<polygon fill="#9a32cd" stroke="#9a32cd" points="56.63,-170.03 60.13,-180.03 63.63,-170.03 56.63,-170.03"/>
</a>
</g>
<text text-anchor="middle" x="77.38" y="-154.5" font-family="Helvetica,sans-Serif" font-size="10.00" fill="grey"> _length</text>
</g>
<!-- Node6&#45;&gt;Node3 -->
<g id="edge6_Node000003_Node000006" class="edge">
<title>Node6&#45;&gt;Node3</title>
<g id="a_edge6_Node000003_Node000006"><a xlink:title=" ">
<path fill="none" stroke="#9a32cd" stroke-dasharray="5,2" d="M131.4,-175.04C113.32,-162.35 88.63,-145.02 73.57,-134.44"/>
<polygon fill="#9a32cd" stroke="#9a32cd" points="129.22,-177.79 139.42,-180.67 133.25,-172.06 129.22,-177.79"/>
</a>
</g>
<text text-anchor="middle" x="129.62" y="-154.5" font-family="Helvetica,sans-Serif" font-size="10.00" fill="grey"> _type</text>
</g>
</g>
</svg>
