<?xml version="1.0" encoding="UTF-8" standalone="no"?>
<!DOCTYPE svg PUBLIC "-//W3C//DTD SVG 1.1//EN"
 "http://www.w3.org/Graphics/SVG/1.1/DTD/svg11.dtd">
<!-- Generated by graphviz version 10.0.1 (20240210.2158)
 -->
<!-- Title: SNMP::SNMP Pages: 1 -->
<svg width="363pt" height="505pt"
 viewBox="0.00 0.00 363.00 505.00" xmlns="http://www.w3.org/2000/svg" xmlns:xlink="http://www.w3.org/1999/xlink">
<g id="graph0" class="graph" transform="scale(1 1) rotate(0) translate(4 501)">
<title>SNMP::SNMP</title>
<!-- Node1 -->
<g id="Node000001" class="node">
<title>Node1</title>
<g id="a_Node000001"><a xlink:title=" ">
<polygon fill="#999999" stroke="#666666" points="157.25,-20 78.25,-20 78.25,0 157.25,0 157.25,-20"/>
<text text-anchor="middle" x="117.75" y="-6.5" font-family="Helvetica,sans-Serif" font-size="10.00">SNMP::SNMP</text>
</a>
</g>
</g>
<!-- Node2 -->
<g id="Node000002" class="node">
<title>Node2</title>
<g id="a_Node000002"><a xlink:href="class_s_n_m_p_1_1_message.html" target="_top" xlink:title="SNMP message object.">
<polygon fill="white" stroke="#666666" points="162.88,-88 72.62,-88 72.62,-68 162.88,-68 162.88,-88"/>
<text text-anchor="middle" x="117.75" y="-74.5" font-family="Helvetica,sans-Serif" font-size="10.00">SNMP::Message</text>
</a>
</g>
</g>
<!-- Node2&#45;&gt;Node1 -->
<g id="edge1_Node000001_Node000002" class="edge">
<title>Node2&#45;&gt;Node1</title>
<g id="a_edge1_Node000001_Node000002"><a xlink:title=" ">
<path fill="none" stroke="#9a32cd" stroke-dasharray="5,2" d="M117.75,-56.28C117.75,-44.27 117.75,-29.74 117.75,-20.44"/>
<polygon fill="#9a32cd" stroke="#9a32cd" points="114.25,-56.03 117.75,-66.03 121.25,-56.03 114.25,-56.03"/>
</a>
</g>
<text text-anchor="middle" x="147" y="-40.5" font-family="Helvetica,sans-Serif" font-size="10.00" fill="grey"> _onMessage</text>
</g>
<!-- Node3 -->
<g id="Node000003" class="node">
<title>Node3</title>
<g id="a_Node000003"><a xlink:href="class_s_n_m_p_1_1_sequence_b_e_r.html" target="_top" xlink:title="BER object to handle sequence of BER objects.">
<polygon fill="white" stroke="#666666" points="122.88,-224 8.62,-224 8.62,-204 122.88,-204 122.88,-224"/>
<text text-anchor="middle" x="65.75" y="-210.5" font-family="Helvetica,sans-Serif" font-size="10.00">SNMP::SequenceBER</text>
</a>
</g>
</g>
<!-- Node3&#45;&gt;Node2 -->
<g id="edge2_Node000002_Node000003" class="edge">
<title>Node3&#45;&gt;Node2</title>
<g id="a_edge2_Node000002_Node000003"><a xlink:title=" ">
<path fill="none" stroke="#63b8ff" d="M58.8,-192.77C54.48,-176.74 51.06,-154.12 58.75,-136 67.6,-115.15 88.21,-98.21 102.57,-88.37"/>
<polygon fill="#63b8ff" stroke="#63b8ff" points="55.38,-193.57 61.67,-202.1 62.08,-191.52 55.38,-193.57"/>
</a>
</g>
</g>
<!-- Node14 -->
<g id="Node000014" class="node">
<title>Node14</title>
<g id="a_Node000014"><a xlink:href="class_s_n_m_p_1_1_var_bind_list.html" target="_top" xlink:title="BER object to handle a list of variable bindings.">
<polygon fill="white" stroke="#666666" points="168.12,-156 67.38,-156 67.38,-136 168.12,-136 168.12,-156"/>
<text text-anchor="middle" x="117.75" y="-142.5" font-family="Helvetica,sans-Serif" font-size="10.00">SNMP::VarBindList</text>
</a>
</g>
</g>
<!-- Node3&#45;&gt;Node14 -->
<g id="edge17_Node000014_Node000003" class="edge">
<title>Node3&#45;&gt;Node14</title>
<g id="a_edge17_Node000014_Node000003"><a xlink:title=" ">
<path fill="none" stroke="#63b8ff" d="M80.31,-194.52C90.07,-182.13 102.52,-166.33 110.31,-156.44"/>
<polygon fill="#63b8ff" stroke="#63b8ff" points="77.58,-192.33 74.14,-202.35 83.08,-196.67 77.58,-192.33"/>
</a>
</g>
</g>
<!-- Node4 -->
<g id="Node000004" class="node">
<title>Node4</title>
<g id="a_Node000004"><a xlink:href="class_s_n_m_p_1_1_array_b_e_r.html" target="_top" xlink:title=" ">
<polygon fill="white" stroke="#666666" points="131.5,-304 0,-304 0,-272 131.5,-272 131.5,-304"/>
<text text-anchor="start" x="8" y="-290.5" font-family="Helvetica,sans-Serif" font-size="10.00">SNMP::ArrayBER&lt; SNMP</text>
<text text-anchor="middle" x="65.75" y="-278.5" font-family="Helvetica,sans-Serif" font-size="10.00">_CAPACITY &gt;</text>
</a>
</g>
</g>
<!-- Node4&#45;&gt;Node3 -->
<g id="edge3_Node000003_Node000004" class="edge">
<title>Node4&#45;&gt;Node3</title>
<g id="a_edge3_Node000003_Node000004"><a xlink:title=" ">
<path fill="none" stroke="#63b8ff" d="M65.75,-260.34C65.75,-247.7 65.75,-233.41 65.75,-224.31"/>
<polygon fill="#63b8ff" stroke="#63b8ff" points="62.25,-260.22 65.75,-270.22 69.25,-260.22 62.25,-260.22"/>
</a>
</g>
</g>
<!-- Node5 -->
<g id="Node000005" class="node">
<title>Node5</title>
<g id="a_Node000005"><a xlink:href="class_s_n_m_p_1_1_b_e_r.html" target="_top" xlink:title="BER object.">
<polygon fill="white" stroke="#666666" points="101.12,-372 30.38,-372 30.38,-352 101.12,-352 101.12,-372"/>
<text text-anchor="middle" x="65.75" y="-358.5" font-family="Helvetica,sans-Serif" font-size="10.00">SNMP::BER</text>
</a>
</g>
</g>
<!-- Node5&#45;&gt;Node4 -->
<g id="edge4_Node000004_Node000005" class="edge">
<title>Node5&#45;&gt;Node4</title>
<g id="a_edge4_Node000004_Node000005"><a xlink:title=" ">
<path fill="none" stroke="#63b8ff" d="M64.05,-340.17C63.93,-338.09 63.82,-336 63.75,-334 63.39,-324.15 63.86,-313.1 64.44,-304.41"/>
<polygon fill="#63b8ff" stroke="#63b8ff" points="60.55,-340.28 64.77,-350 67.53,-339.78 60.55,-340.28"/>
</a>
</g>
</g>
<!-- Node5&#45;&gt;Node4 -->
<g id="edge10_Node000004_Node000005" class="edge">
<title>Node5&#45;&gt;Node4</title>
<g id="a_edge10_Node000004_Node000005"><a xlink:title=" ">
<path fill="none" stroke="#9a32cd" stroke-dasharray="5,2" d="M65.75,-340.1C65.75,-328.71 65.75,-314.87 65.75,-304.47"/>
<polygon fill="#9a32cd" stroke="#9a32cd" points="62.25,-340.07 65.75,-350.07 69.25,-340.07 62.25,-340.07"/>
</a>
</g>
<text text-anchor="middle" x="79.25" y="-324.5" font-family="Helvetica,sans-Serif" font-size="10.00" fill="grey"> _bers</text>
</g>
<!-- Node6 -->
<g id="Node000006" class="node">
<title>Node6</title>
<g id="a_Node000006"><a xlink:href="class_s_n_m_p_1_1_base.html" target="_top" xlink:title="Base class for BER, Length and Type.">
<polygon fill="white" stroke="#666666" points="102.25,-497 29.25,-497 29.25,-477 102.25,-477 102.25,-497"/>
<text text-anchor="middle" x="65.75" y="-483.5" font-family="Helvetica,sans-Serif" font-size="10.00">SNMP::Base</text>
</a>
</g>
</g>
<!-- Node6&#45;&gt;Node5 -->
<g id="edge5_Node000005_Node000006" class="edge">
<title>Node6&#45;&gt;Node5</title>
<g id="a_edge5_Node000005_Node000006"><a xlink:title=" ">
<path fill="none" stroke="#63b8ff" d="M41.65,-470.13C32,-462.33 21.95,-452.01 16.75,-440 13.22,-431.84 13.66,-428.33 16.75,-420 24.1,-400.18 41.77,-382.62 53.75,-372.39"/>
<polygon fill="#63b8ff" stroke="#63b8ff" points="39.29,-472.73 49.39,-475.9 43.47,-467.12 39.29,-472.73"/>
</a>
</g>
</g>
<!-- Node7 -->
<g id="Node000007" class="node">
<title>Node7</title>
<g id="a_Node000007"><a xlink:href="class_s_n_m_p_1_1_length.html" target="_top" xlink:title="Length of a BER object.">
<polygon fill="white" stroke="#666666" points="105.62,-440 25.88,-440 25.88,-420 105.62,-420 105.62,-440"/>
<text text-anchor="middle" x="65.75" y="-426.5" font-family="Helvetica,sans-Serif" font-size="10.00">SNMP::Length</text>
</a>
</g>
</g>
<!-- Node6&#45;&gt;Node7 -->
<g id="edge7_Node000007_Node000006" class="edge">
<title>Node6&#45;&gt;Node7</title>
<g id="a_edge7_Node000007_Node000006"><a xlink:title=" ">
<path fill="none" stroke="#63b8ff" d="M65.75,-465.69C65.75,-456.97 65.75,-447.22 65.75,-440.28"/>
<polygon fill="#63b8ff" stroke="#63b8ff" points="62.25,-465.4 65.75,-475.4 69.25,-465.4 62.25,-465.4"/>
</a>
</g>
</g>
<!-- Node8 -->
<g id="Node000008" class="node">
<title>Node8</title>
<g id="a_Node000008"><a xlink:href="class_s_n_m_p_1_1_type.html" target="_top" xlink:title="Type of a BER object.">
<polygon fill="white" stroke="#666666" points="195.5,-440 124,-440 124,-420 195.5,-420 195.5,-440"/>
<text text-anchor="middle" x="159.75" y="-426.5" font-family="Helvetica,sans-Serif" font-size="10.00">SNMP::Type</text>
</a>
</g>
</g>
<!-- Node6&#45;&gt;Node8 -->
<g id="edge9_Node000008_Node000006" class="edge">
<title>Node6&#45;&gt;Node8</title>
<g id="a_edge9_Node000008_Node000006"><a xlink:title=" ">
<path fill="none" stroke="#63b8ff" d="M91.4,-470.99C108.11,-461.21 129.39,-448.77 143.73,-440.38"/>
<polygon fill="#63b8ff" stroke="#63b8ff" points="89.87,-467.83 83,-475.91 93.4,-473.88 89.87,-467.83"/>
</a>
</g>
</g>
<!-- Node7&#45;&gt;Node5 -->
<g id="edge6_Node000005_Node000007" class="edge">
<title>Node7&#45;&gt;Node5</title>
<g id="a_edge6_Node000005_Node000007"><a xlink:title=" ">
<path fill="none" stroke="#9a32cd" stroke-dasharray="5,2" d="M65.75,-408.28C65.75,-396.27 65.75,-381.74 65.75,-372.44"/>
<polygon fill="#9a32cd" stroke="#9a32cd" points="62.25,-408.03 65.75,-418.03 69.25,-408.03 62.25,-408.03"/>
</a>
</g>
<text text-anchor="middle" x="83" y="-392.5" font-family="Helvetica,sans-Serif" font-size="10.00" fill="grey"> _length</text>
</g>
<!-- Node8&#45;&gt;Node5 -->
<g id="edge8_Node000005_Node000008" class="edge">
<title>Node8&#45;&gt;Node5</title>
<g id="a_edge8_Node000005_Node000008"><a xlink:title=" ">
<path fill="none" stroke="#9a32cd" stroke-dasharray="5,2" d="M137.02,-413.04C118.94,-400.35 94.26,-383.02 79.19,-372.44"/>
<polygon fill="#9a32cd" stroke="#9a32cd" points="134.85,-415.79 145.04,-418.67 138.87,-410.06 134.85,-415.79"/>
</a>
</g>
<text text-anchor="middle" x="135.25" y="-392.5" font-family="Helvetica,sans-Serif" font-size="10.00" fill="grey"> _type</text>
</g>
<!-- Node9 -->
<g id="Node000009" class="node">
<title>Node9</title>
<g id="a_Node000009"><a xlink:href="class_s_n_m_p_1_1_p_d_u.html" target="_top" xlink:title="Helper class to handle PDU.">
<polygon fill="white" stroke="#666666" points="257.12,-156 186.38,-156 186.38,-136 257.12,-136 257.12,-156"/>
<text text-anchor="middle" x="221.75" y="-142.5" font-family="Helvetica,sans-Serif" font-size="10.00">SNMP::PDU</text>
</a>
</g>
</g>
<!-- Node9&#45;&gt;Node2 -->
<g id="edge11_Node000002_Node000009" class="edge">
<title>Node9&#45;&gt;Node2</title>
<g id="a_edge11_Node000002_Node000009"><a xlink:title=" ">
<path fill="none" stroke="#8b1a1a" d="M204.58,-128.07C196.55,-120.71 186.6,-112.34 176.75,-106 166.04,-99.11 153.29,-93.05 142.39,-88.42"/>
<polygon fill="#8b1a1a" stroke="#8b1a1a" points="201.96,-130.41 211.63,-134.75 206.78,-125.33 201.96,-130.41"/>
</a>
</g>
</g>
<!-- Node10 -->
<g id="Node000010" class="node">
<title>Node10</title>
<g id="a_Node000010"><a xlink:href="struct_s_n_m_p_1_1_p_d_u_1_1_generic.html" target="_top" xlink:title="Helper struct to handle generic PDU.">
<polygon fill="white" stroke="#666666" points="264,-224 153.5,-224 153.5,-204 264,-204 264,-224"/>
<text text-anchor="middle" x="208.75" y="-210.5" font-family="Helvetica,sans-Serif" font-size="10.00">SNMP::PDU::Generic</text>
</a>
</g>
</g>
<!-- Node10&#45;&gt;Node9 -->
<g id="edge12_Node000009_Node000010" class="edge">
<title>Node10&#45;&gt;Node9</title>
<g id="a_edge12_Node000009_Node000010"><a xlink:title=" ">
<path fill="none" stroke="#9a32cd" stroke-dasharray="5,2" d="M212.83,-192.28C215.2,-180.27 218.06,-165.74 219.89,-156.44"/>
<polygon fill="#9a32cd" stroke="#9a32cd" points="209.4,-191.57 210.91,-202.06 216.27,-192.92 209.4,-191.57"/>
</a>
</g>
<text text-anchor="middle" x="236.62" y="-176.5" font-family="Helvetica,sans-Serif" font-size="10.00" fill="grey"> _generic</text>
</g>
<!-- Node11 -->
<g id="Node000011" class="node">
<title>Node11</title>
<g id="a_Node000011"><a xlink:href="struct_s_n_m_p_1_1_error.html" target="_top" xlink:title="Helper struct to handle SNMP error.">
<polygon fill="white" stroke="#666666" points="226.5,-298 155,-298 155,-278 226.5,-278 226.5,-298"/>
<text text-anchor="middle" x="190.75" y="-284.5" font-family="Helvetica,sans-Serif" font-size="10.00">SNMP::Error</text>
</a>
</g>
</g>
<!-- Node11&#45;&gt;Node10 -->
<g id="edge13_Node000010_Node000011" class="edge">
<title>Node11&#45;&gt;Node10</title>
<g id="a_edge13_Node000010_Node000011"><a xlink:title=" ">
<path fill="none" stroke="#9a32cd" stroke-dasharray="5,2" d="M195.85,-266.6C199.34,-252.65 203.8,-234.82 206.45,-224.19"/>
<polygon fill="#9a32cd" stroke="#9a32cd" points="192.5,-265.57 193.47,-276.12 199.29,-267.27 192.5,-265.57"/>
</a>
</g>
<text text-anchor="middle" x="216.62" y="-244.5" font-family="Helvetica,sans-Serif" font-size="10.00" fill="grey"> _error</text>
</g>
<!-- Node12 -->
<g id="Node000012" class="node">
<title>Node12</title>
<g id="a_Node000012"><a xlink:href="struct_s_n_m_p_1_1_p_d_u_1_1_generic_1_1_bulk.html" target="_top" xlink:title="Helper struct to handle GetBulkRequest PDU.">
<polygon fill="white" stroke="#666666" points="355,-304 244.5,-304 244.5,-272 355,-272 355,-304"/>
<text text-anchor="start" x="252.5" y="-290.5" font-family="Helvetica,sans-Serif" font-size="10.00">SNMP::PDU::Generic</text>
<text text-anchor="middle" x="299.75" y="-278.5" font-family="Helvetica,sans-Serif" font-size="10.00">::Bulk</text>
</a>
</g>
</g>
<!-- Node12&#45;&gt;Node10 -->
<g id="edge14_Node000010_Node000012" class="edge">
<title>Node12&#45;&gt;Node10</title>
<g id="a_edge14_Node000010_Node000012"><a xlink:title=" ">
<path fill="none" stroke="#9a32cd" stroke-dasharray="5,2" d="M271.87,-264.94C254.65,-251.32 233.44,-234.54 220.52,-224.31"/>
<polygon fill="#9a32cd" stroke="#9a32cd" points="269.25,-267.33 279.26,-270.79 273.59,-261.84 269.25,-267.33"/>
</a>
</g>
<text text-anchor="middle" x="270.88" y="-244.5" font-family="Helvetica,sans-Serif" font-size="10.00" fill="grey"> _bulk</text>
</g>
<!-- Node13 -->
<g id="Node000013" class="node">
<title>Node13</title>
<g id="a_Node000013"><a xlink:href="struct_s_n_m_p_1_1_trap.html" target="_top" xlink:title="Helper struct to handle trap PDU.">
<polygon fill="white" stroke="#666666" points="351.38,-224 282.12,-224 282.12,-204 351.38,-204 351.38,-224"/>
<text text-anchor="middle" x="316.75" y="-210.5" font-family="Helvetica,sans-Serif" font-size="10.00">SNMP::Trap</text>
</a>
</g>
</g>
<!-- Node13&#45;&gt;Node9 -->
<g id="edge15_Node000009_Node000013" class="edge">
<title>Node13&#45;&gt;Node9</title>
<g id="a_edge15_Node000009_Node000013"><a xlink:title=" ">
<path fill="none" stroke="#9a32cd" stroke-dasharray="5,2" d="M294.01,-197.14C283.84,-190.05 271.7,-181.6 260.75,-174 252.36,-168.18 242.95,-161.66 235.47,-156.49"/>
<polygon fill="#9a32cd" stroke="#9a32cd" points="291.96,-199.98 302.16,-202.83 295.96,-194.24 291.96,-199.98"/>
</a>
</g>
<text text-anchor="middle" x="290.12" y="-176.5" font-family="Helvetica,sans-Serif" font-size="10.00" fill="grey"> _trap</text>
</g>
<!-- Node14&#45;&gt;Node2 -->
<g id="edge16_Node000002_Node000014" class="edge">
<title>Node14&#45;&gt;Node2</title>
<g id="a_edge16_Node000002_Node000014"><a xlink:title=" ">
<path fill="none" stroke="#9a32cd" stroke-dasharray="5,2" d="M117.75,-124.28C117.75,-112.27 117.75,-97.74 117.75,-88.44"/>
<polygon fill="#9a32cd" stroke="#9a32cd" points="114.25,-124.03 117.75,-134.03 121.25,-124.03 114.25,-124.03"/>
</a>
</g>
<text text-anchor="middle" x="145.5" y="-108.5" font-family="Helvetica,sans-Serif" font-size="10.00" fill="grey"> _varBindList</text>
</g>
</g>
</svg>
