<?xml version="1.0" encoding="UTF-8" standalone="no"?>
<!DOCTYPE svg PUBLIC "-//W3C//DTD SVG 1.1//EN"
 "http://www.w3.org/Graphics/SVG/1.1/DTD/svg11.dtd">
<!-- Generated by graphviz version 10.0.1 (20240210.2158)
 -->
<!-- Title: SNMP::EndOfMIBViewBER Pages: 1 -->
<svg width="206pt" height="267pt"
 viewBox="0.00 0.00 205.75 267.00" xmlns="http://www.w3.org/2000/svg" xmlns:xlink="http://www.w3.org/1999/xlink">
<g id="graph0" class="graph" transform="scale(1 1) rotate(0) translate(4 263)">
<title>SNMP::EndOfMIBViewBER</title>
<!-- Node1 -->
<g id="Node000001" class="node">
<title>Node1</title>
<g id="a_Node000001"><a xlink:title="BER object to handle endOfMIBView exception.">
<polygon fill="#999999" stroke="#666666" points="136,-20 0,-20 0,0 136,0 136,-20"/>
<text text-anchor="middle" x="68" y="-6.5" font-family="Helvetica,sans-Serif" font-size="10.00">SNMP::EndOfMIBViewBER</text>
</a>
</g>
</g>
<!-- Node2 -->
<g id="Node000002" class="node">
<title>Node2</title>
<g id="a_Node000002"><a xlink:href="class_s_n_m_p_1_1_null_b_e_r.html" target="_top" xlink:title="BER object to handle null.">
<polygon fill="white" stroke="#666666" points="111.62,-77 24.38,-77 24.38,-57 111.62,-57 111.62,-77"/>
<text text-anchor="middle" x="68" y="-63.5" font-family="Helvetica,sans-Serif" font-size="10.00">SNMP::NullBER</text>
</a>
</g>
</g>
<!-- Node2&#45;&gt;Node1 -->
<g id="edge1_Node000001_Node000002" class="edge">
<title>Node2&#45;&gt;Node1</title>
<g id="a_edge1_Node000001_Node000002"><a xlink:title=" ">
<path fill="none" stroke="#63b8ff" d="M68,-45.69C68,-36.97 68,-27.22 68,-20.28"/>
<polygon fill="#63b8ff" stroke="#63b8ff" points="64.5,-45.4 68,-55.4 71.5,-45.4 64.5,-45.4"/>
</a>
</g>
</g>
<!-- Node3 -->
<g id="Node000003" class="node">
<title>Node3</title>
<g id="a_Node000003"><a xlink:href="class_s_n_m_p_1_1_b_e_r.html" target="_top" xlink:title="BER object.">
<polygon fill="white" stroke="#666666" points="103.38,-134 32.62,-134 32.62,-114 103.38,-114 103.38,-134"/>
<text text-anchor="middle" x="68" y="-120.5" font-family="Helvetica,sans-Serif" font-size="10.00">SNMP::BER</text>
</a>
</g>
</g>
<!-- Node3&#45;&gt;Node2 -->
<g id="edge2_Node000002_Node000003" class="edge">
<title>Node3&#45;&gt;Node2</title>
<g id="a_edge2_Node000002_Node000003"><a xlink:title=" ">
<path fill="none" stroke="#63b8ff" d="M68,-102.69C68,-93.97 68,-84.22 68,-77.28"/>
<polygon fill="#63b8ff" stroke="#63b8ff" points="64.5,-102.4 68,-112.4 71.5,-102.4 64.5,-102.4"/>
</a>
</g>
</g>
<!-- Node4 -->
<g id="Node000004" class="node">
<title>Node4</title>
<g id="a_Node000004"><a xlink:href="class_s_n_m_p_1_1_base.html" target="_top" xlink:title="Base class for BER, Length and Type.">
<polygon fill="white" stroke="#666666" points="104.5,-259 31.5,-259 31.5,-239 104.5,-239 104.5,-259"/>
<text text-anchor="middle" x="68" y="-245.5" font-family="Helvetica,sans-Serif" font-size="10.00">SNMP::Base</text>
</a>
</g>
</g>
<!-- Node4&#45;&gt;Node3 -->
<g id="edge3_Node000003_Node000004" class="edge">
<title>Node4&#45;&gt;Node3</title>
<g id="a_edge3_Node000003_Node000004"><a xlink:title=" ">
<path fill="none" stroke="#63b8ff" d="M43.9,-232.13C34.25,-224.33 24.2,-214.01 19,-202 15.47,-193.84 15.91,-190.33 19,-182 26.35,-162.18 44.02,-144.62 56,-134.39"/>
<polygon fill="#63b8ff" stroke="#63b8ff" points="41.54,-234.73 51.64,-237.9 45.72,-229.12 41.54,-234.73"/>
</a>
</g>
</g>
<!-- Node5 -->
<g id="Node000005" class="node">
<title>Node5</title>
<g id="a_Node000005"><a xlink:href="class_s_n_m_p_1_1_length.html" target="_top" xlink:title="Length of a BER object.">
<polygon fill="white" stroke="#666666" points="107.88,-202 28.12,-202 28.12,-182 107.88,-182 107.88,-202"/>
<text text-anchor="middle" x="68" y="-188.5" font-family="Helvetica,sans-Serif" font-size="10.00">SNMP::Length</text>
</a>
</g>
</g>
<!-- Node4&#45;&gt;Node5 -->
<g id="edge5_Node000005_Node000004" class="edge">
<title>Node4&#45;&gt;Node5</title>
<g id="a_edge5_Node000005_Node000004"><a xlink:title=" ">
<path fill="none" stroke="#63b8ff" d="M68,-227.69C68,-218.97 68,-209.22 68,-202.28"/>
<polygon fill="#63b8ff" stroke="#63b8ff" points="64.5,-227.4 68,-237.4 71.5,-227.4 64.5,-227.4"/>
</a>
</g>
</g>
<!-- Node6 -->
<g id="Node000006" class="node">
<title>Node6</title>
<g id="a_Node000006"><a xlink:href="class_s_n_m_p_1_1_type.html" target="_top" xlink:title="Type of a BER object.">
<polygon fill="white" stroke="#666666" points="197.75,-202 126.25,-202 126.25,-182 197.75,-182 197.75,-202"/>
<text text-anchor="middle" x="162" y="-188.5" font-family="Helvetica,sans-Serif" font-size="10.00">SNMP::Type</text>
</a>
</g>
</g>
<!-- Node4&#45;&gt;Node6 -->
<g id="edge7_Node000006_Node000004" class="edge">
<title>Node4&#45;&gt;Node6</title>
<g id="a_edge7_Node000006_Node000004"><a xlink:title=" ">
<path fill="none" stroke="#63b8ff" d="M93.65,-232.99C110.36,-223.21 131.64,-210.77 145.98,-202.38"/>
<polygon fill="#63b8ff" stroke="#63b8ff" points="92.12,-229.83 85.25,-237.91 95.65,-235.88 92.12,-229.83"/>
</a>
</g>
</g>
<!-- Node5&#45;&gt;Node3 -->
<g id="edge4_Node000003_Node000005" class="edge">
<title>Node5&#45;&gt;Node3</title>
<g id="a_edge4_Node000003_Node000005"><a xlink:title=" ">
<path fill="none" stroke="#9a32cd" stroke-dasharray="5,2" d="M68,-170.28C68,-158.27 68,-143.74 68,-134.44"/>
<polygon fill="#9a32cd" stroke="#9a32cd" points="64.5,-170.03 68,-180.03 71.5,-170.03 64.5,-170.03"/>
</a>
</g>
<text text-anchor="middle" x="85.25" y="-154.5" font-family="Helvetica,sans-Serif" font-size="10.00" fill="grey"> _length</text>
</g>
<!-- Node6&#45;&gt;Node3 -->
<g id="edge6_Node000003_Node000006" class="edge">
<title>Node6&#45;&gt;Node3</title>
<g id="a_edge6_Node000003_Node000006"><a xlink:title=" ">
<path fill="none" stroke="#9a32cd" stroke-dasharray="5,2" d="M139.27,-175.04C121.19,-162.35 96.51,-145.02 81.44,-134.44"/>
<polygon fill="#9a32cd" stroke="#9a32cd" points="137.1,-177.79 147.29,-180.67 141.12,-172.06 137.1,-177.79"/>
</a>
</g>
<text text-anchor="middle" x="137.5" y="-154.5" font-family="Helvetica,sans-Serif" font-size="10.00" fill="grey"> _type</text>
</g>
</g>
</svg>
