<?xml version="1.0" encoding="UTF-8" standalone="no"?>
<!DOCTYPE svg PUBLIC "-//W3C//DTD SVG 1.1//EN"
 "http://www.w3.org/Graphics/SVG/1.1/DTD/svg11.dtd">
<!-- Generated by graphviz version 10.0.1 (20240210.2158)
 -->
<!-- Title: SNMP::Gauge32BER Pages: 1 -->
<svg width="121pt" height="208pt"
 viewBox="0.00 0.00 120.75 208.00" xmlns="http://www.w3.org/2000/svg" xmlns:xlink="http://www.w3.org/1999/xlink">
<g id="graph0" class="graph" transform="scale(1 1) rotate(0) translate(4 204)">
<title>SNMP::Gauge32BER</title>
<!-- Node1 -->
<g id="Node000001" class="node">
<title>Node1</title>
<g id="a_Node000001"><a xlink:title="BER object to handle 32&#45;bit gauge.">
<polygon fill="#999999" stroke="#666666" points="111.25,-20 1.5,-20 1.5,0 111.25,0 111.25,-20"/>
<text text-anchor="middle" x="56.38" y="-6.5" font-family="Helvetica,sans-Serif" font-size="10.00">SNMP::Gauge32BER</text>
</a>
</g>
</g>
<!-- Node2 -->
<g id="Node000002" class="node">
<title>Node2</title>
<g id="a_Node000002"><a xlink:href="class_s_n_m_p_1_1_u_integer_b_e_r.html" target="_top" xlink:title=" ">
<polygon fill="white" stroke="#666666" points="112.75,-88 0,-88 0,-56 112.75,-56 112.75,-88"/>
<text text-anchor="start" x="8" y="-74.5" font-family="Helvetica,sans-Serif" font-size="10.00">SNMP::UIntegerBER&lt;</text>
<text text-anchor="middle" x="56.38" y="-62.5" font-family="Helvetica,sans-Serif" font-size="10.00"> uint32_t &gt;</text>
</a>
</g>
</g>
<!-- Node2&#45;&gt;Node1 -->
<g id="edge1_Node000001_Node000002" class="edge">
<title>Node2&#45;&gt;Node1</title>
<g id="a_edge1_Node000001_Node000002"><a xlink:title=" ">
<path fill="none" stroke="#63b8ff" d="M56.38,-44.08C56.38,-35.6 56.38,-26.8 56.38,-20.41"/>
<polygon fill="#63b8ff" stroke="#63b8ff" points="52.88,-44.03 56.38,-54.03 59.88,-44.03 52.88,-44.03"/>
</a>
</g>
</g>
<!-- Node3 -->
<g id="Node000003" class="node">
<title>Node3</title>
<g id="a_Node000003"><a xlink:href="class_s_n_m_p_1_1_b_e_r.html" target="_top" xlink:title="BER object.">
<polygon fill="white" stroke="#666666" points="91.75,-144 21,-144 21,-124 91.75,-124 91.75,-144"/>
<text text-anchor="middle" x="56.38" y="-130.5" font-family="Helvetica,sans-Serif" font-size="10.00">SNMP::BER</text>
</a>
</g>
</g>
<!-- Node3&#45;&gt;Node2 -->
<g id="edge2_Node000002_Node000003" class="edge">
<title>Node3&#45;&gt;Node2</title>
<g id="a_edge2_Node000002_Node000003"><a xlink:title=" ">
<path fill="none" stroke="#63b8ff" d="M56.38,-112.31C56.38,-104.37 56.38,-95.46 56.38,-88.14"/>
<polygon fill="#63b8ff" stroke="#63b8ff" points="52.88,-112.11 56.38,-122.11 59.88,-112.11 52.88,-112.11"/>
</a>
</g>
</g>
<!-- Node4 -->
<g id="Node000004" class="node">
<title>Node4</title>
<g id="a_Node000004"><a xlink:href="class_s_n_m_p_1_1_base.html" target="_top" xlink:title="Base class for BER, Length and Type.">
<polygon fill="white" stroke="#666666" points="92.88,-200 19.88,-200 19.88,-180 92.88,-180 92.88,-200"/>
<text text-anchor="middle" x="56.38" y="-186.5" font-family="Helvetica,sans-Serif" font-size="10.00">SNMP::Base</text>
</a>
</g>
</g>
<!-- Node4&#45;&gt;Node3 -->
<g id="edge3_Node000003_Node000004" class="edge">
<title>Node4&#45;&gt;Node3</title>
<g id="a_edge3_Node000003_Node000004"><a xlink:title=" ">
<path fill="none" stroke="#63b8ff" d="M56.38,-168.13C56.38,-159.9 56.38,-150.85 56.38,-144.3"/>
<polygon fill="#63b8ff" stroke="#63b8ff" points="52.88,-168.08 56.38,-178.08 59.88,-168.08 52.88,-168.08"/>
</a>
</g>
</g>
</g>
</svg>
