<?xml version="1.0" encoding="UTF-8" standalone="no"?>
<!DOCTYPE svg PUBLIC "-//W3C//DTD SVG 1.1//EN"
 "http://www.w3.org/Graphics/SVG/1.1/DTD/svg11.dtd">
<!-- Generated by graphviz version 10.0.1 (20240210.2158)
 -->
<!-- Title: SNMP::Manager Pages: 1 -->
<!--zoomable 562 -->

<svg id="main" version="1.1" xmlns="http://www.w3.org/2000/svg" xmlns:xlink="http://www.w3.org/1999/xlink" xml:space="preserve" onload="init(evt)">

<style type="text/css"><![CDATA[
.node, .edge {opacity: 0.7;}
.node.selected, .edge.selected {opacity: 1;}
.edge:hover path { stroke: red; }
.edge:hover polygon { stroke: red; fill: red; }
]]></style>

<defs>
  <circle id="rim" cx="0" cy="0" r="7"/>
  <circle id="rim2" cx="0" cy="0" r="3.5"/>
  <g id="zoomPlus">
    <use xlink:href="#rim" fill="#404040"><set attributeName="fill" to="#808080" begin="zoomplus.mouseover" end="zoomplus.mouseout"/></use>
    <path d="M-4,0h8M0,-4v8" fill="none" stroke="white" stroke-width="1.5" pointer-events="none"/>
  </g>
  <g id="zoomMin">
    <use xlink:href="#rim" fill="#404040"><set attributeName="fill" to="#808080" begin="zoomminus.mouseover" end="zoomminus.mouseout"/></use>
    <path d="M-4,0h8" fill="none" stroke="white" stroke-width="1.5" pointer-events="none"/>
  </g>
  <g id="arrowUp" transform="translate(30 24)">
    <use xlink:href="#rim"/>
    <path pointer-events="none" fill="none" stroke="white" stroke-width="1.5" d="M0,-3.0v7 M-2.5,-0.5L0,-3.0L2.5,-0.5"/>
  </g>
  <g id="arrowRight" transform="rotate(90) translate(36 -43)">
    <use xlink:href="#rim"/>
    <path pointer-events="none" fill="none" stroke="white" stroke-width="1.5" d="M0,-3.0v7 M-2.5,-0.5L0,-3.0L2.5,-0.5"/>
  </g>
  <g id="arrowDown" transform="rotate(180) translate(-30 -48)">
    <use xlink:href="#rim"/>
    <path pointer-events="none" fill="none" stroke="white" stroke-width="1.5" d="M0,-3.0v7 M-2.5,-0.5L0,-3.0L2.5,-0.5"/>
  </g>
  <g id="arrowLeft" transform="rotate(270) translate(-36 17)">
    <use xlink:href="#rim"/>
    <path pointer-events="none" fill="none" stroke="white" stroke-width="1.5" d="M0,-3.0v7 M-2.5,-0.5L0,-3.0L2.5,-0.5"/>
  </g>
  <g id="resetDef">
    <use xlink:href="#rim2" fill="#404040"><set attributeName="fill" to="#808080" begin="reset.mouseover" end="reset.mouseout"/></use>
  </g>
</defs>
<script type="application/ecmascript">
var viewWidth = 363;
var viewHeight = 562;
var sectionId = 'dynsection-1';
</script>
<script type="application/ecmascript" xlink:href="svg.min.js"/>
<svg id="graph" class="graph">
<g id="viewport">
<title>SNMP::Manager</title>
<!-- Node1 -->
<g id="Node000001" class="node">
<title>Node1</title>
<g id="a_Node000001"><a xlink:title="SNMP manager.">
<polygon fill="#999999" stroke="#666666" points="161.75,-20 73.75,-20 73.75,0 161.75,0 161.75,-20"/>
<text text-anchor="middle" x="117.75" y="-6.5" font-family="Helvetica,sans-Serif" font-size="10.00">SNMP::Manager</text>
</a>
</g>
</g>
<!-- Node2 -->
<g id="Node000002" class="node">
<title>Node2</title>
<g id="a_Node000002"><a xlink:href="class_s_n_m_p_1_1_s_n_m_p.html" target="_top" xlink:title=" ">
<polygon fill="white" stroke="#666666" points="157.25,-77 78.25,-77 78.25,-57 157.25,-57 157.25,-77"/>
<text text-anchor="middle" x="117.75" y="-63.5" font-family="Helvetica,sans-Serif" font-size="10.00">SNMP::SNMP</text>
</a>
</g>
</g>
<!-- Node2&#45;&gt;Node1 -->
<g id="edge1_Node000001_Node000002" class="edge">
<title>Node2&#45;&gt;Node1</title>
<g id="a_edge1_Node000001_Node000002"><a xlink:title=" ">
<path fill="none" stroke="#63b8ff" d="M117.75,-45.69C117.75,-36.97 117.75,-27.22 117.75,-20.28"/>
<polygon fill="#63b8ff" stroke="#63b8ff" points="114.25,-45.4 117.75,-55.4 121.25,-45.4 114.25,-45.4"/>
</a>
</g>
</g>
<!-- Node3 -->
<g id="Node000003" class="node">
<title>Node3</title>
<g id="a_Node000003"><a xlink:href="class_s_n_m_p_1_1_message.html" target="_top" xlink:title="SNMP message object.">
<polygon fill="white" stroke="#666666" points="162.88,-145 72.62,-145 72.62,-125 162.88,-125 162.88,-145"/>
<text text-anchor="middle" x="117.75" y="-131.5" font-family="Helvetica,sans-Serif" font-size="10.00">SNMP::Message</text>
</a>
</g>
</g>
<!-- Node3&#45;&gt;Node2 -->
<g id="edge2_Node000002_Node000003" class="edge">
<title>Node3&#45;&gt;Node2</title>
<g id="a_edge2_Node000002_Node000003"><a xlink:title=" ">
<path fill="none" stroke="#9a32cd" stroke-dasharray="5,2" d="M117.75,-113.28C117.75,-101.27 117.75,-86.74 117.75,-77.44"/>
<polygon fill="#9a32cd" stroke="#9a32cd" points="114.25,-113.03 117.75,-123.03 121.25,-113.03 114.25,-113.03"/>
</a>
</g>
<text text-anchor="middle" x="147" y="-97.5" font-family="Helvetica,sans-Serif" font-size="10.00" fill="grey"> _onMessage</text>
</g>
<!-- Node4 -->
<g id="Node000004" class="node">
<title>Node4</title>
<g id="a_Node000004"><a xlink:href="class_s_n_m_p_1_1_sequence_b_e_r.html" target="_top" xlink:title="BER object to handle sequence of BER objects.">
<polygon fill="white" stroke="#666666" points="122.88,-281 8.62,-281 8.62,-261 122.88,-261 122.88,-281"/>
<text text-anchor="middle" x="65.75" y="-267.5" font-family="Helvetica,sans-Serif" font-size="10.00">SNMP::SequenceBER</text>
</a>
</g>
</g>
<!-- Node4&#45;&gt;Node3 -->
<g id="edge3_Node000003_Node000004" class="edge">
<title>Node4&#45;&gt;Node3</title>
<g id="a_edge3_Node000003_Node000004"><a xlink:title=" ">
<path fill="none" stroke="#63b8ff" d="M58.8,-249.77C54.48,-233.74 51.06,-211.12 58.75,-193 67.6,-172.15 88.21,-155.21 102.57,-145.37"/>
<polygon fill="#63b8ff" stroke="#63b8ff" points="55.38,-250.57 61.67,-259.1 62.08,-248.52 55.38,-250.57"/>
</a>
</g>
</g>
<!-- Node15 -->
<g id="Node000015" class="node">
<title>Node15</title>
<g id="a_Node000015"><a xlink:href="class_s_n_m_p_1_1_var_bind_list.html" target="_top" xlink:title="BER object to handle a list of variable bindings.">
<polygon fill="white" stroke="#666666" points="168.12,-213 67.38,-213 67.38,-193 168.12,-193 168.12,-213"/>
<text text-anchor="middle" x="117.75" y="-199.5" font-family="Helvetica,sans-Serif" font-size="10.00">SNMP::VarBindList</text>
</a>
</g>
</g>
<!-- Node4&#45;&gt;Node15 -->
<g id="edge18_Node000015_Node000004" class="edge">
<title>Node4&#45;&gt;Node15</title>
<g id="a_edge18_Node000015_Node000004"><a xlink:title=" ">
<path fill="none" stroke="#63b8ff" d="M80.31,-251.52C90.07,-239.13 102.52,-223.33 110.31,-213.44"/>
<polygon fill="#63b8ff" stroke="#63b8ff" points="77.58,-249.33 74.14,-259.35 83.08,-253.67 77.58,-249.33"/>
</a>
</g>
</g>
<!-- Node5 -->
<g id="Node000005" class="node">
<title>Node5</title>
<g id="a_Node000005"><a xlink:href="class_s_n_m_p_1_1_array_b_e_r.html" target="_top" xlink:title=" ">
<polygon fill="white" stroke="#666666" points="131.5,-361 0,-361 0,-329 131.5,-329 131.5,-361"/>
<text text-anchor="start" x="8" y="-347.5" font-family="Helvetica,sans-Serif" font-size="10.00">SNMP::ArrayBER&lt; SNMP</text>
<text text-anchor="middle" x="65.75" y="-335.5" font-family="Helvetica,sans-Serif" font-size="10.00">_CAPACITY &gt;</text>
</a>
</g>
</g>
<!-- Node5&#45;&gt;Node4 -->
<g id="edge4_Node000004_Node000005" class="edge">
<title>Node5&#45;&gt;Node4</title>
<g id="a_edge4_Node000004_Node000005"><a xlink:title=" ">
<path fill="none" stroke="#63b8ff" d="M65.75,-317.34C65.75,-304.7 65.75,-290.41 65.75,-281.31"/>
<polygon fill="#63b8ff" stroke="#63b8ff" points="62.25,-317.22 65.75,-327.22 69.25,-317.22 62.25,-317.22"/>
</a>
</g>
</g>
<!-- Node6 -->
<g id="Node000006" class="node">
<title>Node6</title>
<g id="a_Node000006"><a xlink:href="class_s_n_m_p_1_1_b_e_r.html" target="_top" xlink:title="BER object.">
<polygon fill="white" stroke="#666666" points="101.12,-429 30.38,-429 30.38,-409 101.12,-409 101.12,-429"/>
<text text-anchor="middle" x="65.75" y="-415.5" font-family="Helvetica,sans-Serif" font-size="10.00">SNMP::BER</text>
</a>
</g>
</g>
<!-- Node6&#45;&gt;Node5 -->
<g id="edge5_Node000005_Node000006" class="edge">
<title>Node6&#45;&gt;Node5</title>
<g id="a_edge5_Node000005_Node000006"><a xlink:title=" ">
<path fill="none" stroke="#63b8ff" d="M64.05,-397.17C63.93,-395.09 63.82,-393 63.75,-391 63.39,-381.15 63.86,-370.1 64.44,-361.41"/>
<polygon fill="#63b8ff" stroke="#63b8ff" points="60.55,-397.28 64.77,-407 67.53,-396.78 60.55,-397.28"/>
</a>
</g>
</g>
<!-- Node6&#45;&gt;Node5 -->
<g id="edge11_Node000005_Node000006" class="edge">
<title>Node6&#45;&gt;Node5</title>
<g id="a_edge11_Node000005_Node000006"><a xlink:title=" ">
<path fill="none" stroke="#9a32cd" stroke-dasharray="5,2" d="M65.75,-397.1C65.75,-385.71 65.75,-371.87 65.75,-361.47"/>
<polygon fill="#9a32cd" stroke="#9a32cd" points="62.25,-397.07 65.75,-407.07 69.25,-397.07 62.25,-397.07"/>
</a>
</g>
<text text-anchor="middle" x="79.25" y="-381.5" font-family="Helvetica,sans-Serif" font-size="10.00" fill="grey"> _bers</text>
</g>
<!-- Node7 -->
<g id="Node000007" class="node">
<title>Node7</title>
<g id="a_Node000007"><a xlink:href="class_s_n_m_p_1_1_base.html" target="_top" xlink:title="Base class for BER, Length and Type.">
<polygon fill="white" stroke="#666666" points="102.25,-554 29.25,-554 29.25,-534 102.25,-534 102.25,-554"/>
<text text-anchor="middle" x="65.75" y="-540.5" font-family="Helvetica,sans-Serif" font-size="10.00">SNMP::Base</text>
</a>
</g>
</g>
<!-- Node7&#45;&gt;Node6 -->
<g id="edge6_Node000006_Node000007" class="edge">
<title>Node7&#45;&gt;Node6</title>
<g id="a_edge6_Node000006_Node000007"><a xlink:title=" ">
<path fill="none" stroke="#63b8ff" d="M41.65,-527.13C32,-519.33 21.95,-509.01 16.75,-497 13.22,-488.84 13.66,-485.33 16.75,-477 24.1,-457.18 41.77,-439.62 53.75,-429.39"/>
<polygon fill="#63b8ff" stroke="#63b8ff" points="39.29,-529.73 49.39,-532.9 43.47,-524.12 39.29,-529.73"/>
</a>
</g>
</g>
<!-- Node8 -->
<g id="Node000008" class="node">
<title>Node8</title>
<g id="a_Node000008"><a xlink:href="class_s_n_m_p_1_1_length.html" target="_top" xlink:title="Length of a BER object.">
<polygon fill="white" stroke="#666666" points="105.62,-497 25.88,-497 25.88,-477 105.62,-477 105.62,-497"/>
<text text-anchor="middle" x="65.75" y="-483.5" font-family="Helvetica,sans-Serif" font-size="10.00">SNMP::Length</text>
</a>
</g>
</g>
<!-- Node7&#45;&gt;Node8 -->
<g id="edge8_Node000008_Node000007" class="edge">
<title>Node7&#45;&gt;Node8</title>
<g id="a_edge8_Node000008_Node000007"><a xlink:title=" ">
<path fill="none" stroke="#63b8ff" d="M65.75,-522.69C65.75,-513.97 65.75,-504.22 65.75,-497.28"/>
<polygon fill="#63b8ff" stroke="#63b8ff" points="62.25,-522.4 65.75,-532.4 69.25,-522.4 62.25,-522.4"/>
</a>
</g>
</g>
<!-- Node9 -->
<g id="Node000009" class="node">
<title>Node9</title>
<g id="a_Node000009"><a xlink:href="class_s_n_m_p_1_1_type.html" target="_top" xlink:title="Type of a BER object.">
<polygon fill="white" stroke="#666666" points="195.5,-497 124,-497 124,-477 195.5,-477 195.5,-497"/>
<text text-anchor="middle" x="159.75" y="-483.5" font-family="Helvetica,sans-Serif" font-size="10.00">SNMP::Type</text>
</a>
</g>
</g>
<!-- Node7&#45;&gt;Node9 -->
<g id="edge10_Node000009_Node000007" class="edge">
<title>Node7&#45;&gt;Node9</title>
<g id="a_edge10_Node000009_Node000007"><a xlink:title=" ">
<path fill="none" stroke="#63b8ff" d="M91.4,-527.99C108.11,-518.21 129.39,-505.77 143.73,-497.38"/>
<polygon fill="#63b8ff" stroke="#63b8ff" points="89.87,-524.83 83,-532.91 93.4,-530.88 89.87,-524.83"/>
</a>
</g>
</g>
<!-- Node8&#45;&gt;Node6 -->
<g id="edge7_Node000006_Node000008" class="edge">
<title>Node8&#45;&gt;Node6</title>
<g id="a_edge7_Node000006_Node000008"><a xlink:title=" ">
<path fill="none" stroke="#9a32cd" stroke-dasharray="5,2" d="M65.75,-465.28C65.75,-453.27 65.75,-438.74 65.75,-429.44"/>
<polygon fill="#9a32cd" stroke="#9a32cd" points="62.25,-465.03 65.75,-475.03 69.25,-465.03 62.25,-465.03"/>
</a>
</g>
<text text-anchor="middle" x="83" y="-449.5" font-family="Helvetica,sans-Serif" font-size="10.00" fill="grey"> _length</text>
</g>
<!-- Node9&#45;&gt;Node6 -->
<g id="edge9_Node000006_Node000009" class="edge">
<title>Node9&#45;&gt;Node6</title>
<g id="a_edge9_Node000006_Node000009"><a xlink:title=" ">
<path fill="none" stroke="#9a32cd" stroke-dasharray="5,2" d="M137.02,-470.04C118.94,-457.35 94.26,-440.02 79.19,-429.44"/>
<polygon fill="#9a32cd" stroke="#9a32cd" points="134.85,-472.79 145.04,-475.67 138.87,-467.06 134.85,-472.79"/>
</a>
</g>
<text text-anchor="middle" x="135.25" y="-449.5" font-family="Helvetica,sans-Serif" font-size="10.00" fill="grey"> _type</text>
</g>
<!-- Node10 -->
<g id="Node000010" class="node">
<title>Node10</title>
<g id="a_Node000010"><a xlink:href="class_s_n_m_p_1_1_p_d_u.html" target="_top" xlink:title="Helper class to handle PDU.">
<polygon fill="white" stroke="#666666" points="257.12,-213 186.38,-213 186.38,-193 257.12,-193 257.12,-213"/>
<text text-anchor="middle" x="221.75" y="-199.5" font-family="Helvetica,sans-Serif" font-size="10.00">SNMP::PDU</text>
</a>
</g>
</g>
<!-- Node10&#45;&gt;Node3 -->
<g id="edge12_Node000003_Node000010" class="edge">
<title>Node10&#45;&gt;Node3</title>
<g id="a_edge12_Node000003_Node000010"><a xlink:title=" ">
<path fill="none" stroke="#8b1a1a" d="M204.58,-185.07C196.55,-177.71 186.6,-169.34 176.75,-163 166.04,-156.11 153.29,-150.05 142.39,-145.42"/>
<polygon fill="#8b1a1a" stroke="#8b1a1a" points="201.96,-187.41 211.63,-191.75 206.78,-182.33 201.96,-187.41"/>
</a>
</g>
</g>
<!-- Node11 -->
<g id="Node000011" class="node">
<title>Node11</title>
<g id="a_Node000011"><a xlink:href="struct_s_n_m_p_1_1_p_d_u_1_1_generic.html" target="_top" xlink:title="Helper struct to handle generic PDU.">
<polygon fill="white" stroke="#666666" points="264,-281 153.5,-281 153.5,-261 264,-261 264,-281"/>
<text text-anchor="middle" x="208.75" y="-267.5" font-family="Helvetica,sans-Serif" font-size="10.00">SNMP::PDU::Generic</text>
</a>
</g>
</g>
<!-- Node11&#45;&gt;Node10 -->
<g id="edge13_Node000010_Node000011" class="edge">
<title>Node11&#45;&gt;Node10</title>
<g id="a_edge13_Node000010_Node000011"><a xlink:title=" ">
<path fill="none" stroke="#9a32cd" stroke-dasharray="5,2" d="M212.83,-249.28C215.2,-237.27 218.06,-222.74 219.89,-213.44"/>
<polygon fill="#9a32cd" stroke="#9a32cd" points="209.4,-248.57 210.91,-259.06 216.27,-249.92 209.4,-248.57"/>
</a>
</g>
<text text-anchor="middle" x="236.62" y="-233.5" font-family="Helvetica,sans-Serif" font-size="10.00" fill="grey"> _generic</text>
</g>
<!-- Node12 -->
<g id="Node000012" class="node">
<title>Node12</title>
<g id="a_Node000012"><a xlink:href="struct_s_n_m_p_1_1_error.html" target="_top" xlink:title="Helper struct to handle SNMP error.">
<polygon fill="white" stroke="#666666" points="226.5,-355 155,-355 155,-335 226.5,-335 226.5,-355"/>
<text text-anchor="middle" x="190.75" y="-341.5" font-family="Helvetica,sans-Serif" font-size="10.00">SNMP::Error</text>
</a>
</g>
</g>
<!-- Node12&#45;&gt;Node11 -->
<g id="edge14_Node000011_Node000012" class="edge">
<title>Node12&#45;&gt;Node11</title>
<g id="a_edge14_Node000011_Node000012"><a xlink:title=" ">
<path fill="none" stroke="#9a32cd" stroke-dasharray="5,2" d="M195.85,-323.6C199.34,-309.65 203.8,-291.82 206.45,-281.19"/>
<polygon fill="#9a32cd" stroke="#9a32cd" points="192.5,-322.57 193.47,-333.12 199.29,-324.27 192.5,-322.57"/>
</a>
</g>
<text text-anchor="middle" x="216.62" y="-301.5" font-family="Helvetica,sans-Serif" font-size="10.00" fill="grey"> _error</text>
</g>
<!-- Node13 -->
<g id="Node000013" class="node">
<title>Node13</title>
<g id="a_Node000013"><a xlink:href="struct_s_n_m_p_1_1_p_d_u_1_1_generic_1_1_bulk.html" target="_top" xlink:title="Helper struct to handle GetBulkRequest PDU.">
<polygon fill="white" stroke="#666666" points="355,-361 244.5,-361 244.5,-329 355,-329 355,-361"/>
<text text-anchor="start" x="252.5" y="-347.5" font-family="Helvetica,sans-Serif" font-size="10.00">SNMP::PDU::Generic</text>
<text text-anchor="middle" x="299.75" y="-335.5" font-family="Helvetica,sans-Serif" font-size="10.00">::Bulk</text>
</a>
</g>
</g>
<!-- Node13&#45;&gt;Node11 -->
<g id="edge15_Node000011_Node000013" class="edge">
<title>Node13&#45;&gt;Node11</title>
<g id="a_edge15_Node000011_Node000013"><a xlink:title=" ">
<path fill="none" stroke="#9a32cd" stroke-dasharray="5,2" d="M271.87,-321.94C254.65,-308.32 233.44,-291.54 220.52,-281.31"/>
<polygon fill="#9a32cd" stroke="#9a32cd" points="269.25,-324.33 279.26,-327.79 273.59,-318.84 269.25,-324.33"/>
</a>
</g>
<text text-anchor="middle" x="270.88" y="-301.5" font-family="Helvetica,sans-Serif" font-size="10.00" fill="grey"> _bulk</text>
</g>
<!-- Node14 -->
<g id="Node000014" class="node">
<title>Node14</title>
<g id="a_Node000014"><a xlink:href="struct_s_n_m_p_1_1_trap.html" target="_top" xlink:title="Helper struct to handle trap PDU.">
<polygon fill="white" stroke="#666666" points="351.38,-281 282.12,-281 282.12,-261 351.38,-261 351.38,-281"/>
<text text-anchor="middle" x="316.75" y="-267.5" font-family="Helvetica,sans-Serif" font-size="10.00">SNMP::Trap</text>
</a>
</g>
</g>
<!-- Node14&#45;&gt;Node10 -->
<g id="edge16_Node000010_Node000014" class="edge">
<title>Node14&#45;&gt;Node10</title>
<g id="a_edge16_Node000010_Node000014"><a xlink:title=" ">
<path fill="none" stroke="#9a32cd" stroke-dasharray="5,2" d="M294.01,-254.14C283.84,-247.05 271.7,-238.6 260.75,-231 252.36,-225.18 242.95,-218.66 235.47,-213.49"/>
<polygon fill="#9a32cd" stroke="#9a32cd" points="291.96,-256.98 302.16,-259.83 295.96,-251.24 291.96,-256.98"/>
</a>
</g>
<text text-anchor="middle" x="290.12" y="-233.5" font-family="Helvetica,sans-Serif" font-size="10.00" fill="grey"> _trap</text>
</g>
<!-- Node15&#45;&gt;Node3 -->
<g id="edge17_Node000003_Node000015" class="edge">
<title>Node15&#45;&gt;Node3</title>
<g id="a_edge17_Node000003_Node000015"><a xlink:title=" ">
<path fill="none" stroke="#9a32cd" stroke-dasharray="5,2" d="M117.75,-181.28C117.75,-169.27 117.75,-154.74 117.75,-145.44"/>
<polygon fill="#9a32cd" stroke="#9a32cd" points="114.25,-181.03 117.75,-191.03 121.25,-181.03 114.25,-181.03"/>
</a>
</g>
<text text-anchor="middle" x="145.5" y="-165.5" font-family="Helvetica,sans-Serif" font-size="10.00" fill="grey"> _varBindList</text>
</g>
</g>
</svg>

<g id="navigator" transform="translate(0 0)" fill="#404254">
  <rect fill="#f2f5e9" fill-opacity="0.5" stroke="#606060" stroke-width=".5" x="0" y="0" width="60" height="60"/>
  <use id="zoomplus" xlink:href="#zoomPlus" x="17" y="9" onmousedown="handleZoom(evt,'in')"/>
  <use id="zoomminus" xlink:href="#zoomMin" x="42" y="9" onmousedown="handleZoom(evt,'out')"/>
  <use id="reset" xlink:href="#resetDef" x="30" y="36" onmousedown="handleReset()"/>
   <use id="arrowup" xlink:href="#arrowUp" x="0" y="0" onmousedown="handlePan(0,-1)"/>
  <use id="arrowright" xlink:href="#arrowRight" x="0" y="0" onmousedown="handlePan(1,0)"/>
  <use id="arrowdown" xlink:href="#arrowDown" x="0" y="0" onmousedown="handlePan(0,1)"/>
  <use id="arrowleft" xlink:href="#arrowLeft" x="0" y="0" onmousedown="handlePan(-1,0)"/>
</g>
<svg viewBox="0 0 15 15" width="100%" height="30px" preserveAspectRatio="xMaxYMin meet">
 <g id="arrow_out" transform="scale(0.3 0.3)">
  <a xlink:href="class_s_n_m_p_1_1_manager__coll__graph_org.svg" target="_base">
   <rect id="button" ry="5" rx="5" y="6" x="6" height="38" width="38"
        fill="#f2f5e9" fill-opacity="0.5" stroke="#606060" stroke-width="1.0"/>
   <path id="arrow"
     d="M 11.500037,31.436501 C 11.940474,20.09759 22.043105,11.32322 32.158766,21.979434 L 37.068811,17.246167 C 37.068811,17.246167 37.088388,32 37.088388,32 L 22.160133,31.978069 C 22.160133,31.978069 26.997745,27.140456 26.997745,27.140456 C 18.528582,18.264221 13.291696,25.230495 11.500037,31.436501 z"
     style="fill:#404040;"/>
  </a>
 </g>
</svg>

<style type='text/css'>
<![CDATA[
[data-mouse-over-selected='false'] { opacity: 0.7; }
[data-mouse-over-selected='true']  { opacity: 1.0; }
]]>
</style>
<script type="application/ecmascript"><![CDATA[
document.addEventListener('DOMContentLoaded', (event) => {
  highlightEdges();
  highlightAdjacentNodes();
});
]]></script>
</svg>
