<?xml version="1.0" encoding="UTF-8" standalone="no"?>
<!DOCTYPE svg PUBLIC "-//W3C//DTD SVG 1.1//EN"
 "http://www.w3.org/Graphics/SVG/1.1/DTD/svg11.dtd">
<!-- Generated by graphviz version 10.0.1 (20240210.2158)
 -->
<!-- Title: SNMP::BER Pages: 1 -->
<svg width="674pt" height="555pt"
 viewBox="0.00 0.00 673.75 555.00" xmlns="http://www.w3.org/2000/svg" xmlns:xlink="http://www.w3.org/1999/xlink">
<g id="graph0" class="graph" transform="scale(1 1) rotate(0) translate(4 551)">
<title>SNMP::BER</title>
<!-- Node1 -->
<g id="Node000001" class="node">
<title>Node1</title>
<g id="a_Node000001"><a xlink:title="BER object.">
<polygon fill="#999999" stroke="#666666" points="179.75,-248 109,-248 109,-228 179.75,-228 179.75,-248"/>
<text text-anchor="middle" x="144.38" y="-234.5" font-family="Helvetica,sans-Serif" font-size="10.00">SNMP::BER</text>
</a>
</g>
</g>
<!-- Node3 -->
<g id="Node000003" class="node">
<title>Node3</title>
<g id="a_Node000003"><a xlink:href="class_s_n_m_p_1_1_array_b_e_r.html" target="_top" xlink:title=" ">
<polygon fill="white" stroke="#666666" points="349.12,-531 217.62,-531 217.62,-499 349.12,-499 349.12,-531"/>
<text text-anchor="start" x="225.62" y="-517.5" font-family="Helvetica,sans-Serif" font-size="10.00">SNMP::ArrayBER&lt; SNMP</text>
<text text-anchor="middle" x="283.38" y="-505.5" font-family="Helvetica,sans-Serif" font-size="10.00">_CAPACITY &gt;</text>
</a>
</g>
</g>
<!-- Node1&#45;&gt;Node3 -->
<g id="edge2_Node000001_Node000003" class="edge">
<title>Node1&#45;&gt;Node3</title>
<g id="a_edge2_Node000001_Node000003"><a xlink:title=" ">
<path fill="none" stroke="#63b8ff" d="M145.77,-259.61C147.73,-306.15 158.52,-417.01 215.75,-484 220.72,-489.82 227.02,-494.61 233.76,-498.55"/>
<polygon fill="#63b8ff" stroke="#63b8ff" points="149.27,-259.69 145.46,-249.8 142.27,-259.9 149.27,-259.69"/>
</a>
</g>
</g>
<!-- Node7 -->
<g id="Node000007" class="node">
<title>Node7</title>
<g id="a_Node000007"><a xlink:href="class_s_n_m_p_1_1_array_b_e_r.html" target="_top" xlink:title=" ">
<polygon fill="white" stroke="#666666" points="342,-475 224.75,-475 224.75,-455 342,-455 342,-475"/>
<text text-anchor="middle" x="283.38" y="-461.5" font-family="Helvetica,sans-Serif" font-size="10.00">SNMP::ArrayBER&lt; 2 &gt;</text>
</a>
</g>
</g>
<!-- Node1&#45;&gt;Node7 -->
<g id="edge6_Node000001_Node000007" class="edge">
<title>Node1&#45;&gt;Node7</title>
<g id="a_edge6_Node000001_Node000007"><a xlink:title=" ">
<path fill="none" stroke="#63b8ff" d="M147.78,-259.54C153.19,-298.65 169.7,-382.02 215.75,-433 224.44,-442.62 236.64,-449.63 248.23,-454.59"/>
<polygon fill="#63b8ff" stroke="#63b8ff" points="151.27,-259.27 146.55,-249.79 144.33,-260.14 151.27,-259.27"/>
</a>
</g>
</g>
<!-- Node9 -->
<g id="Node000009" class="node">
<title>Node9</title>
<g id="a_Node000009"><a xlink:href="class_s_n_m_p_1_1_u_integer_b_e_r.html" target="_top" xlink:title=" ">
<polygon fill="white" stroke="#666666" points="339.75,-424 227,-424 227,-392 339.75,-392 339.75,-424"/>
<text text-anchor="start" x="235" y="-410.5" font-family="Helvetica,sans-Serif" font-size="10.00">SNMP::UIntegerBER&lt;</text>
<text text-anchor="middle" x="283.38" y="-398.5" font-family="Helvetica,sans-Serif" font-size="10.00"> uint32_t &gt;</text>
</a>
</g>
</g>
<!-- Node1&#45;&gt;Node9 -->
<g id="edge8_Node000001_Node000009" class="edge">
<title>Node1&#45;&gt;Node9</title>
<g id="a_edge8_Node000001_Node000009"><a xlink:title=" ">
<path fill="none" stroke="#63b8ff" d="M150.32,-259.27C158.64,-290.54 178.32,-348.89 215.75,-383 219.31,-386.25 223.33,-389.08 227.59,-391.56"/>
<polygon fill="#63b8ff" stroke="#63b8ff" points="153.78,-258.69 147.96,-249.84 146.99,-260.39 153.78,-258.69"/>
</a>
</g>
</g>
<!-- Node13 -->
<g id="Node000013" class="node">
<title>Node13</title>
<g id="a_Node000013"><a xlink:href="class_s_n_m_p_1_1_u_integer_b_e_r.html" target="_top" xlink:title=" ">
<polygon fill="white" stroke="#666666" points="339.75,-374 227,-374 227,-342 339.75,-342 339.75,-374"/>
<text text-anchor="start" x="235" y="-360.5" font-family="Helvetica,sans-Serif" font-size="10.00">SNMP::UIntegerBER&lt;</text>
<text text-anchor="middle" x="283.38" y="-348.5" font-family="Helvetica,sans-Serif" font-size="10.00"> uint64_t &gt;</text>
</a>
</g>
</g>
<!-- Node1&#45;&gt;Node13 -->
<g id="edge12_Node000001_Node000013" class="edge">
<title>Node1&#45;&gt;Node13</title>
<g id="a_edge12_Node000001_Node000013"><a xlink:title=" ">
<path fill="none" stroke="#63b8ff" d="M155.8,-258.33C167.68,-279.65 188.95,-312.79 215.75,-333 219.99,-336.2 224.69,-339.03 229.57,-341.52"/>
<polygon fill="#63b8ff" stroke="#63b8ff" points="159,-256.88 151.19,-249.73 152.83,-260.19 159,-256.88"/>
</a>
</g>
</g>
<!-- Node15 -->
<g id="Node000015" class="node">
<title>Node15</title>
<g id="a_Node000015"><a xlink:href="class_s_n_m_p_1_1_array_b_e_r.html" target="_top" xlink:title="Base class for BER array of BERs.">
<polygon fill="white" stroke="#666666" points="342.75,-324 224,-324 224,-304 342.75,-304 342.75,-324"/>
<text text-anchor="middle" x="283.38" y="-310.5" font-family="Helvetica,sans-Serif" font-size="10.00">SNMP::ArrayBER&lt; U &gt;</text>
</a>
</g>
</g>
<!-- Node1&#45;&gt;Node15 -->
<g id="edge14_Node000001_Node000015" class="edge">
<title>Node1&#45;&gt;Node15</title>
<g id="a_edge14_Node000001_Node000015"><a xlink:title=" ">
<path fill="none" stroke="#63b8ff" d="M163.67,-256.32C177.07,-268.81 196.25,-284.87 215.75,-295 222.26,-298.38 229.45,-301.23 236.63,-303.61"/>
<polygon fill="#63b8ff" stroke="#63b8ff" points="166.11,-253.81 156.47,-249.4 161.26,-258.86 166.11,-253.81"/>
</a>
</g>
</g>
<!-- Node16 -->
<g id="Node000016" class="node">
<title>Node16</title>
<g id="a_Node000016"><a xlink:href="class_s_n_m_p_1_1_boolean_b_e_r.html" target="_top" xlink:title="BER object to handle boolean.">
<polygon fill="white" stroke="#666666" points="336.38,-286 230.38,-286 230.38,-266 336.38,-266 336.38,-286"/>
<text text-anchor="middle" x="283.38" y="-272.5" font-family="Helvetica,sans-Serif" font-size="10.00">SNMP::BooleanBER</text>
</a>
</g>
</g>
<!-- Node1&#45;&gt;Node16 -->
<g id="edge15_Node000001_Node000016" class="edge">
<title>Node1&#45;&gt;Node16</title>
<g id="a_edge15_Node000001_Node000016"><a xlink:title=" ">
<path fill="none" stroke="#63b8ff" d="M190.56,-250.53C208.18,-255.42 228.13,-260.96 244.93,-265.61"/>
<polygon fill="#63b8ff" stroke="#63b8ff" points="191.98,-247.29 181.4,-247.99 190.11,-254.04 191.98,-247.29"/>
</a>
</g>
</g>
<!-- Node17 -->
<g id="Node000017" class="node">
<title>Node17</title>
<g id="a_Node000017"><a xlink:href="class_s_n_m_p_1_1_float_b_e_r.html" target="_top" xlink:title="BER object to handle float.">
<polygon fill="white" stroke="#666666" points="329.62,-248 237.12,-248 237.12,-228 329.62,-228 329.62,-248"/>
<text text-anchor="middle" x="283.38" y="-234.5" font-family="Helvetica,sans-Serif" font-size="10.00">SNMP::FloatBER</text>
</a>
</g>
</g>
<!-- Node1&#45;&gt;Node17 -->
<g id="edge16_Node000001_Node000017" class="edge">
<title>Node1&#45;&gt;Node17</title>
<g id="a_edge16_Node000001_Node000017"><a xlink:title=" ">
<path fill="none" stroke="#63b8ff" d="M191.28,-238C205.9,-238 222.07,-238 236.68,-238"/>
<polygon fill="#63b8ff" stroke="#63b8ff" points="191.46,-234.5 181.46,-238 191.46,-241.5 191.46,-234.5"/>
</a>
</g>
</g>
<!-- Node19 -->
<g id="Node000019" class="node">
<title>Node19</title>
<g id="a_Node000019"><a xlink:href="class_s_n_m_p_1_1_integer_b_e_r.html" target="_top" xlink:title="BER object to handle integer.">
<polygon fill="white" stroke="#666666" points="333.38,-210 233.38,-210 233.38,-190 333.38,-190 333.38,-210"/>
<text text-anchor="middle" x="283.38" y="-196.5" font-family="Helvetica,sans-Serif" font-size="10.00">SNMP::IntegerBER</text>
</a>
</g>
</g>
<!-- Node1&#45;&gt;Node19 -->
<g id="edge18_Node000001_Node000019" class="edge">
<title>Node1&#45;&gt;Node19</title>
<g id="a_edge18_Node000001_Node000019"><a xlink:title=" ">
<path fill="none" stroke="#63b8ff" d="M190.56,-225.47C208.18,-220.58 228.13,-215.04 244.93,-210.39"/>
<polygon fill="#63b8ff" stroke="#63b8ff" points="190.11,-221.96 181.4,-228.01 191.98,-228.71 190.11,-221.96"/>
</a>
</g>
</g>
<!-- Node20 -->
<g id="Node000020" class="node">
<title>Node20</title>
<g id="a_Node000020"><a xlink:href="class_s_n_m_p_1_1_null_b_e_r.html" target="_top" xlink:title="BER object to handle null.">
<polygon fill="white" stroke="#666666" points="327,-172 239.75,-172 239.75,-152 327,-152 327,-172"/>
<text text-anchor="middle" x="283.38" y="-158.5" font-family="Helvetica,sans-Serif" font-size="10.00">SNMP::NullBER</text>
</a>
</g>
</g>
<!-- Node1&#45;&gt;Node20 -->
<g id="edge19_Node000001_Node000020" class="edge">
<title>Node1&#45;&gt;Node20</title>
<g id="a_edge19_Node000001_Node000020"><a xlink:title=" ">
<path fill="none" stroke="#63b8ff" d="M163.67,-219.68C177.07,-207.19 196.25,-191.13 215.75,-181 223.11,-177.17 231.35,-174.03 239.45,-171.48"/>
<polygon fill="#63b8ff" stroke="#63b8ff" points="161.26,-217.14 156.47,-226.6 166.11,-222.19 161.26,-217.14"/>
</a>
</g>
</g>
<!-- Node24 -->
<g id="Node000024" class="node">
<title>Node24</title>
<g id="a_Node000024"><a xlink:href="class_s_n_m_p_1_1_object_identifier_b_e_r.html" target="_top" xlink:title="BER object to handle OID.">
<polygon fill="white" stroke="#666666" points="351,-134 215.75,-134 215.75,-114 351,-114 351,-134"/>
<text text-anchor="middle" x="283.38" y="-120.5" font-family="Helvetica,sans-Serif" font-size="10.00">SNMP::ObjectIdentifierBER</text>
</a>
</g>
</g>
<!-- Node1&#45;&gt;Node24 -->
<g id="edge23_Node000001_Node000024" class="edge">
<title>Node1&#45;&gt;Node24</title>
<g id="a_edge23_Node000001_Node000024"><a xlink:title=" ">
<path fill="none" stroke="#63b8ff" d="M155.31,-217.57C166.88,-195.9 188.01,-162.2 215.75,-143 220.69,-139.58 226.25,-136.77 231.99,-134.46"/>
<polygon fill="#63b8ff" stroke="#63b8ff" points="152.27,-215.82 150.84,-226.32 158.51,-219.01 152.27,-215.82"/>
</a>
</g>
</g>
<!-- Node25 -->
<g id="Node000025" class="node">
<title>Node25</title>
<g id="a_Node000025"><a xlink:href="class_s_n_m_p_1_1_octet_string_b_e_r.html" target="_top" xlink:title="BER object to handle octet string.">
<polygon fill="white" stroke="#666666" points="343.5,-96 223.25,-96 223.25,-76 343.5,-76 343.5,-96"/>
<text text-anchor="middle" x="283.38" y="-82.5" font-family="Helvetica,sans-Serif" font-size="10.00">SNMP::OctetStringBER</text>
</a>
</g>
</g>
<!-- Node1&#45;&gt;Node25 -->
<g id="edge24_Node000001_Node000025" class="edge">
<title>Node1&#45;&gt;Node25</title>
<g id="a_edge24_Node000001_Node000025"><a xlink:title=" ">
<path fill="none" stroke="#63b8ff" d="M150.87,-216.84C159.62,-187.39 179.54,-134.34 215.75,-105 220.05,-101.52 224.95,-98.67 230.11,-96.35"/>
<polygon fill="#63b8ff" stroke="#63b8ff" points="147.61,-215.52 148.28,-226.09 154.35,-217.4 147.61,-215.52"/>
</a>
</g>
</g>
<!-- Node27 -->
<g id="Node000027" class="node">
<title>Node27</title>
<g id="a_Node000027"><a xlink:href="class_s_n_m_p_1_1_opaque_b_e_r.html" target="_top" xlink:title="BER object to handle embedded BER object.">
<polygon fill="white" stroke="#666666" points="335.62,-58 231.12,-58 231.12,-38 335.62,-38 335.62,-58"/>
<text text-anchor="middle" x="283.38" y="-44.5" font-family="Helvetica,sans-Serif" font-size="10.00">SNMP::OpaqueBER</text>
</a>
</g>
</g>
<!-- Node1&#45;&gt;Node27 -->
<g id="edge26_Node000001_Node000027" class="edge">
<title>Node1&#45;&gt;Node27</title>
<g id="a_edge26_Node000001_Node000027"><a xlink:title=" ">
<path fill="none" stroke="#63b8ff" d="M148.12,-216.64C153.91,-180.47 170.77,-107.18 215.75,-67 220.15,-63.07 225.3,-59.95 230.76,-57.48"/>
<polygon fill="#63b8ff" stroke="#63b8ff" points="144.69,-215.87 146.72,-226.27 151.62,-216.88 144.69,-215.87"/>
</a>
</g>
</g>
<!-- Node28 -->
<g id="Node000028" class="node">
<title>Node28</title>
<g id="a_Node000028"><a xlink:href="class_s_n_m_p_1_1_u_integer_b_e_r.html" target="_top" xlink:title="Base class for unsigned integer BER.">
<polygon fill="white" stroke="#666666" points="348.38,-20 218.38,-20 218.38,0 348.38,0 348.38,-20"/>
<text text-anchor="middle" x="283.38" y="-6.5" font-family="Helvetica,sans-Serif" font-size="10.00">SNMP::UIntegerBER&lt; T &gt;</text>
</a>
</g>
</g>
<!-- Node1&#45;&gt;Node28 -->
<g id="edge27_Node000001_Node000028" class="edge">
<title>Node1&#45;&gt;Node28</title>
<g id="a_edge27_Node000001_Node000028"><a xlink:title=" ">
<path fill="none" stroke="#63b8ff" d="M146.31,-216.14C149.31,-173.8 162.03,-80.26 215.75,-29 219.32,-25.6 223.45,-22.79 227.88,-20.49"/>
<polygon fill="#63b8ff" stroke="#63b8ff" points="142.82,-215.84 145.74,-226.03 149.81,-216.24 142.82,-215.84"/>
</a>
</g>
</g>
<!-- Node2 -->
<g id="Node000002" class="node">
<title>Node2</title>
<g id="a_Node000002"><a xlink:href="class_s_n_m_p_1_1_base.html" target="_top" xlink:title="Base class for BER, Length and Type.">
<polygon fill="white" stroke="#666666" points="73,-248 0,-248 0,-228 73,-228 73,-248"/>
<text text-anchor="middle" x="36.5" y="-234.5" font-family="Helvetica,sans-Serif" font-size="10.00">SNMP::Base</text>
</a>
</g>
</g>
<!-- Node2&#45;&gt;Node1 -->
<g id="edge1_Node000001_Node000002" class="edge">
<title>Node2&#45;&gt;Node1</title>
<g id="a_edge1_Node000001_Node000002"><a xlink:title=" ">
<path fill="none" stroke="#63b8ff" d="M84.58,-238C92.67,-238 100.95,-238 108.64,-238"/>
<polygon fill="#63b8ff" stroke="#63b8ff" points="84.86,-234.5 74.86,-238 84.86,-241.5 84.86,-234.5"/>
</a>
</g>
</g>
<!-- Node4 -->
<g id="Node000004" class="node">
<title>Node4</title>
<g id="a_Node000004"><a xlink:href="class_s_n_m_p_1_1_sequence_b_e_r.html" target="_top" xlink:title="BER object to handle sequence of BER objects.">
<polygon fill="white" stroke="#666666" points="515.12,-528 400.88,-528 400.88,-508 515.12,-508 515.12,-528"/>
<text text-anchor="middle" x="458" y="-514.5" font-family="Helvetica,sans-Serif" font-size="10.00">SNMP::SequenceBER</text>
</a>
</g>
</g>
<!-- Node3&#45;&gt;Node4 -->
<g id="edge3_Node000003_Node000004" class="edge">
<title>Node3&#45;&gt;Node4</title>
<g id="a_edge3_Node000003_Node000004"><a xlink:title=" ">
<path fill="none" stroke="#63b8ff" d="M360.4,-516.32C373.92,-516.56 387.79,-516.8 400.65,-517.02"/>
<polygon fill="#63b8ff" stroke="#63b8ff" points="360.72,-512.83 350.66,-516.15 360.6,-519.83 360.72,-512.83"/>
</a>
</g>
</g>
<!-- Node5 -->
<g id="Node000005" class="node">
<title>Node5</title>
<g id="a_Node000005"><a xlink:href="class_s_n_m_p_1_1_message.html" target="_top" xlink:title="SNMP message object.">
<polygon fill="white" stroke="#666666" points="660.5,-547 570.25,-547 570.25,-527 660.5,-527 660.5,-547"/>
<text text-anchor="middle" x="615.38" y="-533.5" font-family="Helvetica,sans-Serif" font-size="10.00">SNMP::Message</text>
</a>
</g>
</g>
<!-- Node4&#45;&gt;Node5 -->
<g id="edge4_Node000004_Node000005" class="edge">
<title>Node4&#45;&gt;Node5</title>
<g id="a_edge4_Node000004_Node000005"><a xlink:title=" ">
<path fill="none" stroke="#63b8ff" d="M526.59,-526.27C541.22,-528.05 556.34,-529.9 569.81,-531.55"/>
<polygon fill="#63b8ff" stroke="#63b8ff" points="527.39,-522.84 517.04,-525.1 526.54,-529.78 527.39,-522.84"/>
</a>
</g>
</g>
<!-- Node6 -->
<g id="Node000006" class="node">
<title>Node6</title>
<g id="a_Node000006"><a xlink:href="class_s_n_m_p_1_1_var_bind_list.html" target="_top" xlink:title="BER object to handle a list of variable bindings.">
<polygon fill="white" stroke="#666666" points="665.75,-509 565,-509 565,-489 665.75,-489 665.75,-509"/>
<text text-anchor="middle" x="615.38" y="-495.5" font-family="Helvetica,sans-Serif" font-size="10.00">SNMP::VarBindList</text>
</a>
</g>
</g>
<!-- Node4&#45;&gt;Node6 -->
<g id="edge5_Node000004_Node000006" class="edge">
<title>Node4&#45;&gt;Node6</title>
<g id="a_edge5_Node000004_Node000006"><a xlink:title=" ">
<path fill="none" stroke="#63b8ff" d="M526.61,-509.73C539.36,-508.17 552.48,-506.57 564.56,-505.09"/>
<polygon fill="#63b8ff" stroke="#63b8ff" points="526.54,-506.22 517.04,-510.9 527.39,-513.16 526.54,-506.22"/>
</a>
</g>
</g>
<!-- Node8 -->
<g id="Node000008" class="node">
<title>Node8</title>
<g id="a_Node000008"><a xlink:href="class_s_n_m_p_1_1_var_bind.html" target="_top" xlink:title="BER object to handle variable binding.">
<polygon fill="white" stroke="#666666" points="500.5,-490 415.5,-490 415.5,-470 500.5,-470 500.5,-490"/>
<text text-anchor="middle" x="458" y="-476.5" font-family="Helvetica,sans-Serif" font-size="10.00">SNMP::VarBind</text>
</a>
</g>
</g>
<!-- Node7&#45;&gt;Node8 -->
<g id="edge7_Node000007_Node000008" class="edge">
<title>Node7&#45;&gt;Node8</title>
<g id="a_edge7_Node000007_Node000008"><a xlink:title=" ">
<path fill="none" stroke="#63b8ff" d="M353.7,-471.02C374.46,-472.83 396.59,-474.75 415.02,-476.35"/>
<polygon fill="#63b8ff" stroke="#63b8ff" points="354.11,-467.55 343.84,-470.17 353.5,-474.52 354.11,-467.55"/>
</a>
</g>
</g>
<!-- Node10 -->
<g id="Node000010" class="node">
<title>Node10</title>
<g id="a_Node000010"><a xlink:href="class_s_n_m_p_1_1_counter32_b_e_r.html" target="_top" xlink:title="BER object to handle 32&#45;bit counter.">
<polygon fill="white" stroke="#666666" points="515.5,-452 400.5,-452 400.5,-432 515.5,-432 515.5,-452"/>
<text text-anchor="middle" x="458" y="-438.5" font-family="Helvetica,sans-Serif" font-size="10.00">SNMP::Counter32BER</text>
</a>
</g>
</g>
<!-- Node9&#45;&gt;Node10 -->
<g id="edge9_Node000009_Node000010" class="edge">
<title>Node9&#45;&gt;Node10</title>
<g id="a_edge9_Node000009_Node000010"><a xlink:title=" ">
<path fill="none" stroke="#63b8ff" d="M351.22,-421.17C368.68,-424.6 387.25,-428.26 403.89,-431.54"/>
<polygon fill="#63b8ff" stroke="#63b8ff" points="351.92,-417.74 341.43,-419.24 350.56,-424.6 351.92,-417.74"/>
</a>
</g>
</g>
<!-- Node11 -->
<g id="Node000011" class="node">
<title>Node11</title>
<g id="a_Node000011"><a xlink:href="class_s_n_m_p_1_1_gauge32_b_e_r.html" target="_top" xlink:title="BER object to handle 32&#45;bit gauge.">
<polygon fill="white" stroke="#666666" points="512.88,-414 403.12,-414 403.12,-394 512.88,-394 512.88,-414"/>
<text text-anchor="middle" x="458" y="-400.5" font-family="Helvetica,sans-Serif" font-size="10.00">SNMP::Gauge32BER</text>
</a>
</g>
</g>
<!-- Node9&#45;&gt;Node11 -->
<g id="edge10_Node000009_Node000011" class="edge">
<title>Node9&#45;&gt;Node11</title>
<g id="a_edge10_Node000009_Node000011"><a xlink:title=" ">
<path fill="none" stroke="#63b8ff" d="M351,-406.46C368.11,-406.06 386.31,-405.64 402.71,-405.26"/>
<polygon fill="#63b8ff" stroke="#63b8ff" points="351.37,-402.95 341.46,-406.68 351.54,-409.94 351.37,-402.95"/>
</a>
</g>
</g>
<!-- Node12 -->
<g id="Node000012" class="node">
<title>Node12</title>
<g id="a_Node000012"><a xlink:href="class_s_n_m_p_1_1_time_ticks_b_e_r.html" target="_top" xlink:title="BER object to handle time.">
<polygon fill="white" stroke="#666666" points="515.5,-376 400.5,-376 400.5,-356 515.5,-356 515.5,-376"/>
<text text-anchor="middle" x="458" y="-362.5" font-family="Helvetica,sans-Serif" font-size="10.00">SNMP::TimeTicksBER</text>
</a>
</g>
</g>
<!-- Node9&#45;&gt;Node12 -->
<g id="edge11_Node000009_Node000012" class="edge">
<title>Node9&#45;&gt;Node12</title>
<g id="a_edge11_Node000009_Node000012"><a xlink:title=" ">
<path fill="none" stroke="#63b8ff" d="M351.11,-391.76C372.18,-386.64 394.89,-381.11 413.85,-376.5"/>
<polygon fill="#63b8ff" stroke="#63b8ff" points="350.3,-388.36 341.42,-394.12 351.96,-395.16 350.3,-388.36"/>
</a>
</g>
</g>
<!-- Node14 -->
<g id="Node000014" class="node">
<title>Node14</title>
<g id="a_Node000014"><a xlink:href="class_s_n_m_p_1_1_counter64_b_e_r.html" target="_top" xlink:title="BER object to handle 64&#45;bit counter.">
<polygon fill="white" stroke="#666666" points="515.5,-338 400.5,-338 400.5,-318 515.5,-318 515.5,-338"/>
<text text-anchor="middle" x="458" y="-324.5" font-family="Helvetica,sans-Serif" font-size="10.00">SNMP::Counter64BER</text>
</a>
</g>
</g>
<!-- Node13&#45;&gt;Node14 -->
<g id="edge13_Node000013_Node000014" class="edge">
<title>Node13&#45;&gt;Node14</title>
<g id="a_edge13_Node000013_Node000014"><a xlink:title=" ">
<path fill="none" stroke="#63b8ff" d="M350.97,-346.43C367.17,-343.61 384.35,-340.63 400.05,-337.9"/>
<polygon fill="#63b8ff" stroke="#63b8ff" points="350.69,-342.92 341.44,-348.08 351.89,-349.82 350.69,-342.92"/>
</a>
</g>
</g>
<!-- Node18 -->
<g id="Node000018" class="node">
<title>Node18</title>
<g id="a_Node000018"><a xlink:href="class_s_n_m_p_1_1_opaque_float_b_e_r.html" target="_top" xlink:title="BER object to handle float.">
<polygon fill="white" stroke="#666666" points="521.12,-248 394.88,-248 394.88,-228 521.12,-228 521.12,-248"/>
<text text-anchor="middle" x="458" y="-234.5" font-family="Helvetica,sans-Serif" font-size="10.00">SNMP::OpaqueFloatBER</text>
</a>
</g>
</g>
<!-- Node17&#45;&gt;Node18 -->
<g id="edge17_Node000017_Node000018" class="edge">
<title>Node17&#45;&gt;Node18</title>
<g id="a_edge17_Node000017_Node000018"><a xlink:title=" ">
<path fill="none" stroke="#63b8ff" d="M341.21,-238C358.25,-238 377.04,-238 394.43,-238"/>
<polygon fill="#63b8ff" stroke="#63b8ff" points="341.24,-234.5 331.24,-238 341.24,-241.5 341.24,-234.5"/>
</a>
</g>
</g>
<!-- Node21 -->
<g id="Node000021" class="node">
<title>Node21</title>
<g id="a_Node000021"><a xlink:href="class_s_n_m_p_1_1_end_of_m_i_b_view_b_e_r.html" target="_top" xlink:title="BER object to handle endOfMIBView exception.">
<polygon fill="white" stroke="#666666" points="526,-210 390,-210 390,-190 526,-190 526,-210"/>
<text text-anchor="middle" x="458" y="-196.5" font-family="Helvetica,sans-Serif" font-size="10.00">SNMP::EndOfMIBViewBER</text>
</a>
</g>
</g>
<!-- Node20&#45;&gt;Node21 -->
<g id="edge20_Node000020_Node000021" class="edge">
<title>Node20&#45;&gt;Node21</title>
<g id="a_edge20_Node000020_Node000021"><a xlink:title=" ">
<path fill="none" stroke="#63b8ff" d="M338.69,-173.96C361.43,-178.96 387.63,-184.73 409.58,-189.56"/>
<polygon fill="#63b8ff" stroke="#63b8ff" points="339.49,-170.55 328.97,-171.82 337.98,-177.38 339.49,-170.55"/>
</a>
</g>
</g>
<!-- Node22 -->
<g id="Node000022" class="node">
<title>Node22</title>
<g id="a_Node000022"><a xlink:href="class_s_n_m_p_1_1_no_such_instance_b_e_r.html" target="_top" xlink:title="BER object to handle noSuchInstance exception.">
<polygon fill="white" stroke="#666666" points="529,-172 387,-172 387,-152 529,-152 529,-172"/>
<text text-anchor="middle" x="458" y="-158.5" font-family="Helvetica,sans-Serif" font-size="10.00">SNMP::NoSuchInstanceBER</text>
</a>
</g>
</g>
<!-- Node20&#45;&gt;Node22 -->
<g id="edge21_Node000020_Node000022" class="edge">
<title>Node20&#45;&gt;Node22</title>
<g id="a_edge21_Node000020_Node000022"><a xlink:title=" ">
<path fill="none" stroke="#63b8ff" d="M338.76,-162C353.93,-162 370.64,-162 386.6,-162"/>
<polygon fill="#63b8ff" stroke="#63b8ff" points="339,-158.5 329,-162 339,-165.5 339,-158.5"/>
</a>
</g>
</g>
<!-- Node23 -->
<g id="Node000023" class="node">
<title>Node23</title>
<g id="a_Node000023"><a xlink:href="class_s_n_m_p_1_1_no_such_object_b_e_r.html" target="_top" xlink:title="BER object to handle noSuchObject exception.">
<polygon fill="white" stroke="#666666" points="524.88,-134 391.12,-134 391.12,-114 524.88,-114 524.88,-134"/>
<text text-anchor="middle" x="458" y="-120.5" font-family="Helvetica,sans-Serif" font-size="10.00">SNMP::NoSuchObjectBER</text>
</a>
</g>
</g>
<!-- Node20&#45;&gt;Node23 -->
<g id="edge22_Node000020_Node000023" class="edge">
<title>Node20&#45;&gt;Node23</title>
<g id="a_edge22_Node000020_Node000023"><a xlink:title=" ">
<path fill="none" stroke="#63b8ff" d="M338.69,-150.04C361.43,-145.04 387.63,-139.27 409.58,-134.44"/>
<polygon fill="#63b8ff" stroke="#63b8ff" points="337.98,-146.62 328.97,-152.18 339.49,-153.45 337.98,-146.62"/>
</a>
</g>
</g>
<!-- Node26 -->
<g id="Node000026" class="node">
<title>Node26</title>
<g id="a_Node000026"><a xlink:href="class_s_n_m_p_1_1_i_p_address_b_e_r.html" target="_top" xlink:title="BER object to handle IP address.">
<polygon fill="white" stroke="#666666" points="515.88,-96 400.12,-96 400.12,-76 515.88,-76 515.88,-96"/>
<text text-anchor="middle" x="458" y="-82.5" font-family="Helvetica,sans-Serif" font-size="10.00">SNMP::IPAddressBER</text>
</a>
</g>
</g>
<!-- Node25&#45;&gt;Node26 -->
<g id="edge25_Node000025_Node000026" class="edge">
<title>Node25&#45;&gt;Node26</title>
<g id="a_edge25_Node000025_Node000026"><a xlink:title=" ">
<path fill="none" stroke="#63b8ff" d="M355.02,-86C369.93,-86 385.48,-86 399.81,-86"/>
<polygon fill="#63b8ff" stroke="#63b8ff" points="355.3,-82.5 345.3,-86 355.3,-89.5 355.3,-82.5"/>
</a>
</g>
</g>
</g>
</svg>
