<?xml version="1.0" encoding="UTF-8" standalone="no"?>
<!DOCTYPE svg PUBLIC "-//W3C//DTD SVG 1.1//EN"
 "http://www.w3.org/Graphics/SVG/1.1/DTD/svg11.dtd">
<!-- Generated by graphviz version 10.0.1 (20240210.2158)
 -->
<!-- Title: SNMP::NoSuchInstanceBER Pages: 1 -->
<svg width="209pt" height="267pt"
 viewBox="0.00 0.00 208.75 267.00" xmlns="http://www.w3.org/2000/svg" xmlns:xlink="http://www.w3.org/1999/xlink">
<g id="graph0" class="graph" transform="scale(1 1) rotate(0) translate(4 263)">
<title>SNMP::NoSuchInstanceBER</title>
<!-- Node1 -->
<g id="Node000001" class="node">
<title>Node1</title>
<g id="a_Node000001"><a xlink:title="BER object to handle noSuchInstance exception.">
<polygon fill="#999999" stroke="#666666" points="142,-20 0,-20 0,0 142,0 142,-20"/>
<text text-anchor="middle" x="71" y="-6.5" font-family="Helvetica,sans-Serif" font-size="10.00">SNMP::NoSuchInstanceBER</text>
</a>
</g>
</g>
<!-- Node2 -->
<g id="Node000002" class="node">
<title>Node2</title>
<g id="a_Node000002"><a xlink:href="class_s_n_m_p_1_1_null_b_e_r.html" target="_top" xlink:title="BER object to handle null.">
<polygon fill="white" stroke="#666666" points="114.62,-77 27.38,-77 27.38,-57 114.62,-57 114.62,-77"/>
<text text-anchor="middle" x="71" y="-63.5" font-family="Helvetica,sans-Serif" font-size="10.00">SNMP::NullBER</text>
</a>
</g>
</g>
<!-- Node2&#45;&gt;Node1 -->
<g id="edge1_Node000001_Node000002" class="edge">
<title>Node2&#45;&gt;Node1</title>
<g id="a_edge1_Node000001_Node000002"><a xlink:title=" ">
<path fill="none" stroke="#63b8ff" d="M71,-45.69C71,-36.97 71,-27.22 71,-20.28"/>
<polygon fill="#63b8ff" stroke="#63b8ff" points="67.5,-45.4 71,-55.4 74.5,-45.4 67.5,-45.4"/>
</a>
</g>
</g>
<!-- Node3 -->
<g id="Node000003" class="node">
<title>Node3</title>
<g id="a_Node000003"><a xlink:href="class_s_n_m_p_1_1_b_e_r.html" target="_top" xlink:title="BER object.">
<polygon fill="white" stroke="#666666" points="106.38,-134 35.62,-134 35.62,-114 106.38,-114 106.38,-134"/>
<text text-anchor="middle" x="71" y="-120.5" font-family="Helvetica,sans-Serif" font-size="10.00">SNMP::BER</text>
</a>
</g>
</g>
<!-- Node3&#45;&gt;Node2 -->
<g id="edge2_Node000002_Node000003" class="edge">
<title>Node3&#45;&gt;Node2</title>
<g id="a_edge2_Node000002_Node000003"><a xlink:title=" ">
<path fill="none" stroke="#63b8ff" d="M71,-102.69C71,-93.97 71,-84.22 71,-77.28"/>
<polygon fill="#63b8ff" stroke="#63b8ff" points="67.5,-102.4 71,-112.4 74.5,-102.4 67.5,-102.4"/>
</a>
</g>
</g>
<!-- Node4 -->
<g id="Node000004" class="node">
<title>Node4</title>
<g id="a_Node000004"><a xlink:href="class_s_n_m_p_1_1_base.html" target="_top" xlink:title="Base class for BER, Length and Type.">
<polygon fill="white" stroke="#666666" points="107.5,-259 34.5,-259 34.5,-239 107.5,-239 107.5,-259"/>
<text text-anchor="middle" x="71" y="-245.5" font-family="Helvetica,sans-Serif" font-size="10.00">SNMP::Base</text>
</a>
</g>
</g>
<!-- Node4&#45;&gt;Node3 -->
<g id="edge3_Node000003_Node000004" class="edge">
<title>Node4&#45;&gt;Node3</title>
<g id="a_edge3_Node000003_Node000004"><a xlink:title=" ">
<path fill="none" stroke="#63b8ff" d="M46.9,-232.13C37.25,-224.33 27.2,-214.01 22,-202 18.47,-193.84 18.91,-190.33 22,-182 29.35,-162.18 47.02,-144.62 59,-134.39"/>
<polygon fill="#63b8ff" stroke="#63b8ff" points="44.54,-234.73 54.64,-237.9 48.72,-229.12 44.54,-234.73"/>
</a>
</g>
</g>
<!-- Node5 -->
<g id="Node000005" class="node">
<title>Node5</title>
<g id="a_Node000005"><a xlink:href="class_s_n_m_p_1_1_length.html" target="_top" xlink:title="Length of a BER object.">
<polygon fill="white" stroke="#666666" points="110.88,-202 31.12,-202 31.12,-182 110.88,-182 110.88,-202"/>
<text text-anchor="middle" x="71" y="-188.5" font-family="Helvetica,sans-Serif" font-size="10.00">SNMP::Length</text>
</a>
</g>
</g>
<!-- Node4&#45;&gt;Node5 -->
<g id="edge5_Node000005_Node000004" class="edge">
<title>Node4&#45;&gt;Node5</title>
<g id="a_edge5_Node000005_Node000004"><a xlink:title=" ">
<path fill="none" stroke="#63b8ff" d="M71,-227.69C71,-218.97 71,-209.22 71,-202.28"/>
<polygon fill="#63b8ff" stroke="#63b8ff" points="67.5,-227.4 71,-237.4 74.5,-227.4 67.5,-227.4"/>
</a>
</g>
</g>
<!-- Node6 -->
<g id="Node000006" class="node">
<title>Node6</title>
<g id="a_Node000006"><a xlink:href="class_s_n_m_p_1_1_type.html" target="_top" xlink:title="Type of a BER object.">
<polygon fill="white" stroke="#666666" points="200.75,-202 129.25,-202 129.25,-182 200.75,-182 200.75,-202"/>
<text text-anchor="middle" x="165" y="-188.5" font-family="Helvetica,sans-Serif" font-size="10.00">SNMP::Type</text>
</a>
</g>
</g>
<!-- Node4&#45;&gt;Node6 -->
<g id="edge7_Node000006_Node000004" class="edge">
<title>Node4&#45;&gt;Node6</title>
<g id="a_edge7_Node000006_Node000004"><a xlink:title=" ">
<path fill="none" stroke="#63b8ff" d="M96.65,-232.99C113.36,-223.21 134.64,-210.77 148.98,-202.38"/>
<polygon fill="#63b8ff" stroke="#63b8ff" points="95.12,-229.83 88.25,-237.91 98.65,-235.88 95.12,-229.83"/>
</a>
</g>
</g>
<!-- Node5&#45;&gt;Node3 -->
<g id="edge4_Node000003_Node000005" class="edge">
<title>Node5&#45;&gt;Node3</title>
<g id="a_edge4_Node000003_Node000005"><a xlink:title=" ">
<path fill="none" stroke="#9a32cd" stroke-dasharray="5,2" d="M71,-170.28C71,-158.27 71,-143.74 71,-134.44"/>
<polygon fill="#9a32cd" stroke="#9a32cd" points="67.5,-170.03 71,-180.03 74.5,-170.03 67.5,-170.03"/>
</a>
</g>
<text text-anchor="middle" x="88.25" y="-154.5" font-family="Helvetica,sans-Serif" font-size="10.00" fill="grey"> _length</text>
</g>
<!-- Node6&#45;&gt;Node3 -->
<g id="edge6_Node000003_Node000006" class="edge">
<title>Node6&#45;&gt;Node3</title>
<g id="a_edge6_Node000003_Node000006"><a xlink:title=" ">
<path fill="none" stroke="#9a32cd" stroke-dasharray="5,2" d="M142.27,-175.04C124.19,-162.35 99.51,-145.02 84.44,-134.44"/>
<polygon fill="#9a32cd" stroke="#9a32cd" points="140.1,-177.79 150.29,-180.67 144.12,-172.06 140.1,-177.79"/>
</a>
</g>
<text text-anchor="middle" x="140.5" y="-154.5" font-family="Helvetica,sans-Serif" font-size="10.00" fill="grey"> _type</text>
</g>
</g>
</svg>
