<?xml version="1.0" encoding="UTF-8" standalone="no"?>
<!DOCTYPE svg PUBLIC "-//W3C//DTD SVG 1.1//EN"
 "http://www.w3.org/Graphics/SVG/1.1/DTD/svg11.dtd">
<!-- Generated by graphviz version 10.0.1 (20240210.2158)
 -->
<!-- Title: SNMP::SequenceBER Pages: 1 -->
<svg width="204pt" height="290pt"
 viewBox="0.00 0.00 203.50 290.00" xmlns="http://www.w3.org/2000/svg" xmlns:xlink="http://www.w3.org/1999/xlink">
<g id="graph0" class="graph" transform="scale(1 1) rotate(0) translate(4 286)">
<title>SNMP::SequenceBER</title>
<!-- Node1 -->
<g id="Node000001" class="node">
<title>Node1</title>
<g id="a_Node000001"><a xlink:title="BER object to handle sequence of BER objects.">
<polygon fill="#999999" stroke="#666666" points="122.88,-20 8.62,-20 8.62,0 122.88,0 122.88,-20"/>
<text text-anchor="middle" x="65.75" y="-6.5" font-family="Helvetica,sans-Serif" font-size="10.00">SNMP::SequenceBER</text>
</a>
</g>
</g>
<!-- Node2 -->
<g id="Node000002" class="node">
<title>Node2</title>
<g id="a_Node000002"><a xlink:href="class_s_n_m_p_1_1_array_b_e_r.html" target="_top" xlink:title=" ">
<polygon fill="white" stroke="#666666" points="131.5,-89 0,-89 0,-57 131.5,-57 131.5,-89"/>
<text text-anchor="start" x="8" y="-75.5" font-family="Helvetica,sans-Serif" font-size="10.00">SNMP::ArrayBER&lt; SNMP</text>
<text text-anchor="middle" x="65.75" y="-63.5" font-family="Helvetica,sans-Serif" font-size="10.00">_CAPACITY &gt;</text>
</a>
</g>
</g>
<!-- Node2&#45;&gt;Node1 -->
<g id="edge1_Node000001_Node000002" class="edge">
<title>Node2&#45;&gt;Node1</title>
<g id="a_edge1_Node000001_Node000002"><a xlink:title=" ">
<path fill="none" stroke="#63b8ff" d="M65.75,-45.36C65.75,-36.41 65.75,-27.01 65.75,-20.31"/>
<polygon fill="#63b8ff" stroke="#63b8ff" points="62.25,-45.09 65.75,-55.09 69.25,-45.09 62.25,-45.09"/>
</a>
</g>
</g>
<!-- Node3 -->
<g id="Node000003" class="node">
<title>Node3</title>
<g id="a_Node000003"><a xlink:href="class_s_n_m_p_1_1_b_e_r.html" target="_top" xlink:title="BER object.">
<polygon fill="white" stroke="#666666" points="101.12,-157 30.38,-157 30.38,-137 101.12,-137 101.12,-157"/>
<text text-anchor="middle" x="65.75" y="-143.5" font-family="Helvetica,sans-Serif" font-size="10.00">SNMP::BER</text>
</a>
</g>
</g>
<!-- Node3&#45;&gt;Node2 -->
<g id="edge2_Node000002_Node000003" class="edge">
<title>Node3&#45;&gt;Node2</title>
<g id="a_edge2_Node000002_Node000003"><a xlink:title=" ">
<path fill="none" stroke="#63b8ff" d="M64.05,-125.17C63.93,-123.09 63.82,-121 63.75,-119 63.39,-109.15 63.86,-98.1 64.44,-89.41"/>
<polygon fill="#63b8ff" stroke="#63b8ff" points="60.55,-125.28 64.77,-135 67.53,-124.78 60.55,-125.28"/>
</a>
</g>
</g>
<!-- Node3&#45;&gt;Node2 -->
<g id="edge8_Node000002_Node000003" class="edge">
<title>Node3&#45;&gt;Node2</title>
<g id="a_edge8_Node000002_Node000003"><a xlink:title=" ">
<path fill="none" stroke="#9a32cd" stroke-dasharray="5,2" d="M65.75,-125.1C65.75,-113.71 65.75,-99.87 65.75,-89.47"/>
<polygon fill="#9a32cd" stroke="#9a32cd" points="62.25,-125.07 65.75,-135.07 69.25,-125.07 62.25,-125.07"/>
</a>
</g>
<text text-anchor="middle" x="79.25" y="-109.5" font-family="Helvetica,sans-Serif" font-size="10.00" fill="grey"> _bers</text>
</g>
<!-- Node4 -->
<g id="Node000004" class="node">
<title>Node4</title>
<g id="a_Node000004"><a xlink:href="class_s_n_m_p_1_1_base.html" target="_top" xlink:title="Base class for BER, Length and Type.">
<polygon fill="white" stroke="#666666" points="102.25,-282 29.25,-282 29.25,-262 102.25,-262 102.25,-282"/>
<text text-anchor="middle" x="65.75" y="-268.5" font-family="Helvetica,sans-Serif" font-size="10.00">SNMP::Base</text>
</a>
</g>
</g>
<!-- Node4&#45;&gt;Node3 -->
<g id="edge3_Node000003_Node000004" class="edge">
<title>Node4&#45;&gt;Node3</title>
<g id="a_edge3_Node000003_Node000004"><a xlink:title=" ">
<path fill="none" stroke="#63b8ff" d="M41.65,-255.13C32,-247.33 21.95,-237.01 16.75,-225 13.22,-216.84 13.66,-213.33 16.75,-205 24.1,-185.18 41.77,-167.62 53.75,-157.39"/>
<polygon fill="#63b8ff" stroke="#63b8ff" points="39.29,-257.73 49.39,-260.9 43.47,-252.12 39.29,-257.73"/>
</a>
</g>
</g>
<!-- Node5 -->
<g id="Node000005" class="node">
<title>Node5</title>
<g id="a_Node000005"><a xlink:href="class_s_n_m_p_1_1_length.html" target="_top" xlink:title="Length of a BER object.">
<polygon fill="white" stroke="#666666" points="105.62,-225 25.88,-225 25.88,-205 105.62,-205 105.62,-225"/>
<text text-anchor="middle" x="65.75" y="-211.5" font-family="Helvetica,sans-Serif" font-size="10.00">SNMP::Length</text>
</a>
</g>
</g>
<!-- Node4&#45;&gt;Node5 -->
<g id="edge5_Node000005_Node000004" class="edge">
<title>Node4&#45;&gt;Node5</title>
<g id="a_edge5_Node000005_Node000004"><a xlink:title=" ">
<path fill="none" stroke="#63b8ff" d="M65.75,-250.69C65.75,-241.97 65.75,-232.22 65.75,-225.28"/>
<polygon fill="#63b8ff" stroke="#63b8ff" points="62.25,-250.4 65.75,-260.4 69.25,-250.4 62.25,-250.4"/>
</a>
</g>
</g>
<!-- Node6 -->
<g id="Node000006" class="node">
<title>Node6</title>
<g id="a_Node000006"><a xlink:href="class_s_n_m_p_1_1_type.html" target="_top" xlink:title="Type of a BER object.">
<polygon fill="white" stroke="#666666" points="195.5,-225 124,-225 124,-205 195.5,-205 195.5,-225"/>
<text text-anchor="middle" x="159.75" y="-211.5" font-family="Helvetica,sans-Serif" font-size="10.00">SNMP::Type</text>
</a>
</g>
</g>
<!-- Node4&#45;&gt;Node6 -->
<g id="edge7_Node000006_Node000004" class="edge">
<title>Node4&#45;&gt;Node6</title>
<g id="a_edge7_Node000006_Node000004"><a xlink:title=" ">
<path fill="none" stroke="#63b8ff" d="M91.4,-255.99C108.11,-246.21 129.39,-233.77 143.73,-225.38"/>
<polygon fill="#63b8ff" stroke="#63b8ff" points="89.87,-252.83 83,-260.91 93.4,-258.88 89.87,-252.83"/>
</a>
</g>
</g>
<!-- Node5&#45;&gt;Node3 -->
<g id="edge4_Node000003_Node000005" class="edge">
<title>Node5&#45;&gt;Node3</title>
<g id="a_edge4_Node000003_Node000005"><a xlink:title=" ">
<path fill="none" stroke="#9a32cd" stroke-dasharray="5,2" d="M65.75,-193.28C65.75,-181.27 65.75,-166.74 65.75,-157.44"/>
<polygon fill="#9a32cd" stroke="#9a32cd" points="62.25,-193.03 65.75,-203.03 69.25,-193.03 62.25,-193.03"/>
</a>
</g>
<text text-anchor="middle" x="83" y="-177.5" font-family="Helvetica,sans-Serif" font-size="10.00" fill="grey"> _length</text>
</g>
<!-- Node6&#45;&gt;Node3 -->
<g id="edge6_Node000003_Node000006" class="edge">
<title>Node6&#45;&gt;Node3</title>
<g id="a_edge6_Node000003_Node000006"><a xlink:title=" ">
<path fill="none" stroke="#9a32cd" stroke-dasharray="5,2" d="M137.02,-198.04C118.94,-185.35 94.26,-168.02 79.19,-157.44"/>
<polygon fill="#9a32cd" stroke="#9a32cd" points="134.85,-200.79 145.04,-203.67 138.87,-195.06 134.85,-200.79"/>
</a>
</g>
<text text-anchor="middle" x="135.25" y="-177.5" font-family="Helvetica,sans-Serif" font-size="10.00" fill="grey"> _type</text>
</g>
</g>
</svg>
