<?xml version="1.0" encoding="UTF-8" standalone="no"?>
<!DOCTYPE svg PUBLIC "-//W3C//DTD SVG 1.1//EN"
 "http://www.w3.org/Graphics/SVG/1.1/DTD/svg11.dtd">
<!-- Generated by graphviz version 10.0.1 (20240210.2158)
 -->
<!-- Title: SNMP::Base Pages: 1 -->
<svg width="683pt" height="555pt"
 viewBox="0.00 0.00 682.75 555.00" xmlns="http://www.w3.org/2000/svg" xmlns:xlink="http://www.w3.org/1999/xlink">
<g id="graph0" class="graph" transform="scale(1 1) rotate(0) translate(4 551)">
<title>SNMP::Base</title>
<!-- Node1 -->
<g id="Node000001" class="node">
<title>Node1</title>
<g id="a_Node000001"><a xlink:title="Base class for BER, Length and Type.">
<polygon fill="#999999" stroke="#666666" points="73,-210 0,-210 0,-190 73,-190 73,-210"/>
<text text-anchor="middle" x="36.5" y="-196.5" font-family="Helvetica,sans-Serif" font-size="10.00">SNMP::Base</text>
</a>
</g>
</g>
<!-- Node2 -->
<g id="Node000002" class="node">
<title>Node2</title>
<g id="a_Node000002"><a xlink:href="class_s_n_m_p_1_1_b_e_r.html" target="_top" xlink:title="BER object.">
<polygon fill="white" stroke="#666666" points="184.25,-248 113.5,-248 113.5,-228 184.25,-228 184.25,-248"/>
<text text-anchor="middle" x="148.88" y="-234.5" font-family="Helvetica,sans-Serif" font-size="10.00">SNMP::BER</text>
</a>
</g>
</g>
<!-- Node1&#45;&gt;Node2 -->
<g id="edge1_Node000001_Node000002" class="edge">
<title>Node1&#45;&gt;Node2</title>
<g id="a_edge1_Node000001_Node000002"><a xlink:title=" ">
<path fill="none" stroke="#63b8ff" d="M78.49,-214.11C91.42,-218.56 105.47,-223.4 117.52,-227.55"/>
<polygon fill="#63b8ff" stroke="#63b8ff" points="79.98,-210.92 69.38,-210.98 77.7,-217.54 79.98,-210.92"/>
</a>
</g>
</g>
<!-- Node29 -->
<g id="Node000029" class="node">
<title>Node29</title>
<g id="a_Node000029"><a xlink:href="class_s_n_m_p_1_1_length.html" target="_top" xlink:title="Length of a BER object.">
<polygon fill="white" stroke="#666666" points="188.75,-210 109,-210 109,-190 188.75,-190 188.75,-210"/>
<text text-anchor="middle" x="148.88" y="-196.5" font-family="Helvetica,sans-Serif" font-size="10.00">SNMP::Length</text>
</a>
</g>
</g>
<!-- Node1&#45;&gt;Node29 -->
<g id="edge28_Node000001_Node000029" class="edge">
<title>Node1&#45;&gt;Node29</title>
<g id="a_edge28_Node000001_Node000029"><a xlink:title=" ">
<path fill="none" stroke="#63b8ff" d="M84.81,-200C92.81,-200 101.03,-200 108.79,-200"/>
<polygon fill="#63b8ff" stroke="#63b8ff" points="84.85,-196.5 74.85,-200 84.85,-203.5 84.85,-196.5"/>
</a>
</g>
</g>
<!-- Node30 -->
<g id="Node000030" class="node">
<title>Node30</title>
<g id="a_Node000030"><a xlink:href="class_s_n_m_p_1_1_type.html" target="_top" xlink:title="Type of a BER object.">
<polygon fill="white" stroke="#666666" points="184.62,-172 113.12,-172 113.12,-152 184.62,-152 184.62,-172"/>
<text text-anchor="middle" x="148.88" y="-158.5" font-family="Helvetica,sans-Serif" font-size="10.00">SNMP::Type</text>
</a>
</g>
</g>
<!-- Node1&#45;&gt;Node30 -->
<g id="edge29_Node000001_Node000030" class="edge">
<title>Node1&#45;&gt;Node30</title>
<g id="a_edge29_Node000001_Node000030"><a xlink:title=" ">
<path fill="none" stroke="#63b8ff" d="M78.49,-185.89C91.42,-181.44 105.47,-176.6 117.52,-172.45"/>
<polygon fill="#63b8ff" stroke="#63b8ff" points="77.7,-182.46 69.38,-189.02 79.98,-189.08 77.7,-182.46"/>
</a>
</g>
</g>
<!-- Node3 -->
<g id="Node000003" class="node">
<title>Node3</title>
<g id="a_Node000003"><a xlink:href="class_s_n_m_p_1_1_array_b_e_r.html" target="_top" xlink:title=" ">
<polygon fill="white" stroke="#666666" points="358.12,-521 226.62,-521 226.62,-489 358.12,-489 358.12,-521"/>
<text text-anchor="start" x="234.62" y="-507.5" font-family="Helvetica,sans-Serif" font-size="10.00">SNMP::ArrayBER&lt; SNMP</text>
<text text-anchor="middle" x="292.38" y="-495.5" font-family="Helvetica,sans-Serif" font-size="10.00">_CAPACITY &gt;</text>
</a>
</g>
</g>
<!-- Node2&#45;&gt;Node3 -->
<g id="edge2_Node000002_Node000003" class="edge">
<title>Node2&#45;&gt;Node3</title>
<g id="a_edge2_Node000002_Node000003"><a xlink:title=" ">
<path fill="none" stroke="#63b8ff" d="M150.74,-259.49C153.71,-305.25 166.83,-413.35 224.75,-477 228.89,-481.55 233.88,-485.38 239.25,-488.6"/>
<polygon fill="#63b8ff" stroke="#63b8ff" points="154.24,-259.4 150.22,-249.6 147.25,-259.77 154.24,-259.4"/>
</a>
</g>
</g>
<!-- Node7 -->
<g id="Node000007" class="node">
<title>Node7</title>
<g id="a_Node000007"><a xlink:href="class_s_n_m_p_1_1_array_b_e_r.html" target="_top" xlink:title=" ">
<polygon fill="white" stroke="#666666" points="351,-468 233.75,-468 233.75,-448 351,-448 351,-468"/>
<text text-anchor="middle" x="292.38" y="-454.5" font-family="Helvetica,sans-Serif" font-size="10.00">SNMP::ArrayBER&lt; 2 &gt;</text>
</a>
</g>
</g>
<!-- Node2&#45;&gt;Node7 -->
<g id="edge6_Node000002_Node000007" class="edge">
<title>Node2&#45;&gt;Node7</title>
<g id="a_edge6_Node000002_Node000007"><a xlink:title=" ">
<path fill="none" stroke="#63b8ff" d="M152.33,-259.41C157.96,-298.98 175.38,-384.01 224.75,-433 231.06,-439.27 239.1,-443.98 247.38,-447.53"/>
<polygon fill="#63b8ff" stroke="#63b8ff" points="155.81,-259.02 151.06,-249.55 148.86,-259.92 155.81,-259.02"/>
</a>
</g>
</g>
<!-- Node9 -->
<g id="Node000009" class="node">
<title>Node9</title>
<g id="a_Node000009"><a xlink:href="class_s_n_m_p_1_1_u_integer_b_e_r.html" target="_top" xlink:title=" ">
<polygon fill="white" stroke="#666666" points="348.75,-424 236,-424 236,-392 348.75,-392 348.75,-424"/>
<text text-anchor="start" x="244" y="-410.5" font-family="Helvetica,sans-Serif" font-size="10.00">SNMP::UIntegerBER&lt;</text>
<text text-anchor="middle" x="292.38" y="-398.5" font-family="Helvetica,sans-Serif" font-size="10.00"> uint32_t &gt;</text>
</a>
</g>
</g>
<!-- Node2&#45;&gt;Node9 -->
<g id="edge8_Node000002_Node000009" class="edge">
<title>Node2&#45;&gt;Node9</title>
<g id="a_edge8_Node000002_Node000009"><a xlink:title=" ">
<path fill="none" stroke="#63b8ff" d="M155.52,-259.28C164.87,-290.57 186.42,-348.94 224.75,-383 228.44,-386.28 232.61,-389.15 237.01,-391.65"/>
<polygon fill="#63b8ff" stroke="#63b8ff" points="158.94,-258.5 152.85,-249.83 152.2,-260.41 158.94,-258.5"/>
</a>
</g>
</g>
<!-- Node13 -->
<g id="Node000013" class="node">
<title>Node13</title>
<g id="a_Node000013"><a xlink:href="class_s_n_m_p_1_1_u_integer_b_e_r.html" target="_top" xlink:title=" ">
<polygon fill="white" stroke="#666666" points="348.75,-374 236,-374 236,-342 348.75,-342 348.75,-374"/>
<text text-anchor="start" x="244" y="-360.5" font-family="Helvetica,sans-Serif" font-size="10.00">SNMP::UIntegerBER&lt;</text>
<text text-anchor="middle" x="292.38" y="-348.5" font-family="Helvetica,sans-Serif" font-size="10.00"> uint64_t &gt;</text>
</a>
</g>
</g>
<!-- Node2&#45;&gt;Node13 -->
<g id="edge12_Node000002_Node000013" class="edge">
<title>Node2&#45;&gt;Node13</title>
<g id="a_edge12_Node000002_Node000013"><a xlink:title=" ">
<path fill="none" stroke="#63b8ff" d="M161.28,-258.31C174.18,-279.61 197.03,-312.74 224.75,-333 229.14,-336.21 233.99,-339.05 239.01,-341.56"/>
<polygon fill="#63b8ff" stroke="#63b8ff" points="164.31,-256.55 156.24,-249.69 158.26,-260.09 164.31,-256.55"/>
</a>
</g>
</g>
<!-- Node15 -->
<g id="Node000015" class="node">
<title>Node15</title>
<g id="a_Node000015"><a xlink:href="class_s_n_m_p_1_1_array_b_e_r.html" target="_top" xlink:title="Base class for BER array of BERs.">
<polygon fill="white" stroke="#666666" points="351.75,-324 233,-324 233,-304 351.75,-304 351.75,-324"/>
<text text-anchor="middle" x="292.38" y="-310.5" font-family="Helvetica,sans-Serif" font-size="10.00">SNMP::ArrayBER&lt; U &gt;</text>
</a>
</g>
</g>
<!-- Node2&#45;&gt;Node15 -->
<g id="edge14_Node000002_Node000015" class="edge">
<title>Node2&#45;&gt;Node15</title>
<g id="a_edge14_Node000002_Node000015"><a xlink:title=" ">
<path fill="none" stroke="#63b8ff" d="M169.13,-255.9C183.5,-268.42 204.14,-284.68 224.75,-295 231.42,-298.34 238.76,-301.18 246.07,-303.56"/>
<polygon fill="#63b8ff" stroke="#63b8ff" points="171.57,-253.39 161.78,-249.33 166.9,-258.61 171.57,-253.39"/>
</a>
</g>
</g>
<!-- Node16 -->
<g id="Node000016" class="node">
<title>Node16</title>
<g id="a_Node000016"><a xlink:href="class_s_n_m_p_1_1_boolean_b_e_r.html" target="_top" xlink:title="BER object to handle boolean.">
<polygon fill="white" stroke="#666666" points="345.38,-286 239.38,-286 239.38,-266 345.38,-266 345.38,-286"/>
<text text-anchor="middle" x="292.38" y="-272.5" font-family="Helvetica,sans-Serif" font-size="10.00">SNMP::BooleanBER</text>
</a>
</g>
</g>
<!-- Node2&#45;&gt;Node16 -->
<g id="edge15_Node000002_Node000016" class="edge">
<title>Node2&#45;&gt;Node16</title>
<g id="a_edge15_Node000002_Node000016"><a xlink:title=" ">
<path fill="none" stroke="#63b8ff" d="M195.52,-250.26C213.85,-255.18 234.77,-260.8 252.38,-265.53"/>
<polygon fill="#63b8ff" stroke="#63b8ff" points="196.52,-246.9 185.95,-247.69 194.7,-253.66 196.52,-246.9"/>
</a>
</g>
</g>
<!-- Node17 -->
<g id="Node000017" class="node">
<title>Node17</title>
<g id="a_Node000017"><a xlink:href="class_s_n_m_p_1_1_float_b_e_r.html" target="_top" xlink:title="BER object to handle float.">
<polygon fill="white" stroke="#666666" points="338.62,-248 246.12,-248 246.12,-228 338.62,-228 338.62,-248"/>
<text text-anchor="middle" x="292.38" y="-234.5" font-family="Helvetica,sans-Serif" font-size="10.00">SNMP::FloatBER</text>
</a>
</g>
</g>
<!-- Node2&#45;&gt;Node17 -->
<g id="edge16_Node000002_Node000017" class="edge">
<title>Node2&#45;&gt;Node17</title>
<g id="a_edge16_Node000002_Node000017"><a xlink:title=" ">
<path fill="none" stroke="#63b8ff" d="M195.73,-238C211.72,-238 229.65,-238 245.63,-238"/>
<polygon fill="#63b8ff" stroke="#63b8ff" points="196,-234.5 186,-238 196,-241.5 196,-234.5"/>
</a>
</g>
</g>
<!-- Node19 -->
<g id="Node000019" class="node">
<title>Node19</title>
<g id="a_Node000019"><a xlink:href="class_s_n_m_p_1_1_integer_b_e_r.html" target="_top" xlink:title="BER object to handle integer.">
<polygon fill="white" stroke="#666666" points="342.38,-210 242.38,-210 242.38,-190 342.38,-190 342.38,-210"/>
<text text-anchor="middle" x="292.38" y="-196.5" font-family="Helvetica,sans-Serif" font-size="10.00">SNMP::IntegerBER</text>
</a>
</g>
</g>
<!-- Node2&#45;&gt;Node19 -->
<g id="edge18_Node000002_Node000019" class="edge">
<title>Node2&#45;&gt;Node19</title>
<g id="a_edge18_Node000002_Node000019"><a xlink:title=" ">
<path fill="none" stroke="#63b8ff" d="M195.52,-225.74C213.85,-220.82 234.77,-215.2 252.38,-210.47"/>
<polygon fill="#63b8ff" stroke="#63b8ff" points="194.7,-222.34 185.95,-228.31 196.52,-229.1 194.7,-222.34"/>
</a>
</g>
</g>
<!-- Node20 -->
<g id="Node000020" class="node">
<title>Node20</title>
<g id="a_Node000020"><a xlink:href="class_s_n_m_p_1_1_null_b_e_r.html" target="_top" xlink:title="BER object to handle null.">
<polygon fill="white" stroke="#666666" points="336,-172 248.75,-172 248.75,-152 336,-152 336,-172"/>
<text text-anchor="middle" x="292.38" y="-158.5" font-family="Helvetica,sans-Serif" font-size="10.00">SNMP::NullBER</text>
</a>
</g>
</g>
<!-- Node2&#45;&gt;Node20 -->
<g id="edge19_Node000002_Node000020" class="edge">
<title>Node2&#45;&gt;Node20</title>
<g id="a_edge19_Node000002_Node000020"><a xlink:title=" ">
<path fill="none" stroke="#63b8ff" d="M184.06,-222.19C185.68,-221.17 187.25,-220.1 188.75,-219 207.5,-205.23 204.86,-193.06 224.75,-181 231.95,-176.63 240.19,-173.24 248.37,-170.6"/>
<polygon fill="#63b8ff" stroke="#63b8ff" points="182.78,-218.9 175.81,-226.88 186.24,-224.98 182.78,-218.9"/>
</a>
</g>
</g>
<!-- Node24 -->
<g id="Node000024" class="node">
<title>Node24</title>
<g id="a_Node000024"><a xlink:href="class_s_n_m_p_1_1_object_identifier_b_e_r.html" target="_top" xlink:title="BER object to handle OID.">
<polygon fill="white" stroke="#666666" points="360,-134 224.75,-134 224.75,-114 360,-114 360,-134"/>
<text text-anchor="middle" x="292.38" y="-120.5" font-family="Helvetica,sans-Serif" font-size="10.00">SNMP::ObjectIdentifierBER</text>
</a>
</g>
</g>
<!-- Node2&#45;&gt;Node24 -->
<g id="edge23_Node000002_Node000024" class="edge">
<title>Node2&#45;&gt;Node24</title>
<g id="a_edge23_Node000002_Node000024"><a xlink:title=" ">
<path fill="none" stroke="#63b8ff" d="M186.51,-221.1C187.28,-220.43 188.03,-219.72 188.75,-219 215.02,-192.41 196.24,-167.17 224.75,-143 228.79,-139.58 233.4,-136.77 238.28,-134.47"/>
<polygon fill="#63b8ff" stroke="#63b8ff" points="184.79,-218.03 178.61,-226.64 188.81,-223.76 184.79,-218.03"/>
</a>
</g>
</g>
<!-- Node25 -->
<g id="Node000025" class="node">
<title>Node25</title>
<g id="a_Node000025"><a xlink:href="class_s_n_m_p_1_1_octet_string_b_e_r.html" target="_top" xlink:title="BER object to handle octet string.">
<polygon fill="white" stroke="#666666" points="352.5,-96 232.25,-96 232.25,-76 352.5,-76 352.5,-96"/>
<text text-anchor="middle" x="292.38" y="-82.5" font-family="Helvetica,sans-Serif" font-size="10.00">SNMP::OctetStringBER</text>
</a>
</g>
</g>
<!-- Node2&#45;&gt;Node25 -->
<g id="edge24_Node000002_Node000025" class="edge">
<title>Node2&#45;&gt;Node25</title>
<g id="a_edge24_Node000002_Node000025"><a xlink:title=" ">
<path fill="none" stroke="#63b8ff" d="M187.02,-220.86C187.62,-220.26 188.2,-219.64 188.75,-219 223.43,-178.74 186.66,-142.04 224.75,-105 228.29,-101.56 232.4,-98.74 236.81,-96.42"/>
<polygon fill="#63b8ff" stroke="#63b8ff" points="185.18,-217.86 179.37,-226.73 189.44,-223.42 185.18,-217.86"/>
</a>
</g>
</g>
<!-- Node27 -->
<g id="Node000027" class="node">
<title>Node27</title>
<g id="a_Node000027"><a xlink:href="class_s_n_m_p_1_1_opaque_b_e_r.html" target="_top" xlink:title="BER object to handle embedded BER object.">
<polygon fill="white" stroke="#666666" points="344.62,-58 240.12,-58 240.12,-38 344.62,-38 344.62,-58"/>
<text text-anchor="middle" x="292.38" y="-44.5" font-family="Helvetica,sans-Serif" font-size="10.00">SNMP::OpaqueBER</text>
</a>
</g>
</g>
<!-- Node2&#45;&gt;Node27 -->
<g id="edge26_Node000002_Node000027" class="edge">
<title>Node2&#45;&gt;Node27</title>
<g id="a_edge26_Node000002_Node000027"><a xlink:title=" ">
<path fill="none" stroke="#63b8ff" d="M187.42,-220.55C187.88,-220.05 188.32,-219.53 188.75,-219 232.1,-164.77 176.78,-117.19 224.75,-67 228.99,-62.57 234.18,-59.14 239.78,-56.51"/>
<polygon fill="#63b8ff" stroke="#63b8ff" points="185.5,-217.6 179.96,-226.64 189.92,-223.03 185.5,-217.6"/>
</a>
</g>
</g>
<!-- Node28 -->
<g id="Node000028" class="node">
<title>Node28</title>
<g id="a_Node000028"><a xlink:href="class_s_n_m_p_1_1_u_integer_b_e_r.html" target="_top" xlink:title="Base class for unsigned integer BER.">
<polygon fill="white" stroke="#666666" points="357.38,-20 227.38,-20 227.38,0 357.38,0 357.38,-20"/>
<text text-anchor="middle" x="292.38" y="-6.5" font-family="Helvetica,sans-Serif" font-size="10.00">SNMP::UIntegerBER&lt; T &gt;</text>
</a>
</g>
</g>
<!-- Node2&#45;&gt;Node28 -->
<g id="edge27_Node000002_Node000028" class="edge">
<title>Node2&#45;&gt;Node28</title>
<g id="a_edge27_Node000002_Node000028"><a xlink:title=" ">
<path fill="none" stroke="#63b8ff" d="M187.45,-220.58C187.9,-220.07 188.34,-219.54 188.75,-219 240.88,-150.67 166.79,-92.46 224.75,-29 227.91,-25.54 231.66,-22.69 235.74,-20.35"/>
<polygon fill="#63b8ff" stroke="#63b8ff" points="185.52,-217.64 180.09,-226.73 190.01,-223.01 185.52,-217.64"/>
</a>
</g>
</g>
<!-- Node4 -->
<g id="Node000004" class="node">
<title>Node4</title>
<g id="a_Node000004"><a xlink:href="class_s_n_m_p_1_1_sequence_b_e_r.html" target="_top" xlink:title="BER object to handle sequence of BER objects.">
<polygon fill="white" stroke="#666666" points="524.12,-528 409.88,-528 409.88,-508 524.12,-508 524.12,-528"/>
<text text-anchor="middle" x="467" y="-514.5" font-family="Helvetica,sans-Serif" font-size="10.00">SNMP::SequenceBER</text>
</a>
</g>
</g>
<!-- Node3&#45;&gt;Node4 -->
<g id="edge3_Node000003_Node000004" class="edge">
<title>Node3&#45;&gt;Node4</title>
<g id="a_edge3_Node000003_Node000004"><a xlink:title=" ">
<path fill="none" stroke="#63b8ff" d="M369.4,-510.73C382.92,-511.74 396.79,-512.79 409.65,-513.76"/>
<polygon fill="#63b8ff" stroke="#63b8ff" points="369.89,-507.25 359.65,-509.99 369.36,-514.23 369.89,-507.25"/>
</a>
</g>
</g>
<!-- Node5 -->
<g id="Node000005" class="node">
<title>Node5</title>
<g id="a_Node000005"><a xlink:href="class_s_n_m_p_1_1_message.html" target="_top" xlink:title="SNMP message object.">
<polygon fill="white" stroke="#666666" points="669.5,-547 579.25,-547 579.25,-527 669.5,-527 669.5,-547"/>
<text text-anchor="middle" x="624.38" y="-533.5" font-family="Helvetica,sans-Serif" font-size="10.00">SNMP::Message</text>
</a>
</g>
</g>
<!-- Node4&#45;&gt;Node5 -->
<g id="edge4_Node000004_Node000005" class="edge">
<title>Node4&#45;&gt;Node5</title>
<g id="a_edge4_Node000004_Node000005"><a xlink:title=" ">
<path fill="none" stroke="#63b8ff" d="M535.59,-526.27C550.22,-528.05 565.34,-529.9 578.81,-531.55"/>
<polygon fill="#63b8ff" stroke="#63b8ff" points="536.39,-522.84 526.04,-525.1 535.54,-529.78 536.39,-522.84"/>
</a>
</g>
</g>
<!-- Node6 -->
<g id="Node000006" class="node">
<title>Node6</title>
<g id="a_Node000006"><a xlink:href="class_s_n_m_p_1_1_var_bind_list.html" target="_top" xlink:title="BER object to handle a list of variable bindings.">
<polygon fill="white" stroke="#666666" points="674.75,-509 574,-509 574,-489 674.75,-489 674.75,-509"/>
<text text-anchor="middle" x="624.38" y="-495.5" font-family="Helvetica,sans-Serif" font-size="10.00">SNMP::VarBindList</text>
</a>
</g>
</g>
<!-- Node4&#45;&gt;Node6 -->
<g id="edge5_Node000004_Node000006" class="edge">
<title>Node4&#45;&gt;Node6</title>
<g id="a_edge5_Node000004_Node000006"><a xlink:title=" ">
<path fill="none" stroke="#63b8ff" d="M535.61,-509.73C548.36,-508.17 561.48,-506.57 573.56,-505.09"/>
<polygon fill="#63b8ff" stroke="#63b8ff" points="535.54,-506.22 526.04,-510.9 536.39,-513.16 535.54,-506.22"/>
</a>
</g>
</g>
<!-- Node8 -->
<g id="Node000008" class="node">
<title>Node8</title>
<g id="a_Node000008"><a xlink:href="class_s_n_m_p_1_1_var_bind.html" target="_top" xlink:title="BER object to handle variable binding.">
<polygon fill="white" stroke="#666666" points="509.5,-490 424.5,-490 424.5,-470 509.5,-470 509.5,-490"/>
<text text-anchor="middle" x="467" y="-476.5" font-family="Helvetica,sans-Serif" font-size="10.00">SNMP::VarBind</text>
</a>
</g>
</g>
<!-- Node7&#45;&gt;Node8 -->
<g id="edge7_Node000007_Node000008" class="edge">
<title>Node7&#45;&gt;Node8</title>
<g id="a_edge7_Node000007_Node000008"><a xlink:title=" ">
<path fill="none" stroke="#63b8ff" d="M362.7,-466.83C383.46,-469.48 405.59,-472.3 424.02,-474.65"/>
<polygon fill="#63b8ff" stroke="#63b8ff" points="363.2,-463.37 352.84,-465.58 362.32,-470.31 363.2,-463.37"/>
</a>
</g>
</g>
<!-- Node10 -->
<g id="Node000010" class="node">
<title>Node10</title>
<g id="a_Node000010"><a xlink:href="class_s_n_m_p_1_1_counter32_b_e_r.html" target="_top" xlink:title="BER object to handle 32&#45;bit counter.">
<polygon fill="white" stroke="#666666" points="524.5,-452 409.5,-452 409.5,-432 524.5,-432 524.5,-452"/>
<text text-anchor="middle" x="467" y="-438.5" font-family="Helvetica,sans-Serif" font-size="10.00">SNMP::Counter32BER</text>
</a>
</g>
</g>
<!-- Node9&#45;&gt;Node10 -->
<g id="edge9_Node000009_Node000010" class="edge">
<title>Node9&#45;&gt;Node10</title>
<g id="a_edge9_Node000009_Node000010"><a xlink:title=" ">
<path fill="none" stroke="#63b8ff" d="M360.22,-421.17C377.68,-424.6 396.25,-428.26 412.89,-431.54"/>
<polygon fill="#63b8ff" stroke="#63b8ff" points="360.92,-417.74 350.43,-419.24 359.56,-424.6 360.92,-417.74"/>
</a>
</g>
</g>
<!-- Node11 -->
<g id="Node000011" class="node">
<title>Node11</title>
<g id="a_Node000011"><a xlink:href="class_s_n_m_p_1_1_gauge32_b_e_r.html" target="_top" xlink:title="BER object to handle 32&#45;bit gauge.">
<polygon fill="white" stroke="#666666" points="521.88,-414 412.12,-414 412.12,-394 521.88,-394 521.88,-414"/>
<text text-anchor="middle" x="467" y="-400.5" font-family="Helvetica,sans-Serif" font-size="10.00">SNMP::Gauge32BER</text>
</a>
</g>
</g>
<!-- Node9&#45;&gt;Node11 -->
<g id="edge10_Node000009_Node000011" class="edge">
<title>Node9&#45;&gt;Node11</title>
<g id="a_edge10_Node000009_Node000011"><a xlink:title=" ">
<path fill="none" stroke="#63b8ff" d="M360,-406.46C377.11,-406.06 395.31,-405.64 411.71,-405.26"/>
<polygon fill="#63b8ff" stroke="#63b8ff" points="360.37,-402.95 350.46,-406.68 360.54,-409.94 360.37,-402.95"/>
</a>
</g>
</g>
<!-- Node12 -->
<g id="Node000012" class="node">
<title>Node12</title>
<g id="a_Node000012"><a xlink:href="class_s_n_m_p_1_1_time_ticks_b_e_r.html" target="_top" xlink:title="BER object to handle time.">
<polygon fill="white" stroke="#666666" points="524.5,-376 409.5,-376 409.5,-356 524.5,-356 524.5,-376"/>
<text text-anchor="middle" x="467" y="-362.5" font-family="Helvetica,sans-Serif" font-size="10.00">SNMP::TimeTicksBER</text>
</a>
</g>
</g>
<!-- Node9&#45;&gt;Node12 -->
<g id="edge11_Node000009_Node000012" class="edge">
<title>Node9&#45;&gt;Node12</title>
<g id="a_edge11_Node000009_Node000012"><a xlink:title=" ">
<path fill="none" stroke="#63b8ff" d="M360.11,-391.76C381.18,-386.64 403.89,-381.11 422.85,-376.5"/>
<polygon fill="#63b8ff" stroke="#63b8ff" points="359.3,-388.36 350.42,-394.12 360.96,-395.16 359.3,-388.36"/>
</a>
</g>
</g>
<!-- Node14 -->
<g id="Node000014" class="node">
<title>Node14</title>
<g id="a_Node000014"><a xlink:href="class_s_n_m_p_1_1_counter64_b_e_r.html" target="_top" xlink:title="BER object to handle 64&#45;bit counter.">
<polygon fill="white" stroke="#666666" points="524.5,-338 409.5,-338 409.5,-318 524.5,-318 524.5,-338"/>
<text text-anchor="middle" x="467" y="-324.5" font-family="Helvetica,sans-Serif" font-size="10.00">SNMP::Counter64BER</text>
</a>
</g>
</g>
<!-- Node13&#45;&gt;Node14 -->
<g id="edge13_Node000013_Node000014" class="edge">
<title>Node13&#45;&gt;Node14</title>
<g id="a_edge13_Node000013_Node000014"><a xlink:title=" ">
<path fill="none" stroke="#63b8ff" d="M359.97,-346.43C376.17,-343.61 393.35,-340.63 409.05,-337.9"/>
<polygon fill="#63b8ff" stroke="#63b8ff" points="359.69,-342.92 350.44,-348.08 360.89,-349.82 359.69,-342.92"/>
</a>
</g>
</g>
<!-- Node18 -->
<g id="Node000018" class="node">
<title>Node18</title>
<g id="a_Node000018"><a xlink:href="class_s_n_m_p_1_1_opaque_float_b_e_r.html" target="_top" xlink:title="BER object to handle float.">
<polygon fill="white" stroke="#666666" points="530.12,-248 403.88,-248 403.88,-228 530.12,-228 530.12,-248"/>
<text text-anchor="middle" x="467" y="-234.5" font-family="Helvetica,sans-Serif" font-size="10.00">SNMP::OpaqueFloatBER</text>
</a>
</g>
</g>
<!-- Node17&#45;&gt;Node18 -->
<g id="edge17_Node000017_Node000018" class="edge">
<title>Node17&#45;&gt;Node18</title>
<g id="a_edge17_Node000017_Node000018"><a xlink:title=" ">
<path fill="none" stroke="#63b8ff" d="M350.21,-238C367.25,-238 386.04,-238 403.43,-238"/>
<polygon fill="#63b8ff" stroke="#63b8ff" points="350.24,-234.5 340.24,-238 350.24,-241.5 350.24,-234.5"/>
</a>
</g>
</g>
<!-- Node21 -->
<g id="Node000021" class="node">
<title>Node21</title>
<g id="a_Node000021"><a xlink:href="class_s_n_m_p_1_1_end_of_m_i_b_view_b_e_r.html" target="_top" xlink:title="BER object to handle endOfMIBView exception.">
<polygon fill="white" stroke="#666666" points="535,-210 399,-210 399,-190 535,-190 535,-210"/>
<text text-anchor="middle" x="467" y="-196.5" font-family="Helvetica,sans-Serif" font-size="10.00">SNMP::EndOfMIBViewBER</text>
</a>
</g>
</g>
<!-- Node20&#45;&gt;Node21 -->
<g id="edge20_Node000020_Node000021" class="edge">
<title>Node20&#45;&gt;Node21</title>
<g id="a_edge20_Node000020_Node000021"><a xlink:title=" ">
<path fill="none" stroke="#63b8ff" d="M347.69,-173.96C370.43,-178.96 396.63,-184.73 418.58,-189.56"/>
<polygon fill="#63b8ff" stroke="#63b8ff" points="348.49,-170.55 337.97,-171.82 346.98,-177.38 348.49,-170.55"/>
</a>
</g>
</g>
<!-- Node22 -->
<g id="Node000022" class="node">
<title>Node22</title>
<g id="a_Node000022"><a xlink:href="class_s_n_m_p_1_1_no_such_instance_b_e_r.html" target="_top" xlink:title="BER object to handle noSuchInstance exception.">
<polygon fill="white" stroke="#666666" points="538,-172 396,-172 396,-152 538,-152 538,-172"/>
<text text-anchor="middle" x="467" y="-158.5" font-family="Helvetica,sans-Serif" font-size="10.00">SNMP::NoSuchInstanceBER</text>
</a>
</g>
</g>
<!-- Node20&#45;&gt;Node22 -->
<g id="edge21_Node000020_Node000022" class="edge">
<title>Node20&#45;&gt;Node22</title>
<g id="a_edge21_Node000020_Node000022"><a xlink:title=" ">
<path fill="none" stroke="#63b8ff" d="M347.76,-162C362.93,-162 379.64,-162 395.6,-162"/>
<polygon fill="#63b8ff" stroke="#63b8ff" points="348,-158.5 338,-162 348,-165.5 348,-158.5"/>
</a>
</g>
</g>
<!-- Node23 -->
<g id="Node000023" class="node">
<title>Node23</title>
<g id="a_Node000023"><a xlink:href="class_s_n_m_p_1_1_no_such_object_b_e_r.html" target="_top" xlink:title="BER object to handle noSuchObject exception.">
<polygon fill="white" stroke="#666666" points="533.88,-134 400.12,-134 400.12,-114 533.88,-114 533.88,-134"/>
<text text-anchor="middle" x="467" y="-120.5" font-family="Helvetica,sans-Serif" font-size="10.00">SNMP::NoSuchObjectBER</text>
</a>
</g>
</g>
<!-- Node20&#45;&gt;Node23 -->
<g id="edge22_Node000020_Node000023" class="edge">
<title>Node20&#45;&gt;Node23</title>
<g id="a_edge22_Node000020_Node000023"><a xlink:title=" ">
<path fill="none" stroke="#63b8ff" d="M347.69,-150.04C370.43,-145.04 396.63,-139.27 418.58,-134.44"/>
<polygon fill="#63b8ff" stroke="#63b8ff" points="346.98,-146.62 337.97,-152.18 348.49,-153.45 346.98,-146.62"/>
</a>
</g>
</g>
<!-- Node26 -->
<g id="Node000026" class="node">
<title>Node26</title>
<g id="a_Node000026"><a xlink:href="class_s_n_m_p_1_1_i_p_address_b_e_r.html" target="_top" xlink:title="BER object to handle IP address.">
<polygon fill="white" stroke="#666666" points="524.88,-96 409.12,-96 409.12,-76 524.88,-76 524.88,-96"/>
<text text-anchor="middle" x="467" y="-82.5" font-family="Helvetica,sans-Serif" font-size="10.00">SNMP::IPAddressBER</text>
</a>
</g>
</g>
<!-- Node25&#45;&gt;Node26 -->
<g id="edge25_Node000025_Node000026" class="edge">
<title>Node25&#45;&gt;Node26</title>
<g id="a_edge25_Node000025_Node000026"><a xlink:title=" ">
<path fill="none" stroke="#63b8ff" d="M364.02,-86C378.93,-86 394.48,-86 408.81,-86"/>
<polygon fill="#63b8ff" stroke="#63b8ff" points="364.3,-82.5 354.3,-86 364.3,-89.5 364.3,-82.5"/>
</a>
</g>
</g>
</g>
</svg>
