<?xml version="1.0" encoding="UTF-8" standalone="no"?>
<!DOCTYPE svg PUBLIC "-//W3C//DTD SVG 1.1//EN"
 "http://www.w3.org/Graphics/SVG/1.1/DTD/svg11.dtd">
<!-- Generated by graphviz version 10.0.1 (20240210.2158)
 -->
<!-- Title: SNMP::TimeTicksBER Pages: 1 -->
<svg width="123pt" height="208pt"
 viewBox="0.00 0.00 123.00 208.00" xmlns="http://www.w3.org/2000/svg" xmlns:xlink="http://www.w3.org/1999/xlink">
<g id="graph0" class="graph" transform="scale(1 1) rotate(0) translate(4 204)">
<title>SNMP::TimeTicksBER</title>
<!-- Node1 -->
<g id="Node000001" class="node">
<title>Node1</title>
<g id="a_Node000001"><a xlink:title="BER object to handle time.">
<polygon fill="#999999" stroke="#666666" points="115,-20 0,-20 0,0 115,0 115,-20"/>
<text text-anchor="middle" x="57.5" y="-6.5" font-family="Helvetica,sans-Serif" font-size="10.00">SNMP::TimeTicksBER</text>
</a>
</g>
</g>
<!-- Node2 -->
<g id="Node000002" class="node">
<title>Node2</title>
<g id="a_Node000002"><a xlink:href="class_s_n_m_p_1_1_u_integer_b_e_r.html" target="_top" xlink:title=" ">
<polygon fill="white" stroke="#666666" points="113.88,-88 1.12,-88 1.12,-56 113.88,-56 113.88,-88"/>
<text text-anchor="start" x="9.12" y="-74.5" font-family="Helvetica,sans-Serif" font-size="10.00">SNMP::UIntegerBER&lt;</text>
<text text-anchor="middle" x="57.5" y="-62.5" font-family="Helvetica,sans-Serif" font-size="10.00"> uint32_t &gt;</text>
</a>
</g>
</g>
<!-- Node2&#45;&gt;Node1 -->
<g id="edge1_Node000001_Node000002" class="edge">
<title>Node2&#45;&gt;Node1</title>
<g id="a_edge1_Node000001_Node000002"><a xlink:title=" ">
<path fill="none" stroke="#63b8ff" d="M57.5,-44.08C57.5,-35.6 57.5,-26.8 57.5,-20.41"/>
<polygon fill="#63b8ff" stroke="#63b8ff" points="54,-44.03 57.5,-54.03 61,-44.03 54,-44.03"/>
</a>
</g>
</g>
<!-- Node3 -->
<g id="Node000003" class="node">
<title>Node3</title>
<g id="a_Node000003"><a xlink:href="class_s_n_m_p_1_1_b_e_r.html" target="_top" xlink:title="BER object.">
<polygon fill="white" stroke="#666666" points="92.88,-144 22.12,-144 22.12,-124 92.88,-124 92.88,-144"/>
<text text-anchor="middle" x="57.5" y="-130.5" font-family="Helvetica,sans-Serif" font-size="10.00">SNMP::BER</text>
</a>
</g>
</g>
<!-- Node3&#45;&gt;Node2 -->
<g id="edge2_Node000002_Node000003" class="edge">
<title>Node3&#45;&gt;Node2</title>
<g id="a_edge2_Node000002_Node000003"><a xlink:title=" ">
<path fill="none" stroke="#63b8ff" d="M57.5,-112.31C57.5,-104.37 57.5,-95.46 57.5,-88.14"/>
<polygon fill="#63b8ff" stroke="#63b8ff" points="54,-112.11 57.5,-122.11 61,-112.11 54,-112.11"/>
</a>
</g>
</g>
<!-- Node4 -->
<g id="Node000004" class="node">
<title>Node4</title>
<g id="a_Node000004"><a xlink:href="class_s_n_m_p_1_1_base.html" target="_top" xlink:title="Base class for BER, Length and Type.">
<polygon fill="white" stroke="#666666" points="94,-200 21,-200 21,-180 94,-180 94,-200"/>
<text text-anchor="middle" x="57.5" y="-186.5" font-family="Helvetica,sans-Serif" font-size="10.00">SNMP::Base</text>
</a>
</g>
</g>
<!-- Node4&#45;&gt;Node3 -->
<g id="edge3_Node000003_Node000004" class="edge">
<title>Node4&#45;&gt;Node3</title>
<g id="a_edge3_Node000003_Node000004"><a xlink:title=" ">
<path fill="none" stroke="#63b8ff" d="M57.5,-168.13C57.5,-159.9 57.5,-150.85 57.5,-144.3"/>
<polygon fill="#63b8ff" stroke="#63b8ff" points="54,-168.08 57.5,-178.08 61,-168.08 54,-168.08"/>
</a>
</g>
</g>
</g>
</svg>
