<?xml version="1.0" encoding="UTF-8" standalone="no"?>
<!DOCTYPE svg PUBLIC "-//W3C//DTD SVG 1.1//EN"
 "http://www.w3.org/Graphics/SVG/1.1/DTD/svg11.dtd">
<!-- Generated by graphviz version 10.0.1 (20240210.2158)
 -->
<!-- Title: SNMP::OpaqueBER Pages: 1 -->
<svg width="190pt" height="221pt"
 viewBox="0.00 0.00 190.00 221.00" xmlns="http://www.w3.org/2000/svg" xmlns:xlink="http://www.w3.org/1999/xlink">

<svg id="main" version="1.1" xmlns="http://www.w3.org/2000/svg" xmlns:xlink="http://www.w3.org/1999/xlink" xml:space="preserve">

<style type="text/css"><![CDATA[
.node, .edge {opacity: 0.7;}
.node.selected, .edge.selected {opacity: 1;}
.edge:hover path { stroke: red; }
.edge:hover polygon { stroke: red; fill: red; }
]]></style>
<script type="application/ecmascript" xlink:href="svg.min.js"/>
<svg id="graph" class="graph">
<g id="graph0" class="graph" transform="scale(1 1) rotate(0) translate(4 217)">
<title>SNMP::OpaqueBER</title>
<!-- Node1 -->
<g id="Node000001" class="node">
<title>Node1</title>
<g id="a_Node000001"><a xlink:title="BER object to handle embedded BER object.">
<polygon fill="#999999" stroke="#666666" points="104.5,-20 0,-20 0,0 104.5,0 104.5,-20"/>
<text text-anchor="middle" x="52.25" y="-6.5" font-family="Helvetica,sans-Serif" font-size="10.00">SNMP::OpaqueBER</text>
</a>
</g>
</g>
<!-- Node2 -->
<g id="Node000002" class="node">
<title>Node2</title>
<g id="a_Node000002"><a xlink:href="class_s_n_m_p_1_1_b_e_r.html" target="_top" xlink:title="BER object.">
<polygon fill="white" stroke="#666666" points="87.62,-88 16.88,-88 16.88,-68 87.62,-68 87.62,-88"/>
<text text-anchor="middle" x="52.25" y="-74.5" font-family="Helvetica,sans-Serif" font-size="10.00">SNMP::BER</text>
</a>
</g>
</g>
<!-- Node2&#45;&gt;Node1 -->
<g id="edge1_Node000001_Node000002" class="edge">
<title>Node2&#45;&gt;Node1</title>
<g id="a_edge1_Node000001_Node000002"><a xlink:title=" ">
<path fill="none" stroke="#63b8ff" d="M50.52,-56.57C50.2,-50.59 50.03,-44.03 50.25,-38 50.47,-32.18 50.94,-25.66 51.37,-20.49"/>
<polygon fill="#63b8ff" stroke="#63b8ff" points="47.01,-56.47 51.2,-66.2 53.99,-55.97 47.01,-56.47"/>
</a>
</g>
</g>
<!-- Node2&#45;&gt;Node1 -->
<g id="edge7_Node000001_Node000002" class="edge">
<title>Node2&#45;&gt;Node1</title>
<g id="a_edge7_Node000001_Node000002"><a xlink:title=" ">
<path fill="none" stroke="#9a32cd" stroke-dasharray="5,2" d="M52.25,-56.28C52.25,-44.27 52.25,-29.74 52.25,-20.44"/>
<polygon fill="#9a32cd" stroke="#9a32cd" points="48.75,-56.03 52.25,-66.03 55.75,-56.03 48.75,-56.03"/>
</a>
</g>
<text text-anchor="middle" x="63.12" y="-40.5" font-family="Helvetica,sans-Serif" font-size="10.00" fill="grey"> _ber</text>
</g>
<!-- Node3 -->
<g id="Node000003" class="node">
<title>Node3</title>
<g id="a_Node000003"><a xlink:href="class_s_n_m_p_1_1_base.html" target="_top" xlink:title="Base class for BER, Length and Type.">
<polygon fill="white" stroke="#666666" points="88.75,-213 15.75,-213 15.75,-193 88.75,-193 88.75,-213"/>
<text text-anchor="middle" x="52.25" y="-199.5" font-family="Helvetica,sans-Serif" font-size="10.00">SNMP::Base</text>
</a>
</g>
</g>
<!-- Node3&#45;&gt;Node2 -->
<g id="edge2_Node000002_Node000003" class="edge">
<title>Node3&#45;&gt;Node2</title>
<g id="a_edge2_Node000002_Node000003"><a xlink:title=" ">
<path fill="none" stroke="#63b8ff" d="M28.15,-186.13C18.5,-178.33 8.45,-168.01 3.25,-156 -0.28,-147.84 0.16,-144.33 3.25,-136 10.6,-116.18 28.27,-98.62 40.25,-88.39"/>
<polygon fill="#63b8ff" stroke="#63b8ff" points="25.79,-188.73 35.89,-191.9 29.97,-183.12 25.79,-188.73"/>
</a>
</g>
</g>
<!-- Node4 -->
<g id="Node000004" class="node">
<title>Node4</title>
<g id="a_Node000004"><a xlink:href="class_s_n_m_p_1_1_length.html" target="_top" xlink:title="Length of a BER object.">
<polygon fill="white" stroke="#666666" points="92.12,-156 12.38,-156 12.38,-136 92.12,-136 92.12,-156"/>
<text text-anchor="middle" x="52.25" y="-142.5" font-family="Helvetica,sans-Serif" font-size="10.00">SNMP::Length</text>
</a>
</g>
</g>
<!-- Node3&#45;&gt;Node4 -->
<g id="edge4_Node000004_Node000003" class="edge">
<title>Node3&#45;&gt;Node4</title>
<g id="a_edge4_Node000004_Node000003"><a xlink:title=" ">
<path fill="none" stroke="#63b8ff" d="M52.25,-181.69C52.25,-172.97 52.25,-163.22 52.25,-156.28"/>
<polygon fill="#63b8ff" stroke="#63b8ff" points="48.75,-181.4 52.25,-191.4 55.75,-181.4 48.75,-181.4"/>
</a>
</g>
</g>
<!-- Node5 -->
<g id="Node000005" class="node">
<title>Node5</title>
<g id="a_Node000005"><a xlink:href="class_s_n_m_p_1_1_type.html" target="_top" xlink:title="Type of a BER object.">
<polygon fill="white" stroke="#666666" points="182,-156 110.5,-156 110.5,-136 182,-136 182,-156"/>
<text text-anchor="middle" x="146.25" y="-142.5" font-family="Helvetica,sans-Serif" font-size="10.00">SNMP::Type</text>
</a>
</g>
</g>
<!-- Node3&#45;&gt;Node5 -->
<g id="edge6_Node000005_Node000003" class="edge">
<title>Node3&#45;&gt;Node5</title>
<g id="a_edge6_Node000005_Node000003"><a xlink:title=" ">
<path fill="none" stroke="#63b8ff" d="M77.9,-186.99C94.61,-177.21 115.89,-164.77 130.23,-156.38"/>
<polygon fill="#63b8ff" stroke="#63b8ff" points="76.37,-183.83 69.5,-191.91 79.9,-189.88 76.37,-183.83"/>
</a>
</g>
</g>
<!-- Node4&#45;&gt;Node2 -->
<g id="edge3_Node000002_Node000004" class="edge">
<title>Node4&#45;&gt;Node2</title>
<g id="a_edge3_Node000002_Node000004"><a xlink:title=" ">
<path fill="none" stroke="#9a32cd" stroke-dasharray="5,2" d="M52.25,-124.28C52.25,-112.27 52.25,-97.74 52.25,-88.44"/>
<polygon fill="#9a32cd" stroke="#9a32cd" points="48.75,-124.03 52.25,-134.03 55.75,-124.03 48.75,-124.03"/>
</a>
</g>
<text text-anchor="middle" x="69.5" y="-108.5" font-family="Helvetica,sans-Serif" font-size="10.00" fill="grey"> _length</text>
</g>
<!-- Node5&#45;&gt;Node2 -->
<g id="edge5_Node000002_Node000005" class="edge">
<title>Node5&#45;&gt;Node2</title>
<g id="a_edge5_Node000002_Node000005"><a xlink:title=" ">
<path fill="none" stroke="#9a32cd" stroke-dasharray="5,2" d="M123.52,-129.04C105.44,-116.35 80.76,-99.02 65.69,-88.44"/>
<polygon fill="#9a32cd" stroke="#9a32cd" points="121.35,-131.79 131.54,-134.67 125.37,-126.06 121.35,-131.79"/>
</a>
</g>
<text text-anchor="middle" x="121.75" y="-108.5" font-family="Helvetica,sans-Serif" font-size="10.00" fill="grey"> _type</text>
</g>
</g>
</svg>
</svg>

<style type='text/css'>
<![CDATA[
[data-mouse-over-selected='false'] { opacity: 0.7; }
[data-mouse-over-selected='true']  { opacity: 1.0; }
]]>
</style>
<script type="application/ecmascript"><![CDATA[
document.addEventListener('DOMContentLoaded', (event) => {
  highlightEdges();
  highlightAdjacentNodes();
});
]]></script>
</svg>
