<?xml version="1.0" encoding="UTF-8" standalone="no"?>
<!DOCTYPE svg PUBLIC "-//W3C//DTD SVG 1.1//EN"
 "http://www.w3.org/Graphics/SVG/1.1/DTD/svg11.dtd">
<!-- Generated by graphviz version 10.0.1 (20240210.2158)
 -->
<!-- Title: SNMP::Gauge32BER Pages: 1 -->
<svg width="194pt" height="279pt"
 viewBox="0.00 0.00 194.12 279.00" xmlns="http://www.w3.org/2000/svg" xmlns:xlink="http://www.w3.org/1999/xlink">
<g id="graph0" class="graph" transform="scale(1 1) rotate(0) translate(4 275)">
<title>SNMP::Gauge32BER</title>
<!-- Node1 -->
<g id="Node000001" class="node">
<title>Node1</title>
<g id="a_Node000001"><a xlink:title="BER object to handle 32&#45;bit gauge.">
<polygon fill="#999999" stroke="#666666" points="111.25,-20 1.5,-20 1.5,0 111.25,0 111.25,-20"/>
<text text-anchor="middle" x="56.38" y="-6.5" font-family="Helvetica,sans-Serif" font-size="10.00">SNMP::Gauge32BER</text>
</a>
</g>
</g>
<!-- Node2 -->
<g id="Node000002" class="node">
<title>Node2</title>
<g id="a_Node000002"><a xlink:href="class_s_n_m_p_1_1_u_integer_b_e_r.html" target="_top" xlink:title=" ">
<polygon fill="white" stroke="#666666" points="112.75,-89 0,-89 0,-57 112.75,-57 112.75,-89"/>
<text text-anchor="start" x="8" y="-75.5" font-family="Helvetica,sans-Serif" font-size="10.00">SNMP::UIntegerBER&lt;</text>
<text text-anchor="middle" x="56.38" y="-63.5" font-family="Helvetica,sans-Serif" font-size="10.00"> uint32_t &gt;</text>
</a>
</g>
</g>
<!-- Node2&#45;&gt;Node1 -->
<g id="edge1_Node000001_Node000002" class="edge">
<title>Node2&#45;&gt;Node1</title>
<g id="a_edge1_Node000001_Node000002"><a xlink:title=" ">
<path fill="none" stroke="#63b8ff" d="M56.38,-45.36C56.38,-36.41 56.38,-27.01 56.38,-20.31"/>
<polygon fill="#63b8ff" stroke="#63b8ff" points="52.88,-45.09 56.38,-55.09 59.88,-45.09 52.88,-45.09"/>
</a>
</g>
</g>
<!-- Node3 -->
<g id="Node000003" class="node">
<title>Node3</title>
<g id="a_Node000003"><a xlink:href="class_s_n_m_p_1_1_b_e_r.html" target="_top" xlink:title="BER object.">
<polygon fill="white" stroke="#666666" points="91.75,-146 21,-146 21,-126 91.75,-126 91.75,-146"/>
<text text-anchor="middle" x="56.38" y="-132.5" font-family="Helvetica,sans-Serif" font-size="10.00">SNMP::BER</text>
</a>
</g>
</g>
<!-- Node3&#45;&gt;Node2 -->
<g id="edge2_Node000002_Node000003" class="edge">
<title>Node3&#45;&gt;Node2</title>
<g id="a_edge2_Node000002_Node000003"><a xlink:title=" ">
<path fill="none" stroke="#63b8ff" d="M56.38,-114.36C56.38,-106.07 56.38,-96.69 56.38,-89.06"/>
<polygon fill="#63b8ff" stroke="#63b8ff" points="52.88,-114.22 56.38,-124.22 59.88,-114.22 52.88,-114.22"/>
</a>
</g>
</g>
<!-- Node4 -->
<g id="Node000004" class="node">
<title>Node4</title>
<g id="a_Node000004"><a xlink:href="class_s_n_m_p_1_1_base.html" target="_top" xlink:title="Base class for BER, Length and Type.">
<polygon fill="white" stroke="#666666" points="92.88,-271 19.88,-271 19.88,-251 92.88,-251 92.88,-271"/>
<text text-anchor="middle" x="56.38" y="-257.5" font-family="Helvetica,sans-Serif" font-size="10.00">SNMP::Base</text>
</a>
</g>
</g>
<!-- Node4&#45;&gt;Node3 -->
<g id="edge3_Node000003_Node000004" class="edge">
<title>Node4&#45;&gt;Node3</title>
<g id="a_edge3_Node000003_Node000004"><a xlink:title=" ">
<path fill="none" stroke="#63b8ff" d="M32.27,-244.13C22.62,-236.33 12.57,-226.01 7.38,-214 3.84,-205.84 4.29,-202.33 7.38,-194 14.72,-174.18 32.39,-156.62 44.38,-146.39"/>
<polygon fill="#63b8ff" stroke="#63b8ff" points="29.91,-246.73 40.02,-249.9 34.1,-241.12 29.91,-246.73"/>
</a>
</g>
</g>
<!-- Node5 -->
<g id="Node000005" class="node">
<title>Node5</title>
<g id="a_Node000005"><a xlink:href="class_s_n_m_p_1_1_length.html" target="_top" xlink:title="Length of a BER object.">
<polygon fill="white" stroke="#666666" points="96.25,-214 16.5,-214 16.5,-194 96.25,-194 96.25,-214"/>
<text text-anchor="middle" x="56.38" y="-200.5" font-family="Helvetica,sans-Serif" font-size="10.00">SNMP::Length</text>
</a>
</g>
</g>
<!-- Node4&#45;&gt;Node5 -->
<g id="edge5_Node000005_Node000004" class="edge">
<title>Node4&#45;&gt;Node5</title>
<g id="a_edge5_Node000005_Node000004"><a xlink:title=" ">
<path fill="none" stroke="#63b8ff" d="M56.38,-239.69C56.38,-230.97 56.38,-221.22 56.38,-214.28"/>
<polygon fill="#63b8ff" stroke="#63b8ff" points="52.88,-239.4 56.38,-249.4 59.88,-239.4 52.88,-239.4"/>
</a>
</g>
</g>
<!-- Node6 -->
<g id="Node000006" class="node">
<title>Node6</title>
<g id="a_Node000006"><a xlink:href="class_s_n_m_p_1_1_type.html" target="_top" xlink:title="Type of a BER object.">
<polygon fill="white" stroke="#666666" points="186.12,-214 114.62,-214 114.62,-194 186.12,-194 186.12,-214"/>
<text text-anchor="middle" x="150.38" y="-200.5" font-family="Helvetica,sans-Serif" font-size="10.00">SNMP::Type</text>
</a>
</g>
</g>
<!-- Node4&#45;&gt;Node6 -->
<g id="edge7_Node000006_Node000004" class="edge">
<title>Node4&#45;&gt;Node6</title>
<g id="a_edge7_Node000006_Node000004"><a xlink:title=" ">
<path fill="none" stroke="#63b8ff" d="M82.03,-244.99C98.74,-235.21 120.01,-222.77 134.35,-214.38"/>
<polygon fill="#63b8ff" stroke="#63b8ff" points="80.49,-241.83 73.63,-249.91 84.03,-247.88 80.49,-241.83"/>
</a>
</g>
</g>
<!-- Node5&#45;&gt;Node3 -->
<g id="edge4_Node000003_Node000005" class="edge">
<title>Node5&#45;&gt;Node3</title>
<g id="a_edge4_Node000003_Node000005"><a xlink:title=" ">
<path fill="none" stroke="#9a32cd" stroke-dasharray="5,2" d="M56.38,-182.28C56.38,-170.27 56.38,-155.74 56.38,-146.44"/>
<polygon fill="#9a32cd" stroke="#9a32cd" points="52.88,-182.03 56.38,-192.03 59.88,-182.03 52.88,-182.03"/>
</a>
</g>
<text text-anchor="middle" x="73.62" y="-166.5" font-family="Helvetica,sans-Serif" font-size="10.00" fill="grey"> _length</text>
</g>
<!-- Node6&#45;&gt;Node3 -->
<g id="edge6_Node000003_Node000006" class="edge">
<title>Node6&#45;&gt;Node3</title>
<g id="a_edge6_Node000003_Node000006"><a xlink:title=" ">
<path fill="none" stroke="#9a32cd" stroke-dasharray="5,2" d="M127.65,-187.04C109.57,-174.35 84.88,-157.02 69.82,-146.44"/>
<polygon fill="#9a32cd" stroke="#9a32cd" points="125.47,-189.79 135.67,-192.67 129.5,-184.06 125.47,-189.79"/>
</a>
</g>
<text text-anchor="middle" x="125.88" y="-166.5" font-family="Helvetica,sans-Serif" font-size="10.00" fill="grey"> _type</text>
</g>
</g>
</svg>
