<?xml version="1.0" encoding="UTF-8" standalone="no"?>
<!DOCTYPE svg PUBLIC "-//W3C//DTD SVG 1.1//EN"
 "http://www.w3.org/Graphics/SVG/1.1/DTD/svg11.dtd">
<!-- Generated by graphviz version 10.0.1 (20240210.2158)
 -->
<!-- Title: Graphical Class Hierarchy Pages: 1 -->
<svg width="211pt" height="66pt"
 viewBox="0.00 0.00 211.00 66.00" xmlns="http://www.w3.org/2000/svg" xmlns:xlink="http://www.w3.org/1999/xlink">
<g id="graph0" class="graph" transform="scale(1 1) rotate(0) translate(4 62)">
<title>Graphical Class Hierarchy</title>
<!-- Node0 -->
<g id="Node000000" class="node">
<title>Node0</title>
<g id="a_Node000000"><a xlink:href="class_s_n_m_p_1_1_s_n_m_p.html" target="_top" xlink:title=" ">
<polygon fill="white" stroke="#666666" points="79,-39 0,-39 0,-19 79,-19 79,-39"/>
<text text-anchor="middle" x="39.5" y="-25.5" font-family="Helvetica,sans-Serif" font-size="10.00">SNMP::SNMP</text>
</a>
</g>
</g>
<!-- Node1 -->
<g id="Node000001" class="node">
<title>Node1</title>
<g id="a_Node000001"><a xlink:href="class_s_n_m_p_1_1_agent.html" target="_top" xlink:title="SNMP agent.">
<polygon fill="white" stroke="#666666" points="197,-58 121,-58 121,-38 197,-38 197,-58"/>
<text text-anchor="middle" x="159" y="-44.5" font-family="Helvetica,sans-Serif" font-size="10.00">SNMP::Agent</text>
</a>
</g>
</g>
<!-- Node0&#45;&gt;Node1 -->
<g id="edge31_Node000000_Node000001" class="edge">
<title>Node0&#45;&gt;Node1</title>
<g id="a_edge31_Node000000_Node000001"><a xlink:title=" ">
<path fill="none" stroke="#63b8ff" d="M90.55,-37.09C100.71,-38.74 111.22,-40.44 120.84,-41.99"/>
<polygon fill="#63b8ff" stroke="#63b8ff" points="91.22,-33.66 80.79,-35.52 90.11,-40.57 91.22,-33.66"/>
</a>
</g>
</g>
<!-- Node2 -->
<g id="Node000002" class="node">
<title>Node2</title>
<g id="a_Node000002"><a xlink:href="class_s_n_m_p_1_1_manager.html" target="_top" xlink:title="SNMP manager.">
<polygon fill="white" stroke="#666666" points="203,-20 115,-20 115,0 203,0 203,-20"/>
<text text-anchor="middle" x="159" y="-6.5" font-family="Helvetica,sans-Serif" font-size="10.00">SNMP::Manager</text>
</a>
</g>
</g>
<!-- Node0&#45;&gt;Node2 -->
<g id="edge32_Node000000_Node000002" class="edge">
<title>Node0&#45;&gt;Node2</title>
<g id="a_edge32_Node000000_Node000002"><a xlink:title=" ">
<path fill="none" stroke="#63b8ff" d="M90.5,-20.91C98.58,-19.61 106.88,-18.27 114.78,-16.99"/>
<polygon fill="#63b8ff" stroke="#63b8ff" points="90.11,-17.43 80.79,-22.48 91.22,-24.34 90.11,-17.43"/>
</a>
</g>
</g>
</g>
</svg>
