<?xml version="1.0" encoding="UTF-8" standalone="no"?>
<!DOCTYPE svg PUBLIC "-//W3C//DTD SVG 1.1//EN"
 "http://www.w3.org/Graphics/SVG/1.1/DTD/svg11.dtd">
<!-- Generated by graphviz version 10.0.1 (20240210.2158)
 -->
<!-- Title: SNMP::Message::PDU Pages: 1 -->
<svg width="255pt" height="176pt"
 viewBox="0.00 0.00 255.38 176.00" xmlns="http://www.w3.org/2000/svg" xmlns:xlink="http://www.w3.org/1999/xlink">

<svg id="main" version="1.1" xmlns="http://www.w3.org/2000/svg" xmlns:xlink="http://www.w3.org/1999/xlink" xml:space="preserve">

<style type="text/css"><![CDATA[
.node, .edge {opacity: 0.7;}
.node.selected, .edge.selected {opacity: 1;}
.edge:hover path { stroke: red; }
.edge:hover polygon { stroke: red; fill: red; }
]]></style>
<script type="application/ecmascript" xlink:href="svg.min.js"/>
<svg id="graph" class="graph">
<g id="graph0" class="graph" transform="scale(1 1) rotate(0) translate(4 172)">
<title>SNMP::Message::PDU</title>
<!-- Node1 -->
<g id="Node000001" class="node">
<title>Node1</title>
<g id="a_Node000001"><a xlink:title=" ">
<polygon fill="#999999" stroke="#666666" points="212,-20 95.5,-20 95.5,0 212,0 212,-20"/>
<text text-anchor="middle" x="153.75" y="-6.5" font-family="Helvetica,sans-Serif" font-size="10.00">SNMP::Message::PDU</text>
</a>
</g>
</g>
<!-- Node2 -->
<g id="Node000002" class="node">
<title>Node2</title>
<g id="a_Node000002"><a xlink:href="struct_s_n_m_p_1_1_message_1_1_generic.html" target="_top" xlink:title=" ">
<polygon fill="white" stroke="#666666" points="159.75,-88 29.75,-88 29.75,-68 159.75,-68 159.75,-88"/>
<text text-anchor="middle" x="94.75" y="-74.5" font-family="Helvetica,sans-Serif" font-size="10.00">SNMP::Message::Generic</text>
</a>
</g>
</g>
<!-- Node2&#45;&gt;Node1 -->
<g id="edge1_Node000001_Node000002" class="edge">
<title>Node2&#45;&gt;Node1</title>
<g id="a_edge1_Node000001_Node000002"><a xlink:title=" ">
<path fill="none" stroke="#9a32cd" stroke-dasharray="5,2" d="M110.62,-59.25C121.79,-46.76 136.29,-30.53 145.31,-20.44"/>
<polygon fill="#9a32cd" stroke="#9a32cd" points="108.27,-56.63 104.21,-66.42 113.49,-61.29 108.27,-56.63"/>
</a>
</g>
<text text-anchor="middle" x="149.62" y="-40.5" font-family="Helvetica,sans-Serif" font-size="10.00" fill="grey"> _generic</text>
</g>
<!-- Node3 -->
<g id="Node000003" class="node">
<title>Node3</title>
<g id="a_Node000003"><a xlink:href="struct_s_n_m_p_1_1_error.html" target="_top" xlink:title=" ">
<polygon fill="white" stroke="#666666" points="71.5,-162 0,-162 0,-142 71.5,-142 71.5,-162"/>
<text text-anchor="middle" x="35.75" y="-148.5" font-family="Helvetica,sans-Serif" font-size="10.00">SNMP::Error</text>
</a>
</g>
</g>
<!-- Node3&#45;&gt;Node2 -->
<g id="edge2_Node000002_Node000003" class="edge">
<title>Node3&#45;&gt;Node2</title>
<g id="a_edge2_Node000002_Node000003"><a xlink:title=" ">
<path fill="none" stroke="#9a32cd" stroke-dasharray="5,2" d="M50.76,-132.68C62.41,-118.47 78.07,-99.36 87.22,-88.19"/>
<polygon fill="#9a32cd" stroke="#9a32cd" points="48.05,-130.46 44.42,-140.42 53.47,-134.9 48.05,-130.46"/>
</a>
</g>
<text text-anchor="middle" x="86.62" y="-108.5" font-family="Helvetica,sans-Serif" font-size="10.00" fill="grey"> _error</text>
</g>
<!-- Node4 -->
<g id="Node000004" class="node">
<title>Node4</title>
<g id="a_Node000004"><a xlink:href="struct_s_n_m_p_1_1_message_1_1_generic_1_1_repeater.html" target="_top" xlink:title=" ">
<polygon fill="white" stroke="#666666" points="219.75,-168 89.75,-168 89.75,-136 219.75,-136 219.75,-168"/>
<text text-anchor="start" x="97.75" y="-154.5" font-family="Helvetica,sans-Serif" font-size="10.00">SNMP::Message::Generic</text>
<text text-anchor="middle" x="154.75" y="-142.5" font-family="Helvetica,sans-Serif" font-size="10.00">::Repeater</text>
</a>
</g>
</g>
<!-- Node4&#45;&gt;Node2 -->
<g id="edge3_Node000002_Node000004" class="edge">
<title>Node4&#45;&gt;Node2</title>
<g id="a_edge3_Node000002_Node000004"><a xlink:title=" ">
<path fill="none" stroke="#9a32cd" stroke-dasharray="5,2" d="M134.79,-127.05C123.74,-113.79 110.64,-98.07 102.51,-88.31"/>
<polygon fill="#9a32cd" stroke="#9a32cd" points="131.97,-129.13 141.06,-134.57 137.34,-124.65 131.97,-129.13"/>
</a>
</g>
<text text-anchor="middle" x="148.5" y="-108.5" font-family="Helvetica,sans-Serif" font-size="10.00" fill="grey"> _repeater</text>
</g>
<!-- Node5 -->
<g id="Node000005" class="node">
<title>Node5</title>
<g id="a_Node000005"><a xlink:href="struct_s_n_m_p_1_1_trap.html" target="_top" xlink:title=" ">
<polygon fill="white" stroke="#666666" points="247.38,-88 178.12,-88 178.12,-68 247.38,-68 247.38,-88"/>
<text text-anchor="middle" x="212.75" y="-74.5" font-family="Helvetica,sans-Serif" font-size="10.00">SNMP::Trap</text>
</a>
</g>
</g>
<!-- Node5&#45;&gt;Node1 -->
<g id="edge4_Node000001_Node000005" class="edge">
<title>Node5&#45;&gt;Node1</title>
<g id="a_edge4_Node000001_Node000005"><a xlink:title=" ">
<path fill="none" stroke="#9a32cd" stroke-dasharray="5,2" d="M196.88,-59.25C185.71,-46.76 171.21,-30.53 162.19,-20.44"/>
<polygon fill="#9a32cd" stroke="#9a32cd" points="194.01,-61.29 203.29,-66.42 199.23,-56.63 194.01,-61.29"/>
</a>
</g>
<text text-anchor="middle" x="200.12" y="-40.5" font-family="Helvetica,sans-Serif" font-size="10.00" fill="grey"> _trap</text>
</g>
</g>
</svg>
</svg>

<style type='text/css'>
<![CDATA[
[data-mouse-over-selected='false'] { opacity: 0.7; }
[data-mouse-over-selected='true']  { opacity: 1.0; }
]]>
</style>
<script type="application/ecmascript"><![CDATA[
document.addEventListener('DOMContentLoaded', (event) => {
  highlightEdges();
  highlightAdjacentNodes();
});
]]></script>
</svg>
